<?xml version="1.0" encoding="utf-8"?>
<svg xmlns="http://www.w3.org/2000/svg" id="Layer_1" data-name="Layer 1" viewBox="0 0 50 50" width="512" height="512">
  <path d="M 25 33.333 C 18.585 33.333 14.576 26.389 17.783 20.833 C 20.991 15.278 29.009 15.278 32.217 20.833 C 32.948 22.1 33.333 23.537 33.333 25 C 33.333 29.602 29.602 33.333 25 33.333 Z M 25 20.833 C 21.792 20.833 19.788 24.306 21.392 27.083 C 22.995 29.861 27.005 29.861 28.608 27.083 C 28.974 26.45 29.167 25.731 29.167 25 C 29.167 22.699 27.301 20.833 25 20.833 Z M 37.5 47.917 C 37.5 38.294 27.083 32.28 18.75 37.091 C 14.882 39.324 12.5 43.451 12.5 47.917 C 12.5 49.52 14.236 50.523 15.625 49.721 C 16.27 49.349 16.667 48.661 16.667 47.917 C 16.667 41.502 23.611 37.492 29.167 40.7 C 31.745 42.188 33.333 44.939 33.333 47.917 C 33.333 49.52 35.069 50.523 36.458 49.721 C 37.103 49.349 37.5 48.661 37.5 47.917 Z M 37.5 16.667 C 31.085 16.667 27.076 9.722 30.283 4.167 C 33.491 -1.389 41.509 -1.389 44.717 4.167 C 45.448 5.433 45.833 6.871 45.833 8.333 C 45.833 12.936 42.102 16.667 37.5 16.667 Z M 37.5 4.167 C 34.292 4.167 32.288 7.639 33.892 10.417 C 35.495 13.194 39.505 13.194 41.108 10.417 C 41.474 9.783 41.667 9.065 41.667 8.333 C 41.667 6.032 39.801 4.167 37.5 4.167 Z M 50 31.25 C 49.993 24.349 44.401 18.757 37.5 18.75 C 35.896 18.75 34.894 20.486 35.696 21.875 C 36.068 22.52 36.756 22.917 37.5 22.917 C 42.102 22.917 45.833 26.648 45.833 31.25 C 45.833 32.854 47.569 33.856 48.958 33.054 C 49.603 32.682 50 31.994 50 31.25 Z M 12.5 16.667 C 6.085 16.667 2.076 9.722 5.283 4.167 C 8.491 -1.389 16.509 -1.389 19.717 4.167 C 20.448 5.433 20.833 6.871 20.833 8.333 C 20.833 12.936 17.102 16.667 12.5 16.667 Z M 12.5 4.167 C 9.292 4.167 7.288 7.639 8.892 10.417 C 10.495 13.194 14.505 13.194 16.108 10.417 C 16.474 9.783 16.667 9.065 16.667 8.333 C 16.667 6.032 14.801 4.167 12.5 4.167 Z M 4.167 31.25 C 4.167 26.648 7.898 22.917 12.5 22.917 C 14.104 22.917 15.106 21.181 14.304 19.792 C 13.932 19.147 13.244 18.75 12.5 18.75 C 5.599 18.757 0.007 24.349 0 31.25 C 0 32.854 1.736 33.856 3.125 33.054 C 3.77 32.682 4.167 31.994 4.167 31.25 Z" style="fill: rgb(255, 255, 255);"/>
</svg>