<?xml version="1.0" encoding="UTF-8" standalone="no"?>
<!DOCTYPE svg PUBLIC "-//W3C//DTD SVG 1.1//EN" "http://www.w3.org/Graphics/SVG/1.1/DTD/svg11.dtd">
<svg width="100%" height="100%" viewBox="0 0 6184 1266" version="1.1" xmlns="http://www.w3.org/2000/svg" xmlns:xlink="http://www.w3.org/1999/xlink" xml:space="preserve" xmlns:serif="http://www.serif.com/" style="fill-rule:evenodd;clip-rule:evenodd;stroke-linejoin:round;stroke-miterlimit:2;">
    <g transform="matrix(4.16667,0,0,4.16667,565.443,286.374)">
        <path d="M0,226.878C-5.961,226.878 -10.871,221.969 -10.871,216.008C-10.871,209.696 -5.961,204.786 0,204.786C2.607,204.786 5.012,205.725 6.894,207.309C6.896,207.311 6.899,207.313 6.901,207.316C7.114,207.495 7.315,207.689 7.514,207.885C7.792,208.165 8.065,208.449 8.314,208.755C8.322,208.764 8.331,208.773 8.34,208.783C8.624,209.134 8.882,209.506 9.124,209.889C9.189,209.992 9.25,210.099 9.312,210.205C9.476,210.484 9.625,210.773 9.765,211.068C9.831,211.208 9.901,211.345 9.962,211.489C10.125,211.871 10.268,212.264 10.389,212.671C10.434,212.823 10.465,212.981 10.504,213.136C10.582,213.444 10.649,213.757 10.702,214.077C10.728,214.237 10.753,214.398 10.773,214.56C10.829,215.032 10.87,215.511 10.87,216.008C10.87,221.969 5.961,226.878 0,226.878M116.77,-8.065C112.212,-8.065 108.705,-4.559 108.705,-0L108.705,62.067C108.705,92.575 102.393,119.225 89.419,140.966C76.444,163.058 56.456,180.591 28.404,193.565L19.988,197.422L12.136,201.229C8.858,198.426 4.635,196.721 0,196.721C-10.52,196.721 -18.936,205.487 -18.936,216.008C-18.936,226.527 -10.52,234.943 0,234.943C10.482,234.943 18.87,226.586 18.93,216.12L26.65,212.501L27.001,212.501L35.417,208.293C66.275,193.916 88.717,174.279 103.445,149.382C118.173,124.836 125.186,95.731 125.186,62.067L125.186,-0C125.186,-4.559 121.329,-8.065 116.77,-8.065" style="fill:rgb(5,195,222);"/>
    </g>
    <g transform="matrix(4.16667,0,0,4.16667,78.9,1126.5)">
        <path d="M0,-248.97C6.312,-248.97 11.221,-244.061 11.221,-238.1C11.221,-232.557 7.435,-228.099 2.238,-227.093C2.075,-227.134 1.921,-227.199 1.753,-227.229C1.391,-227.048 1.121,-226.962 0.849,-226.92C0.568,-226.9 0.287,-226.878 0,-226.878C-0.182,-226.878 -0.36,-226.897 -0.54,-226.906C-0.854,-226.939 -1.191,-227.017 -1.403,-227.229C-1.6,-227.193 -1.781,-227.12 -1.973,-227.07C-7.006,-228.014 -10.871,-232.501 -10.871,-238.1C-10.871,-244.061 -5.961,-248.97 0,-248.97M87.315,-8.767L86.263,-9.117L85.211,-9.819C58.56,-22.793 39.274,-40.326 27.001,-61.717C14.377,-83.458 8.416,-109.407 8.416,-139.564L8.416,-219.164C8.416,-219.796 8.315,-220.412 8.172,-221.015C14.552,-224.048 18.936,-230.517 18.936,-238.1C18.936,-248.619 10.52,-257.035 0,-257.035C-10.52,-257.035 -18.936,-248.619 -18.936,-238.1C-18.936,-230.394 -14.412,-223.834 -7.862,-220.866C-7.983,-220.31 -8.065,-219.744 -8.065,-219.164L-8.065,-139.564C-8.065,-106.601 -1.403,-77.847 12.624,-53.652C26.65,-29.105 48.391,-9.468 78.198,4.909L78.198,5.26L79.249,5.61L80.301,6.312C84.509,8.065 89.419,6.312 91.172,2.104C93.276,-1.754 91.523,-6.663 87.315,-8.767" style="fill:rgb(5,195,222);"/>
    </g>
    <g transform="matrix(4.16667,0,0,4.16667,610.585,465.148)">
        <path d="M0,74.09C-3.064,71.961 -6.79,70.709 -10.834,70.709C-14.831,70.709 -18.52,71.928 -21.563,74.011C-27.511,69.681 -32.251,64.855 -35.731,59.137C-41.342,49.318 -43.796,36.344 -43.796,19.161L-43.796,3.031C-38.536,2.68 -33.277,1.979 -27.666,0.576C-26.209,0.16 -24.759,-0.297 -23.32,-0.775C-20.043,2.028 -15.819,3.732 -11.185,3.732C-6.445,3.732 -2.142,1.942 1.166,-0.976C2.858,-0.424 4.576,0.104 6.348,0.576C11.608,1.979 17.219,2.68 22.479,3.031L22.479,19.161C22.479,36.344 20.024,49.318 14.063,59.137C10.811,64.889 6.106,69.74 0,74.09M-10.834,100.865C-15.658,100.865 -19.79,97.65 -21.193,93.079C-21.469,91.934 -21.705,90.789 -21.705,89.644C-21.705,89.068 -21.648,88.498 -21.555,87.936C-21.545,87.877 -21.538,87.817 -21.527,87.758C-21.424,87.194 -21.28,86.639 -21.092,86.101C-21.085,86.082 -21.078,86.063 -21.071,86.045C-20.712,85.036 -20.194,84.097 -19.576,83.237C-17.589,80.543 -14.405,78.774 -10.834,78.774C-9.753,78.774 -8.709,78.94 -7.72,79.239C-7.298,79.373 -6.887,79.522 -6.493,79.696C-6.315,79.775 -6.141,79.863 -5.968,79.95C-5.678,80.097 -5.401,80.258 -5.129,80.425C-4.781,80.642 -4.445,80.875 -4.125,81.129C-4.031,81.202 -3.937,81.277 -3.846,81.353C-2.591,82.414 -1.579,83.752 -0.903,85.268C-0.858,85.371 -0.812,85.473 -0.77,85.577C-0.659,85.848 -0.554,86.122 -0.465,86.403C-0.342,86.804 -0.238,87.213 -0.161,87.631C-0.131,87.787 -0.11,87.946 -0.088,88.104C-0.017,88.61 0.036,89.12 0.036,89.644C0.036,95.956 -4.873,100.865 -10.834,100.865M-11.185,-26.425C-6.553,-26.425 -2.568,-23.456 -1.016,-19.337L-1.016,-19.061L-0.914,-19.061C-0.819,-18.787 -0.738,-18.508 -0.665,-18.225L-0.665,-17.658L-0.525,-17.658C-0.389,-16.976 -0.314,-16.274 -0.314,-15.554C-0.314,-14.58 -0.444,-13.645 -0.664,-12.75L-0.665,-12.749L-0.665,-12.745C-0.753,-12.388 -0.856,-12.039 -0.976,-11.697L-1.016,-11.697L-1.016,-11.586C-1.061,-11.462 -1.099,-11.336 -1.148,-11.215L-1.366,-10.996L-1.366,-10.728C-1.433,-10.583 -1.497,-10.436 -1.57,-10.294L-1.717,-10.294L-1.717,-10.016C-1.796,-9.872 -1.882,-9.733 -1.967,-9.593L-2.068,-9.593L-2.068,-9.423C-2.26,-9.118 -2.466,-8.824 -2.685,-8.541L-2.769,-8.541L-2.769,-8.426C-2.833,-8.345 -2.902,-8.269 -2.969,-8.19L-3.12,-8.19L-3.12,-8.021C-3.173,-7.96 -3.226,-7.899 -3.281,-7.84L-3.47,-7.84L-3.47,-7.626C-3.515,-7.579 -3.562,-7.535 -3.608,-7.489L-3.821,-7.489L-3.821,-7.292C-3.876,-7.24 -3.931,-7.189 -3.986,-7.138L-4.172,-7.138L-4.172,-6.966C-4.241,-6.906 -4.31,-6.846 -4.381,-6.788L-4.522,-6.788L-4.522,-6.679C-4.626,-6.597 -4.733,-6.516 -4.84,-6.437L-5.224,-6.437L-5.224,-6.159C-5.262,-6.133 -5.302,-6.111 -5.34,-6.086L-5.574,-6.086L-5.574,-5.941C-5.685,-5.873 -5.793,-5.8 -5.907,-5.736L-6.276,-5.736L-6.276,-5.54C-6.38,-5.486 -6.486,-5.436 -6.591,-5.385L-6.977,-5.385L-7.277,-5.085C-7.322,-5.067 -7.368,-5.051 -7.413,-5.035L-8.029,-5.035L-8.33,-4.733C-9.243,-4.479 -10.197,-4.333 -11.185,-4.333C-12.057,-4.333 -12.901,-4.45 -13.716,-4.649C-13.691,-4.661 -13.664,-4.672 -13.639,-4.684L-13.851,-4.684C-14.014,-4.726 -14.18,-4.762 -14.341,-4.812L-14.341,-5.035L-14.957,-5.035C-15.102,-5.089 -15.251,-5.136 -15.393,-5.197L-15.393,-5.385L-15.778,-5.385C-15.884,-5.436 -15.99,-5.486 -16.094,-5.54L-16.094,-5.736L-16.463,-5.736C-16.577,-5.8 -16.685,-5.873 -16.795,-5.941L-16.795,-6.086L-17.03,-6.086C-17.151,-6.166 -17.272,-6.247 -17.391,-6.331L-17.497,-6.437L-17.53,-6.437C-17.637,-6.516 -17.743,-6.597 -17.847,-6.679L-17.847,-6.788L-17.989,-6.788C-18.06,-6.846 -18.129,-6.906 -18.198,-6.966L-18.198,-7.138L-18.384,-7.138C-18.82,-7.535 -19.231,-7.961 -19.601,-8.426L-19.601,-8.541L-19.685,-8.541C-20.625,-9.754 -21.319,-11.178 -21.705,-12.745L-21.705,-12.749L-21.706,-12.749C-21.926,-13.644 -22.055,-14.579 -22.055,-15.554C-22.055,-16.399 -21.947,-17.218 -21.761,-18.009L-21.705,-18.009L-21.705,-18.226C-20.499,-22.912 -16.224,-26.425 -11.185,-26.425M28.44,67.553C35.804,54.929 38.96,39.499 38.96,19.161L38.96,-13.1L30.544,-13.1C24.583,-12.749 17.569,-13.801 10.556,-15.554C9.587,-15.796 8.642,-16.062 7.71,-16.341C7.288,-26.17 -0.939,-34.49 -11.185,-34.49C-21.517,-34.49 -29.8,-26.03 -30.093,-16.093C-30.686,-15.913 -31.279,-15.733 -31.874,-15.554C-38.887,-13.801 -46.251,-12.749 -52.212,-13.1L-60.628,-13.1L-60.628,19.161C-60.628,39.499 -57.122,54.929 -49.758,67.553C-44.957,75.819 -38.32,82.661 -29.715,88.551C-29.736,88.915 -29.77,89.275 -29.77,89.644C-29.77,100.164 -21.354,108.58 -10.834,108.58C-0.314,108.58 8.102,100.164 8.102,89.644C8.102,89.276 8.068,88.917 8.047,88.554C16.669,82.663 23.372,75.821 28.44,67.553" style="fill:rgb(5,195,222);"/>
    </g>
    <g transform="matrix(4.16667,0,0,4.16667,194.326,971.625)">
        <path d="M0,-82.055C0,-88.016 5.26,-92.925 11.221,-92.925C17.183,-92.925 22.092,-88.016 22.092,-82.055C22.092,-76.492 17.815,-71.848 12.399,-71.252C12.013,-71.214 11.623,-71.184 11.221,-71.184C10.766,-71.184 10.336,-71.235 9.901,-71.273C4.506,-71.932 0,-76.539 0,-82.055M85.561,17.182L89.068,18.936L89.419,18.936L92.925,17.182L99.939,14.026L108.705,9.819C122.03,3.506 133.251,-3.857 142.368,-12.273C151.837,-21.04 158.85,-30.858 164.46,-41.729L164.811,-42.43C165.162,-43.131 165.162,-43.482 165.512,-44.183C167.266,-48.391 165.512,-53.301 161.305,-55.054C157.096,-56.807 152.187,-55.054 150.434,-50.846L150.083,-49.794L149.733,-49.794L149.382,-49.093C145.174,-39.625 138.862,-31.56 131.147,-24.546C123.433,-17.182 113.614,-10.52 101.692,-5.26L92.925,-1.052L89.068,0.701L85.561,-1.052L76.795,-5.26C58.911,-13.325 45.586,-23.845 36.469,-36.469C29.811,-45.346 25.372,-55.345 22.409,-66.764C27.11,-70.198 30.157,-75.739 30.157,-82.055C30.157,-92.575 21.741,-100.991 11.221,-100.991C0.701,-100.991 -7.715,-92.575 -7.715,-82.055C-7.715,-73.278 -1.848,-65.985 6.203,-63.803C9.552,-49.934 15.171,-37.47 23.144,-26.65C34.014,-11.922 49.443,0.351 69.782,9.819L78.548,14.026L85.561,17.182Z" style="fill:rgb(5,195,222);"/>
    </g>
    <g transform="matrix(4.16667,0,0,4.16667,946.788,261.538)">
        <path d="M0,88.366C0,94.327 -4.91,99.237 -10.871,99.237C-17.183,99.237 -22.092,94.327 -22.092,88.366C-22.092,82.405 -17.183,77.496 -10.871,77.496C-4.91,77.496 0,82.405 0,88.366M-3.858,-2.806L-12.624,-2.806C-31.56,-1.754 -44.184,-2.105 -55.054,-4.208C-65.574,-6.313 -74.691,-10.521 -86.964,-17.534C-88.367,-18.586 -89.77,-18.936 -91.523,-18.936C-92.926,-18.936 -94.679,-18.586 -96.082,-17.534C-108.354,-10.521 -117.472,-6.313 -127.641,-4.208C-138.512,-2.105 -151.135,-1.754 -170.071,-2.806L-178.838,-2.806L-178.838,51.897C-178.838,56.456 -174.98,60.313 -170.422,60.313C-165.863,60.313 -162.357,56.456 -162.357,51.897L-162.357,14.026C-146.577,14.376 -135.005,14.026 -124.485,11.922C-113.264,9.467 -103.445,5.259 -91.523,-1.403C-79.25,5.259 -69.782,9.467 -58.21,11.922C-47.69,14.026 -36.469,14.376 -20.339,14.026L-20.339,71.901C-26.162,75.146 -30.157,81.271 -30.157,88.366C-30.157,98.886 -21.391,107.302 -10.871,107.302C-0.702,107.302 8.065,98.886 8.065,88.366C8.065,80.386 3.017,73.627 -3.858,70.823L-3.858,-2.806Z" style="fill:rgb(5,195,222);"/>
    </g>
    <g transform="matrix(4.16667,0,0,4.16667,1051.99,32.1458)">
        <path d="M0,35.767C-2.753,35.767 -5.274,34.711 -7.199,32.962L-7.013,32.962C-8.237,31.913 -9.199,30.689 -9.856,29.291C-9.86,29.283 -9.864,29.276 -9.867,29.268C-9.981,29.024 -10.074,28.768 -10.169,28.514C-10.23,28.347 -10.294,28.183 -10.347,28.013C-10.384,27.895 -10.413,27.773 -10.446,27.653C-10.517,27.395 -10.587,27.136 -10.64,26.87C-10.658,26.781 -10.668,26.687 -10.684,26.596C-10.733,26.314 -10.781,26.03 -10.81,25.739C-10.847,25.35 -10.87,24.954 -10.87,24.546C-10.87,24.155 -10.848,23.77 -10.806,23.39C-10.803,23.364 -10.797,23.339 -10.794,23.313C-10.477,20.66 -9.143,18.306 -7.013,16.481L-7.237,16.481C-5.308,14.746 -2.772,13.675 0,13.675C6.312,13.675 11.221,18.585 11.221,24.546C11.221,30.858 6.312,35.767 0,35.767M0,5.61C-7.37,5.61 -13.985,10.042 -17.078,16.481L-39.625,16.481C-54.703,16.831 -67.678,15.779 -79.25,12.273C-90.821,9.117 -100.99,3.506 -110.458,-5.26C-112.212,-7.014 -114.316,-7.715 -116.77,-7.715C-118.874,-7.715 -120.978,-7.014 -122.732,-5.26C-132.199,3.506 -142.369,9.117 -153.94,12.273C-165.512,15.779 -178.837,16.831 -193.565,16.481L-197.072,16.481C-201.63,16.481 -205.137,19.987 -205.137,24.546C-205.137,29.105 -201.63,32.962 -197.072,32.962L-193.916,32.962C-177.435,33.313 -162.707,31.91 -149.382,28.053C-137.459,24.546 -126.589,19.286 -116.77,11.221C-106.601,19.286 -95.73,24.546 -83.808,28.053C-70.483,31.91 -55.755,33.313 -39.274,32.962L-16.906,32.962C-13.743,39.21 -7.236,43.482 0,43.482C10.52,43.482 19.286,35.066 19.286,24.546C19.286,14.026 10.52,5.61 0,5.61" style="fill:rgb(5,195,222);"/>
    </g>
    <g transform="matrix(4.16667,0,0,4.16667,5885.27,488.004)">
        <path d="M0,69.431L24.196,69.431C28.754,69.431 33.313,69.431 38.222,68.73C41.027,68.73 43.833,68.028 46.638,66.626C48.391,65.574 49.794,64.171 50.846,62.067C52.249,59.262 52.95,55.405 53.301,52.249C53.651,46.989 54.002,41.378 54.002,35.767L54.002,33.664C54.002,27.702 53.651,22.092 53.301,16.481C52.95,13.325 52.249,9.819 50.846,6.663C49.794,4.909 48.391,3.507 46.638,2.455C44.183,1.052 41.027,0.701 38.222,0.351C33.313,-0 28.754,-0 24.196,-0L0,-0C-4.559,-0 -9.468,-0 -14.026,0.351C-16.832,0.701 -19.988,1.052 -22.442,2.455C-24.546,3.507 -25.949,4.909 -26.65,6.663C-28.053,9.468 -28.754,13.325 -29.105,16.481C-29.806,22.092 -29.806,27.702 -29.806,33.664L-29.806,35.767C-29.806,41.378 -29.806,46.989 -29.105,52.249C-28.754,55.405 -28.053,59.262 -26.65,62.067C-25.949,64.171 -24.546,65.574 -22.442,66.626C-19.988,68.028 -16.832,68.73 -14.026,68.73C-9.468,69.431 -4.559,69.431 0,69.431M-177.786,67.678L-124.134,67.678C-118.524,67.678 -112.913,67.327 -107.302,66.626C-104.497,66.275 -101.341,65.223 -99.237,63.119C-97.133,60.665 -96.081,57.158 -95.38,54.353C-94.328,48.391 -94.328,41.729 -94.328,35.767L-94.328,33.664C-94.328,28.053 -94.328,22.793 -95.029,17.533C-95.38,14.728 -96.081,10.871 -97.484,8.416C-98.185,6.663 -99.588,5.26 -101.692,4.208C-104.146,3.156 -107.302,2.455 -110.108,2.455C-114.666,2.104 -119.575,1.753 -124.134,1.753L-177.786,1.753L-177.786,67.678ZM-892.083,30.507L-844.744,30.507C-839.484,30.507 -834.224,30.507 -828.964,29.806C-826.86,29.456 -823.354,29.105 -821.6,27.702C-820.548,27.001 -819.847,26.3 -819.496,24.897C-818.795,22.442 -818.795,19.637 -818.795,17.533L-818.795,15.078C-818.795,12.624 -818.795,9.468 -819.496,7.013C-820.198,5.611 -820.899,4.559 -822.302,3.858C-824.756,2.805 -828.263,2.455 -830.718,2.455C-836.328,1.753 -841.939,1.753 -847.549,1.753L-892.083,1.753L-892.083,30.507ZM0,85.561C-7.364,85.561 -15.429,85.211 -22.793,83.808C-28.403,82.405 -33.663,80.301 -37.871,76.094C-42.079,71.886 -44.183,66.275 -45.586,60.314C-46.989,52.599 -47.339,43.833 -47.339,35.767L-47.339,33.664C-47.339,26.65 -47.339,19.286 -46.287,12.624C-45.586,7.715 -44.183,2.455 -41.729,-2.104C-39.625,-5.961 -36.469,-8.767 -32.611,-11.221C-28.403,-13.325 -23.494,-14.728 -18.936,-15.078C-12.624,-16.13 -6.312,-16.13 0,-16.13L24.196,-16.13C30.157,-16.13 36.469,-16.13 42.781,-15.078C47.69,-14.728 52.249,-13.325 56.456,-11.221C60.664,-8.767 63.47,-5.961 65.924,-2.104C68.379,2.455 69.431,7.715 70.132,12.624C71.184,19.286 71.535,26.65 71.535,33.664L71.535,35.767C71.535,43.833 71.184,52.599 69.431,60.314C68.379,66.275 65.924,71.886 61.716,76.094C57.859,80.301 52.249,82.405 46.638,83.808C39.274,85.211 31.56,85.561 24.196,85.561L0,85.561ZM-195.318,83.808L-195.318,-14.377L-124.134,-14.377C-116.77,-14.377 -108.705,-14.026 -101.341,-12.624C-96.081,-11.572 -90.471,-9.468 -86.263,-5.611C-82.055,-1.753 -79.951,3.858 -78.548,9.468C-77.146,17.182 -76.795,25.598 -76.795,33.664L-76.795,35.767C-76.795,43.482 -77.146,51.898 -78.548,59.262C-79.951,64.872 -82.055,70.483 -86.263,74.34C-90.471,78.548 -95.731,80.652 -101.341,81.704C-108.705,83.457 -116.77,83.808 -124.134,83.808L-195.318,83.808ZM-298.062,85.561C-305.426,85.561 -313.491,85.211 -320.855,83.808C-326.466,82.405 -331.726,80.301 -335.934,76.094C-340.142,71.886 -342.246,66.275 -343.648,60.314C-345.051,52.599 -345.752,43.833 -345.752,35.767L-345.752,-14.377L-327.869,-14.377L-327.869,35.767C-327.869,41.378 -327.869,46.989 -327.167,52.249C-326.817,55.405 -326.115,59.262 -324.713,62.067C-323.661,64.171 -322.609,65.574 -320.505,66.626C-318.05,68.028 -314.894,68.73 -312.089,68.73C-307.53,69.431 -302.621,69.431 -298.062,69.431L-276.321,69.431C-271.763,69.431 -267.204,69.431 -262.295,68.73C-259.84,68.73 -256.684,68.028 -254.23,66.626C-252.126,65.574 -250.723,64.171 -249.671,62.067C-248.268,59.262 -247.567,55.405 -247.216,52.249C-246.866,46.989 -246.515,41.378 -246.515,35.767L-246.515,-14.377L-228.982,-14.377L-228.982,35.767C-228.982,43.833 -229.333,52.599 -231.086,60.314C-232.138,66.275 -234.593,71.886 -238.801,76.094C-242.658,80.301 -248.268,82.405 -253.879,83.808C-260.892,85.211 -268.958,85.561 -276.321,85.561L-298.062,85.561ZM-494.082,35.767L-494.082,33.664C-494.082,26.65 -494.082,19.286 -493.03,12.624C-492.329,7.715 -490.926,2.455 -488.472,-2.104C-486.368,-5.961 -483.212,-8.767 -479.354,-11.221C-475.146,-13.325 -470.237,-14.728 -465.679,-15.078C-459.367,-16.13 -453.055,-16.13 -446.743,-16.13L-422.547,-16.13C-415.534,-16.13 -408.521,-16.13 -401.508,-15.078C-396.248,-14.377 -390.988,-12.975 -386.429,-9.818C-382.221,-7.013 -379.416,-3.156 -378.013,1.753C-375.909,7.364 -375.559,14.377 -375.559,20.338L-375.559,23.494L-393.092,23.494L-393.092,20.338C-393.092,16.481 -393.092,11.572 -394.494,8.065C-395.196,5.611 -396.248,3.858 -398.352,2.805C-400.806,1.403 -403.962,0.701 -407.118,0.351C-412.028,-0 -417.638,-0 -422.547,-0L-446.743,-0C-451.302,-0 -456.211,-0 -460.769,0.351C-463.575,0.701 -466.731,1.052 -469.185,2.455C-471.289,3.507 -472.692,4.909 -473.393,6.663C-474.796,9.468 -475.497,13.325 -475.848,16.481C-476.549,22.092 -476.549,27.702 -476.549,33.664L-476.549,35.767C-476.549,41.378 -476.549,46.989 -475.848,52.249C-475.497,55.405 -474.796,59.262 -473.393,62.067C-472.692,64.171 -471.289,65.574 -469.185,66.626C-466.731,68.028 -463.575,68.73 -460.769,68.73C-456.211,69.431 -451.302,69.431 -446.743,69.431L-422.547,69.431C-417.287,69.431 -412.028,69.431 -406.768,69.08C-403.962,68.73 -400.806,68.379 -398.352,66.976C-396.248,65.924 -395.196,64.171 -394.494,62.067C-393.092,58.21 -393.092,53.301 -393.092,49.443L-393.092,46.287L-375.559,46.287L-375.559,49.443C-375.559,55.755 -375.909,62.418 -378.013,68.028C-379.416,72.938 -382.221,76.795 -386.78,79.6C-390.988,82.405 -396.248,83.808 -401.508,84.509C-408.521,85.211 -415.534,85.561 -422.547,85.561L-446.743,85.561C-454.107,85.561 -462.172,85.211 -469.536,83.808C-475.146,82.405 -480.406,80.301 -484.615,76.094C-488.822,71.886 -490.926,66.275 -492.329,60.314C-493.732,52.599 -494.082,43.833 -494.082,35.767M-540.72,54.002C-540.72,51.547 -540.72,48.742 -541.422,46.638C-541.772,45.235 -542.474,44.534 -543.526,43.833C-545.63,42.781 -549.136,42.43 -551.591,42.43C-557.201,42.079 -562.812,41.729 -568.072,41.729L-601.385,41.378C-608.047,41.027 -615.061,41.027 -621.723,39.625C-625.931,38.923 -630.84,37.521 -634.347,35.066C-637.503,32.612 -639.607,29.456 -640.659,25.598C-641.711,21.741 -642.062,17.182 -642.062,12.975C-642.062,8.416 -641.36,3.507 -639.958,-1.052C-638.555,-4.909 -636.1,-8.416 -632.243,-10.52C-628.035,-12.975 -622.775,-14.377 -617.866,-15.078C-610.502,-16.13 -603.138,-16.13 -595.774,-16.13L-570.176,-16.13C-563.163,-16.13 -556.149,-16.13 -549.487,-15.429C-544.578,-15.078 -539.318,-14.026 -535.11,-11.572C-531.252,-9.117 -528.447,-5.26 -527.044,-1.052C-525.291,4.208 -524.941,10.52 -524.941,16.13L-542.474,16.13C-542.474,12.975 -542.824,8.416 -543.876,5.26C-544.578,3.507 -545.63,2.104 -547.032,1.403C-549.487,0.351 -552.643,-0 -555.448,-0L-595.073,-0C-600.683,-0 -606.294,-0 -611.905,0.351C-614.359,0.351 -618.216,1.052 -620.671,2.104C-622.074,2.455 -622.775,3.507 -623.126,4.909C-624.178,7.364 -624.178,10.52 -624.178,12.975C-624.178,15.078 -624.178,17.884 -623.476,19.988C-623.126,21.04 -622.775,21.741 -621.372,22.442C-619.619,23.494 -616.463,23.845 -614.359,24.196C-609.45,24.546 -604.19,24.897 -599.281,24.897L-563.513,25.248C-556.851,25.248 -549.838,25.598 -543.175,26.65C-538.616,27.702 -534.058,28.754 -530.551,31.559C-527.395,34.014 -525.291,37.17 -524.239,41.027C-523.187,45.235 -523.187,49.794 -523.187,54.002C-523.187,58.911 -523.538,63.82 -524.59,68.379C-525.992,72.587 -528.096,76.094 -531.603,78.899C-535.811,81.704 -540.72,83.107 -545.63,84.159C-552.993,85.211 -560.708,85.561 -567.721,85.561L-595.774,85.561C-602.787,85.561 -609.801,85.211 -616.814,84.509C-621.723,83.808 -626.983,82.405 -631.191,79.6C-635.399,76.795 -638.204,72.938 -639.607,68.379C-641.36,62.768 -642.062,56.106 -642.062,50.145L-624.178,50.145C-624.178,54.002 -624.178,58.56 -623.126,62.418C-622.424,64.171 -621.372,65.924 -619.619,66.976C-617.164,68.379 -614.009,68.73 -611.203,69.08C-606.294,69.431 -601.034,69.431 -595.774,69.431L-568.423,69.431C-563.163,69.431 -557.201,69.431 -551.941,68.73C-549.487,68.379 -545.98,68.028 -543.876,66.626C-542.824,65.574 -541.772,64.522 -541.422,62.768C-540.72,59.963 -540.72,56.807 -540.72,54.002M-747.961,1.403L-747.961,25.949L-672.569,25.949L-672.569,41.729L-747.961,41.729L-747.961,68.028L-667.66,68.028L-667.66,83.808L-765.495,83.808L-765.495,-14.377L-669.063,-14.377L-669.063,1.403L-747.961,1.403ZM-821.951,44.885L-801.612,83.808L-820.198,83.808L-839.484,46.638L-892.083,46.638L-892.083,83.808L-909.967,83.808L-909.967,-14.377L-845.445,-14.377C-838.081,-14.377 -830.718,-14.026 -823.354,-12.975C-818.795,-12.273 -813.535,-11.221 -809.678,-8.416C-806.171,-5.961 -803.717,-2.805 -802.665,1.403C-801.262,5.611 -800.911,10.52 -800.911,15.078L-800.911,17.533C-800.911,21.741 -801.612,26.3 -803.015,30.507C-804.418,34.715 -806.872,38.222 -810.73,40.677C-813.886,42.781 -818.094,44.183 -821.951,44.885M-1004.65,1.403L-1050.58,1.403L-1050.58,-14.377L-941.176,-14.377L-941.176,1.403L-987.113,1.403L-987.113,83.808L-1004.65,83.808L-1004.65,1.403Z" style="fill:rgb(42,49,68);"/>
    </g>
</svg>
