<?xml version="1.0" encoding="UTF-8" standalone="no"?><!DOCTYPE svg PUBLIC "-//W3C//DTD SVG 1.1//EN" "http://www.w3.org/Graphics/SVG/1.1/DTD/svg11.dtd"><svg width="100%" height="100%" viewBox="0 0 159 50" version="1.1" xmlns="http://www.w3.org/2000/svg" xmlns:xlink="http://www.w3.org/1999/xlink" xml:space="preserve" xmlns:serif="http://www.serif.com/" style="fill-rule:evenodd;clip-rule:evenodd;stroke-linejoin:round;stroke-miterlimit:2;"><g><path d="M15.258,40.278c-0.633,0 -1.154,-0.521 -1.154,-1.153c0,-0.67 0.521,-1.191 1.154,-1.191c0.277,-0 0.532,0.099 0.732,0.267c-0,0.001 0,0.001 0,0.001c0.023,0.019 0.044,0.04 0.065,0.06c0.03,0.03 0.059,0.06 0.085,0.093c0.001,0.001 0.002,0.002 0.003,0.003c0.03,0.037 0.057,0.077 0.083,0.117c0.007,0.011 0.014,0.022 0.02,0.034c0.018,0.029 0.033,0.06 0.048,0.091c0.007,0.015 0.015,0.03 0.021,0.045c0.017,0.04 0.033,0.082 0.045,0.125c0.005,0.017 0.008,0.033 0.013,0.05c0.008,0.032 0.015,0.066 0.021,0.1c0.002,0.017 0.005,0.034 0.007,0.051c0.006,0.05 0.01,0.101 0.01,0.154c0,0.632 -0.521,1.153 -1.153,1.153m12.392,-24.933c-0.484,0 -0.856,0.372 -0.856,0.856l0,6.587c0,3.237 -0.67,6.066 -2.047,8.373c-1.377,2.344 -3.498,4.205 -6.475,5.582l-0.893,0.409l-0.833,0.404c-0.348,-0.297 -0.796,-0.478 -1.288,-0.478c-1.117,-0 -2.01,0.93 -2.01,2.047c0,1.116 0.893,2.009 2.01,2.009c1.112,-0 2.002,-0.887 2.009,-1.998l0.819,-0.384l0.037,0l0.893,-0.446c3.275,-1.526 5.657,-3.61 7.22,-6.252c1.563,-2.605 2.307,-5.694 2.307,-9.266l0,-6.587c0,-0.484 -0.409,-0.856 -0.893,-0.856" style="fill:#05c3de;"/><path d="M2.866,11.177c0.67,0 1.191,0.521 1.191,1.154c-0,0.588 -0.402,1.061 -0.954,1.168c-0.017,-0.005 -0.033,-0.012 -0.051,-0.015c-0.039,0.02 -0.067,0.029 -0.096,0.033c-0.03,0.002 -0.06,0.005 -0.09,0.005c-0.02,-0 -0.038,-0.002 -0.058,-0.003c-0.033,-0.004 -0.069,-0.012 -0.091,-0.035c-0.021,0.004 -0.04,0.012 -0.061,0.017c-0.534,-0.1 -0.944,-0.576 -0.944,-1.17c0,-0.633 0.521,-1.154 1.154,-1.154m9.266,25.491l-0.112,-0.037l-0.111,-0.074c-2.829,-1.377 -4.875,-3.238 -6.178,-5.508c-1.34,-2.307 -1.972,-5.061 -1.972,-8.261l-0,-8.448c-0,-0.067 -0.011,-0.132 -0.026,-0.196c0.677,-0.322 1.142,-1.009 1.142,-1.813c0,-1.117 -0.893,-2.01 -2.009,-2.01c-1.117,0 -2.01,0.893 -2.01,2.01c0,0.817 0.48,1.514 1.175,1.829c-0.012,0.059 -0.021,0.119 -0.021,0.18l-0,8.448c-0,3.498 0.707,6.549 2.195,9.117c1.489,2.605 3.796,4.689 6.959,6.215l0,0.037l0.112,0.037l0.112,0.075c0.446,0.186 0.967,-0 1.153,-0.447c0.224,-0.409 0.038,-0.93 -0.409,-1.154" style="fill:#05c3de;"/><path d="M16.408,28.617c-0.326,-0.226 -0.721,-0.359 -1.15,-0.359c-0.424,0 -0.816,0.13 -1.139,0.351c-0.631,-0.46 -1.134,-0.972 -1.503,-1.579c-0.596,-1.042 -0.856,-2.419 -0.856,-4.242l-0,-1.712c0.558,-0.037 1.116,-0.112 1.712,-0.261c0.154,-0.044 0.308,-0.092 0.461,-0.143c0.348,0.297 0.796,0.478 1.288,0.478c0.503,0 0.959,-0.19 1.31,-0.499c0.18,0.058 0.362,0.114 0.55,0.164c0.559,0.149 1.154,0.224 1.712,0.261l0,1.712c0,1.823 -0.26,3.2 -0.893,4.242c-0.345,0.611 -0.844,1.125 -1.492,1.587m-1.15,2.841c-0.512,0 -0.951,-0.341 -1.099,-0.826c-0.03,-0.121 -0.055,-0.243 -0.055,-0.364c0,-0.062 0.006,-0.122 0.016,-0.182c0.001,-0.006 0.002,-0.012 0.003,-0.019c0.011,-0.059 0.026,-0.118 0.046,-0.175c0.001,-0.002 0.002,-0.004 0.003,-0.006c0.038,-0.107 0.093,-0.207 0.158,-0.298c0.211,-0.286 0.549,-0.474 0.928,-0.474c0.115,0 0.225,0.018 0.33,0.049c0.045,0.015 0.089,0.03 0.131,0.049c0.018,0.008 0.037,0.018 0.055,0.027c0.031,0.015 0.06,0.033 0.089,0.05c0.037,0.023 0.073,0.048 0.107,0.075c0.01,0.008 0.02,0.016 0.029,0.024c0.134,0.112 0.241,0.254 0.313,0.415c0.005,0.011 0.009,0.022 0.014,0.033c0.012,0.029 0.023,0.058 0.032,0.088c0.013,0.042 0.024,0.086 0.033,0.13c0.003,0.017 0.005,0.033 0.007,0.05c0.008,0.054 0.013,0.108 0.013,0.164c0,0.669 -0.52,1.19 -1.153,1.19m-0.037,-13.508c0.491,-0 0.914,0.315 1.079,0.752l-0,0.029l0.011,0c0.01,0.029 0.018,0.059 0.026,0.089l0,0.06l0.015,0c0.014,0.073 0.022,0.147 0.022,0.224c0,0.103 -0.013,0.202 -0.037,0.297l0,0l0,0.001c-0.009,0.038 -0.02,0.075 -0.033,0.111l-0.004,-0l-0,0.012c-0.005,0.013 -0.009,0.026 -0.014,0.039l-0.023,0.023l-0,0.029c-0.007,0.015 -0.014,0.031 -0.022,0.046l-0.016,-0l0,0.029c-0.008,0.016 -0.017,0.03 -0.026,0.045l-0.011,0l0,0.018c-0.02,0.033 -0.042,0.064 -0.065,0.094l-0.009,-0l-0,0.012c-0.007,0.009 -0.014,0.017 -0.021,0.025l-0.016,0l-0,0.018c-0.006,0.006 -0.012,0.013 -0.018,0.019l-0.02,0l0,0.023c-0.004,0.005 -0.009,0.01 -0.014,0.014l-0.023,0l0,0.021c-0.006,0.006 -0.012,0.011 -0.017,0.017l-0.02,-0l-0,0.018c-0.007,0.006 -0.015,0.013 -0.022,0.019l-0.015,-0l-0,0.011c-0.011,0.009 -0.023,0.018 -0.034,0.026l-0.041,0l0,0.03c-0.004,0.002 -0.008,0.005 -0.012,0.007l-0.025,0l0,0.016c-0.012,0.007 -0.023,0.015 -0.035,0.022l-0.039,-0l-0,0.02c-0.011,0.006 -0.023,0.011 -0.034,0.017l-0.041,-0l-0.032,0.032c-0.004,0.002 -0.009,0.003 -0.014,0.005l-0.065,-0l-0.032,0.032c-0.097,0.027 -0.198,0.042 -0.303,0.042c-0.093,0 -0.182,-0.012 -0.269,-0.033c0.003,-0.001 0.006,-0.003 0.008,-0.004l-0.022,0c-0.018,-0.004 -0.035,-0.008 -0.052,-0.013l-0,-0.024l-0.066,-0c-0.015,-0.006 -0.031,-0.011 -0.046,-0.017l0,-0.02l-0.041,-0c-0.011,-0.006 -0.022,-0.011 -0.033,-0.017l-0,-0.02l-0.039,-0c-0.013,-0.007 -0.024,-0.015 -0.036,-0.022l0,-0.016l-0.025,0c-0.012,-0.008 -0.025,-0.017 -0.038,-0.026l-0.011,-0.011l-0.004,0c-0.011,-0.008 -0.022,-0.017 -0.033,-0.026l-0,-0.011l-0.015,-0c-0.008,-0.006 -0.015,-0.013 -0.023,-0.019l0,-0.018l-0.019,-0c-0.047,-0.042 -0.09,-0.088 -0.129,-0.137l-0,-0.012l-0.009,-0c-0.1,-0.129 -0.174,-0.28 -0.215,-0.446l0,-0.001l0,0c-0.023,-0.095 -0.037,-0.194 -0.037,-0.297c0,-0.09 0.012,-0.177 0.031,-0.261l0.006,0l0,-0.023c0.128,-0.497 0.582,-0.87 1.117,-0.87m4.205,9.973c0.781,-1.339 1.116,-2.977 1.116,-5.135l0,-3.424l-0.893,0c-0.633,0.037 -1.377,-0.074 -2.121,-0.26c-0.103,-0.026 -0.203,-0.054 -0.302,-0.084c-0.045,-1.043 -0.918,-1.926 -2.005,-1.926c-1.097,0 -1.976,0.898 -2.007,1.952c-0.063,0.019 -0.126,0.039 -0.189,0.058c-0.744,0.186 -1.526,0.297 -2.158,0.26l-0.893,0l-0,3.424c-0,2.158 0.372,3.796 1.153,5.135c0.51,0.877 1.214,1.604 2.127,2.229c-0.002,0.038 -0.006,0.076 -0.006,0.116c0,1.116 0.893,2.009 2.01,2.009c1.116,0 2.009,-0.893 2.009,-2.009c0,-0.039 -0.003,-0.078 -0.005,-0.116c0.915,-0.625 1.626,-1.351 2.164,-2.229" style="fill:#05c3de;"/><path d="M5.806,24.946c-0,-0.633 0.558,-1.153 1.19,-1.153c0.633,-0 1.154,0.52 1.154,1.153c0,0.59 -0.454,1.083 -1.029,1.147c-0.041,0.004 -0.082,0.007 -0.125,0.007c-0.048,-0 -0.093,-0.006 -0.14,-0.01c-0.572,-0.07 -1.05,-0.559 -1.05,-1.144m9.08,10.532l0.372,0.186l0.037,-0l0.372,-0.186l0.745,-0.335l0.93,-0.447c1.414,-0.67 2.605,-1.451 3.572,-2.344c1.005,-0.931 1.749,-1.973 2.345,-3.126l0.037,-0.075c0.037,-0.074 0.037,-0.111 0.074,-0.186c0.187,-0.446 0,-0.967 -0.446,-1.153c-0.447,-0.186 -0.968,-0 -1.154,0.446l-0.037,0.112l-0.037,-0l-0.037,0.074c-0.447,1.005 -1.117,1.861 -1.936,2.605c-0.818,0.782 -1.86,1.489 -3.125,2.047l-0.931,0.446l-0.409,0.186l-0.372,-0.186l-0.931,-0.446c-1.897,-0.856 -3.312,-1.972 -4.279,-3.312c-0.707,-0.942 -1.178,-2.003 -1.492,-3.215c0.499,-0.365 0.822,-0.953 0.822,-1.623c0,-1.116 -0.893,-2.009 -2.01,-2.009c-1.116,-0 -2.009,0.893 -2.009,2.009c-0,0.932 0.623,1.705 1.477,1.937c0.355,1.472 0.952,2.795 1.798,3.943c1.153,1.563 2.791,2.865 4.949,3.87l0.93,0.447l0.745,0.335Z" style="fill:#05c3de;"/><path d="M24.971,24.946c-0,0.633 -0.521,1.154 -1.154,1.154c-0.67,-0 -1.191,-0.521 -1.191,-1.154c0,-0.633 0.521,-1.153 1.191,-1.153c0.633,-0 1.154,0.52 1.154,1.153m-0.41,-9.675l-0.93,-0c-2.01,0.111 -3.349,0.074 -4.503,-0.149c-1.116,-0.224 -2.084,-0.67 -3.386,-1.414c-0.149,-0.112 -0.298,-0.149 -0.484,-0.149c-0.149,-0 -0.335,0.037 -0.484,0.149c-1.302,0.744 -2.27,1.19 -3.349,1.414c-1.154,0.223 -2.493,0.26 -4.503,0.149l-0.93,-0l-0,5.805c-0,0.484 0.409,0.893 0.893,0.893c0.484,-0 0.856,-0.409 0.856,-0.893l-0,-4.019c1.674,0.037 2.902,-0 4.019,-0.223c1.191,-0.261 2.233,-0.708 3.498,-1.415c1.302,0.707 2.307,1.154 3.535,1.415c1.117,0.223 2.307,0.26 4.019,0.223l0,6.142c-0.618,0.344 -1.042,0.994 -1.042,1.747c0,1.117 0.931,2.01 2.047,2.01c1.079,-0 2.01,-0.893 2.01,-2.01c-0,-0.847 -0.536,-1.564 -1.266,-1.862l0,-7.813Z" style="fill:#05c3de;"/><path d="M27.65,13.522c-0.292,-0 -0.56,-0.113 -0.764,-0.298l0.02,-0c-0.13,-0.111 -0.232,-0.241 -0.302,-0.39c-0,-0.001 -0.001,-0.001 -0.001,-0.002c-0.012,-0.026 -0.022,-0.053 -0.032,-0.08c-0.007,-0.018 -0.013,-0.035 -0.019,-0.053c-0.004,-0.013 -0.007,-0.026 -0.011,-0.039c-0.007,-0.027 -0.015,-0.054 -0.02,-0.083c-0.002,-0.009 -0.003,-0.019 -0.005,-0.029c-0.005,-0.03 -0.01,-0.06 -0.013,-0.091c-0.004,-0.041 -0.007,-0.083 -0.007,-0.126c0,-0.042 0.003,-0.083 0.007,-0.123c0.001,-0.003 0.001,-0.005 0.002,-0.008c0.033,-0.282 0.175,-0.532 0.401,-0.725l-0.024,-0c0.205,-0.184 0.474,-0.298 0.768,-0.298c0.67,0 1.191,0.521 1.191,1.154c-0,0.67 -0.521,1.191 -1.191,1.191m0,-3.201c-0.782,0 -1.484,0.47 -1.812,1.154l-2.393,-0c-1.6,0.037 -2.977,-0.075 -4.205,-0.447c-1.228,-0.335 -2.307,-0.93 -3.312,-1.86c-0.186,-0.187 -0.41,-0.261 -0.67,-0.261c-0.223,0 -0.447,0.074 -0.633,0.261c-1.004,0.93 -2.084,1.525 -3.312,1.86c-1.228,0.372 -2.642,0.484 -4.205,0.447l-0.372,-0c-0.484,-0 -0.856,0.372 -0.856,0.856c0,0.484 0.372,0.893 0.856,0.893l0.335,-0c1.749,0.037 3.312,-0.112 4.726,-0.521c1.265,-0.372 2.419,-0.931 3.461,-1.786c1.079,0.855 2.233,1.414 3.498,1.786c1.414,0.409 2.977,0.558 4.726,0.521l2.374,-0c0.336,0.663 1.026,1.116 1.794,1.116c1.116,0 2.047,-0.893 2.047,-2.009c-0,-1.117 -0.931,-2.01 -2.047,-2.01" style="fill:#05c3de;"/><path d="M150.753,28.705l2.567,-0c0.484,-0 0.968,-0 1.489,-0.075c0.298,0 0.595,-0.074 0.893,-0.223c0.186,-0.112 0.335,-0.261 0.447,-0.484c0.149,-0.298 0.223,-0.707 0.26,-1.042c0.037,-0.558 0.075,-1.153 0.075,-1.749l-0,-0.223c-0,-0.633 -0.038,-1.228 -0.075,-1.824c-0.037,-0.335 -0.111,-0.707 -0.26,-1.042c-0.112,-0.186 -0.261,-0.334 -0.447,-0.446c-0.26,-0.149 -0.595,-0.186 -0.893,-0.223c-0.521,-0.038 -1.005,-0.038 -1.489,-0.038l-2.567,0c-0.484,0 -1.005,0 -1.489,0.038c-0.298,0.037 -0.633,0.074 -0.893,0.223c-0.223,0.112 -0.372,0.26 -0.447,0.446c-0.148,0.298 -0.223,0.707 -0.26,1.042c-0.074,0.596 -0.074,1.191 -0.074,1.824l-0,0.223c-0,0.596 -0,1.191 0.074,1.749c0.037,0.335 0.112,0.744 0.26,1.042c0.075,0.223 0.224,0.372 0.447,0.484c0.26,0.149 0.595,0.223 0.893,0.223c0.484,0.075 1.005,0.075 1.489,0.075m-18.868,-0.186l5.694,-0c0.595,-0 1.191,-0.038 1.786,-0.112c0.298,-0.037 0.633,-0.149 0.856,-0.372c0.224,-0.261 0.335,-0.633 0.41,-0.93c0.111,-0.633 0.111,-1.34 0.111,-1.973l0,-0.223c0,-0.596 0,-1.154 -0.074,-1.712c-0.037,-0.298 -0.112,-0.707 -0.261,-0.967c-0.074,-0.187 -0.223,-0.335 -0.446,-0.447c-0.261,-0.112 -0.596,-0.186 -0.893,-0.186c-0.484,-0.037 -1.005,-0.075 -1.489,-0.075l-5.694,0l0,6.997Zm-75.804,-3.945l5.024,-0c0.558,-0 1.116,-0 1.675,-0.074c0.223,-0.038 0.595,-0.075 0.781,-0.224c0.112,-0.074 0.186,-0.149 0.223,-0.297c0.075,-0.261 0.075,-0.559 0.075,-0.782l-0,-0.26c-0,-0.261 -0,-0.596 -0.075,-0.856c-0.074,-0.149 -0.148,-0.261 -0.297,-0.335c-0.261,-0.112 -0.633,-0.149 -0.893,-0.149c-0.596,-0.075 -1.191,-0.075 -1.787,-0.075l-4.726,0l0,3.052Zm94.672,5.842c-0.782,0 -1.638,-0.037 -2.419,-0.186c-0.596,-0.148 -1.154,-0.372 -1.6,-0.818c-0.447,-0.447 -0.67,-1.042 -0.819,-1.675c-0.149,-0.819 -0.186,-1.749 -0.186,-2.605l-0,-0.223c-0,-0.744 -0,-1.526 0.112,-2.233c0.074,-0.521 0.223,-1.079 0.483,-1.563c0.223,-0.409 0.558,-0.707 0.968,-0.967c0.446,-0.224 0.967,-0.373 1.451,-0.41c0.67,-0.111 1.34,-0.111 2.01,-0.111l2.567,-0c0.633,-0 1.303,-0 1.973,0.111c0.521,0.037 1.005,0.186 1.451,0.41c0.447,0.26 0.744,0.558 1.005,0.967c0.26,0.484 0.372,1.042 0.446,1.563c0.112,0.707 0.149,1.489 0.149,2.233l0,0.223c0,0.856 -0.037,1.786 -0.223,2.605c-0.112,0.633 -0.372,1.228 -0.819,1.675c-0.409,0.446 -1.004,0.67 -1.6,0.818c-0.781,0.149 -1.6,0.186 -2.382,0.186l-2.567,0Zm-20.728,-0.186l-0,-10.419l7.554,-0c0.782,-0 1.637,0.037 2.419,0.186c0.558,0.111 1.154,0.335 1.6,0.744c0.447,0.409 0.67,1.005 0.819,1.6c0.149,0.819 0.186,1.712 0.186,2.568l-0,0.223c-0,0.819 -0.037,1.712 -0.186,2.493c-0.149,0.596 -0.372,1.191 -0.819,1.601c-0.446,0.446 -1.005,0.669 -1.6,0.781c-0.782,0.186 -1.637,0.223 -2.419,0.223l-7.554,0Zm-10.904,0.186c-0.781,0 -1.637,-0.037 -2.419,-0.186c-0.595,-0.148 -1.153,-0.372 -1.6,-0.818c-0.447,-0.447 -0.67,-1.042 -0.819,-1.675c-0.149,-0.819 -0.223,-1.749 -0.223,-2.605l0,-5.321l1.898,-0l-0,5.321c-0,0.596 -0,1.191 0.074,1.749c0.038,0.335 0.112,0.744 0.261,1.042c0.111,0.223 0.223,0.372 0.446,0.484c0.261,0.149 0.596,0.223 0.894,0.223c0.483,0.075 1.004,0.075 1.488,0.075l2.307,-0c0.484,-0 0.968,-0 1.489,-0.075c0.26,0 0.595,-0.074 0.856,-0.223c0.223,-0.112 0.372,-0.261 0.484,-0.484c0.148,-0.298 0.223,-0.707 0.26,-1.042c0.037,-0.558 0.075,-1.153 0.075,-1.749l-0,-5.321l1.86,-0l0,5.321c0,0.856 -0.037,1.786 -0.223,2.605c-0.112,0.633 -0.372,1.228 -0.819,1.675c-0.409,0.446 -1.005,0.67 -1.6,0.818c-0.744,0.149 -1.6,0.186 -2.382,0.186l-2.307,0Zm-20.802,-5.284l-0,-0.223c-0,-0.744 -0,-1.526 0.111,-2.233c0.075,-0.521 0.224,-1.079 0.484,-1.563c0.223,-0.409 0.558,-0.707 0.968,-0.967c0.446,-0.224 0.967,-0.373 1.451,-0.41c0.67,-0.111 1.34,-0.111 2.01,-0.111l2.567,-0c0.745,-0 1.489,-0 2.233,0.111c0.558,0.075 1.116,0.223 1.6,0.558c0.447,0.298 0.745,0.707 0.893,1.228c0.224,0.596 0.261,1.34 0.261,1.973l-0,0.335l-1.861,-0l0,-0.335c0,-0.41 0,-0.931 -0.149,-1.303c-0.074,-0.26 -0.186,-0.446 -0.409,-0.558c-0.26,-0.149 -0.595,-0.223 -0.93,-0.26c-0.521,-0.038 -1.117,-0.038 -1.638,-0.038l-2.567,0c-0.484,0 -1.005,0 -1.489,0.038c-0.298,0.037 -0.633,0.074 -0.893,0.223c-0.223,0.112 -0.372,0.26 -0.447,0.446c-0.149,0.298 -0.223,0.707 -0.26,1.042c-0.075,0.596 -0.075,1.191 -0.075,1.824l0,0.223c0,0.596 0,1.191 0.075,1.749c0.037,0.335 0.111,0.744 0.26,1.042c0.075,0.223 0.224,0.372 0.447,0.484c0.26,0.149 0.595,0.223 0.893,0.223c0.484,0.075 1.005,0.075 1.489,0.075l2.567,-0c0.559,-0 1.117,-0 1.675,-0.038c0.298,-0.037 0.633,-0.074 0.893,-0.223c0.223,-0.112 0.335,-0.298 0.409,-0.521c0.149,-0.409 0.149,-0.93 0.149,-1.34l0,-0.334l1.861,-0l-0,0.334c-0,0.67 -0.037,1.377 -0.261,1.973c-0.148,0.521 -0.446,0.93 -0.93,1.228c-0.447,0.298 -1.005,0.446 -1.563,0.521c-0.744,0.074 -1.488,0.111 -2.233,0.111l-2.567,0c-0.782,0 -1.638,-0.037 -2.419,-0.186c-0.596,-0.148 -1.154,-0.372 -1.601,-0.818c-0.446,-0.447 -0.669,-1.042 -0.818,-1.675c-0.149,-0.819 -0.186,-1.749 -0.186,-2.605m-4.95,1.935c0,-0.26 0,-0.558 -0.074,-0.781c-0.037,-0.149 -0.112,-0.224 -0.223,-0.298c-0.224,-0.112 -0.596,-0.149 -0.856,-0.149c-0.596,-0.037 -1.191,-0.074 -1.749,-0.074l-3.536,-0.037c-0.707,-0.038 -1.451,-0.038 -2.158,-0.186c-0.447,-0.075 -0.968,-0.224 -1.34,-0.484c-0.335,-0.261 -0.558,-0.596 -0.67,-1.005c-0.111,-0.409 -0.149,-0.893 -0.149,-1.34c0,-0.483 0.075,-1.004 0.224,-1.488c0.149,-0.41 0.409,-0.782 0.819,-1.005c0.446,-0.261 1.004,-0.409 1.525,-0.484c0.782,-0.111 1.563,-0.111 2.345,-0.111l2.716,-0c0.745,-0 1.489,-0 2.196,0.074c0.521,0.037 1.079,0.149 1.526,0.409c0.409,0.261 0.707,0.67 0.856,1.117c0.186,0.558 0.223,1.228 0.223,1.823l-1.861,0c0,-0.335 -0.037,-0.818 -0.149,-1.153c-0.074,-0.186 -0.186,-0.335 -0.335,-0.41c-0.26,-0.111 -0.595,-0.149 -0.893,-0.149l-4.205,0c-0.595,0 -1.191,0 -1.786,0.038c-0.261,-0 -0.67,0.074 -0.93,0.186c-0.149,0.037 -0.224,0.149 -0.261,0.297c-0.112,0.261 -0.112,0.596 -0.112,0.856c0,0.224 0,0.521 0.075,0.745c0.037,0.111 0.074,0.186 0.223,0.26c0.186,0.112 0.521,0.149 0.744,0.186c0.521,0.037 1.08,0.075 1.601,0.075l3.795,0.037c0.707,-0 1.452,0.037 2.159,0.149c0.484,0.111 0.967,0.223 1.339,0.521c0.335,0.26 0.559,0.595 0.67,1.004c0.112,0.447 0.112,0.931 0.112,1.377c-0,0.521 -0.037,1.042 -0.149,1.526c-0.149,0.447 -0.372,0.819 -0.744,1.116c-0.447,0.298 -0.968,0.447 -1.489,0.559c-0.781,0.111 -1.6,0.148 -2.344,0.148l-2.977,0c-0.744,0 -1.489,-0.037 -2.233,-0.111c-0.521,-0.075 -1.079,-0.223 -1.526,-0.521c-0.446,-0.298 -0.744,-0.707 -0.893,-1.191c-0.186,-0.595 -0.261,-1.302 -0.261,-1.935l1.898,-0c0,0.409 0,0.893 0.112,1.302c0.075,0.186 0.186,0.372 0.372,0.484c0.261,0.149 0.596,0.186 0.893,0.223c0.521,0.038 1.08,0.038 1.638,0.038l2.902,-0c0.559,-0 1.191,-0 1.749,-0.075c0.261,-0.037 0.633,-0.074 0.856,-0.223c0.112,-0.112 0.224,-0.223 0.261,-0.409c0.074,-0.298 0.074,-0.633 0.074,-0.931m-21.993,-5.582l0,2.605l8.001,0l-0,1.675l-8.001,-0l0,2.791l8.522,-0l-0,1.674l-10.383,0l0,-10.419l10.234,-0l0,1.674l-8.373,0Zm-7.852,4.615l2.158,4.13l-1.972,0l-2.047,-3.944l-5.582,-0l0,3.944l-1.898,0l0,-10.419l6.848,-0c0.781,-0 1.563,0.037 2.344,0.148c0.484,0.075 1.042,0.187 1.451,0.484c0.373,0.261 0.633,0.596 0.745,1.042c0.149,0.447 0.186,0.968 0.186,1.452l-0,0.26c-0,0.447 -0.075,0.93 -0.223,1.377c-0.149,0.446 -0.41,0.819 -0.819,1.079c-0.335,0.223 -0.782,0.372 -1.191,0.447m-19.388,-4.615l-4.875,0l-0,-1.674l11.61,-0l0,1.674l-4.875,0l0,8.745l-1.86,0l-0,-8.745Z" style="fill:#fff;"/></g></svg>