<svg width="159" height="50" viewBox="0 0 159 50" fill="none" xmlns="http://www.w3.org/2000/svg">
        <path d="M15.258,40.278C14.625,40.278 14.104,39.757 14.104,39.125C14.104,38.455 14.625,37.934 15.258,37.934C15.535,37.934 15.79,38.033 15.99,38.201L15.99,38.202C16.013,38.221 16.034,38.242 16.055,38.262C16.085,38.292 16.114,38.322 16.14,38.355C16.141,38.356 16.142,38.357 16.143,38.358C16.173,38.395 16.2,38.435 16.226,38.475C16.233,38.486 16.24,38.497 16.246,38.509C16.264,38.538 16.279,38.569 16.294,38.6C16.301,38.615 16.309,38.63 16.315,38.645C16.332,38.685 16.348,38.727 16.36,38.77C16.365,38.787 16.368,38.803 16.373,38.82C16.381,38.852 16.388,38.886 16.394,38.92C16.396,38.937 16.399,38.954 16.401,38.971C16.407,39.021 16.411,39.072 16.411,39.125C16.411,39.757 15.89,40.278 15.258,40.278M27.65,15.345C27.166,15.345 26.794,15.717 26.794,16.201L26.794,22.788C26.794,26.025 26.124,28.854 24.747,31.161C23.37,33.505 21.249,35.366 18.272,36.743L17.379,37.152L16.546,37.556C16.198,37.259 15.75,37.078 15.258,37.078C14.141,37.078 13.248,38.008 13.248,39.125C13.248,40.241 14.141,41.134 15.258,41.134C16.37,41.134 17.26,40.247 17.267,39.136L18.086,38.752L18.123,38.752L19.016,38.306C22.291,36.78 24.673,34.696 26.236,32.054C27.799,29.449 28.543,26.36 28.543,22.788L28.543,16.201C28.543,15.717 28.134,15.345 27.65,15.345" style="fill:rgb(5,195,222);"/>
        <path d="M2.866,11.177C3.536,11.177 4.057,11.698 4.057,12.331C4.057,12.919 3.655,13.392 3.103,13.499C3.086,13.494 3.07,13.487 3.052,13.484C3.013,13.504 2.985,13.513 2.956,13.517C2.926,13.519 2.896,13.522 2.866,13.522C2.846,13.522 2.828,13.52 2.808,13.519C2.775,13.515 2.739,13.507 2.717,13.484C2.696,13.488 2.677,13.496 2.656,13.501C2.122,13.401 1.712,12.925 1.712,12.331C1.712,11.698 2.233,11.177 2.866,11.177M12.132,36.668L12.02,36.631L11.909,36.557C9.08,35.18 7.034,33.319 5.731,31.049C4.391,28.742 3.759,25.988 3.759,22.788L3.759,14.34C3.759,14.273 3.748,14.208 3.733,14.144C4.41,13.822 4.875,13.135 4.875,12.331C4.875,11.214 3.982,10.321 2.866,10.321C1.749,10.321 0.856,11.214 0.856,12.331C0.856,13.148 1.336,13.845 2.031,14.16C2.019,14.219 2.01,14.279 2.01,14.34L2.01,22.788C2.01,26.286 2.717,29.337 4.205,31.905C5.694,34.51 8.001,36.594 11.164,38.12L11.164,38.157L11.276,38.194L11.388,38.269C11.834,38.455 12.355,38.269 12.541,37.822C12.765,37.413 12.579,36.892 12.132,36.668" style="fill:rgb(5,195,222);"/>
        <path d="M16.408,28.617C16.082,28.391 15.687,28.258 15.258,28.258C14.834,28.258 14.442,28.388 14.119,28.609C13.488,28.149 12.985,27.637 12.616,27.03C12.02,25.988 11.76,24.611 11.76,22.788L11.76,21.076C12.318,21.039 12.876,20.964 13.472,20.815C13.626,20.771 13.78,20.723 13.933,20.672C14.281,20.969 14.729,21.15 15.221,21.15C15.724,21.15 16.18,20.96 16.531,20.651C16.711,20.709 16.893,20.765 17.081,20.815C17.64,20.964 18.235,21.039 18.793,21.076L18.793,22.788C18.793,24.611 18.533,25.988 17.9,27.03C17.555,27.641 17.056,28.155 16.408,28.617M15.258,31.458C14.746,31.458 14.307,31.117 14.159,30.632C14.129,30.511 14.104,30.389 14.104,30.268C14.104,30.206 14.11,30.146 14.12,30.086C14.121,30.08 14.122,30.074 14.123,30.067C14.134,30.008 14.149,29.949 14.169,29.892C14.17,29.89 14.171,29.888 14.172,29.886C14.21,29.779 14.265,29.679 14.33,29.588C14.541,29.302 14.879,29.114 15.258,29.114C15.373,29.114 15.483,29.132 15.588,29.163C15.633,29.178 15.677,29.193 15.719,29.212C15.737,29.22 15.756,29.23 15.774,29.239C15.805,29.254 15.834,29.272 15.863,29.289C15.9,29.312 15.936,29.337 15.97,29.364C15.98,29.372 15.99,29.38 15.999,29.388C16.133,29.5 16.24,29.642 16.312,29.803C16.317,29.814 16.321,29.825 16.326,29.836C16.338,29.865 16.349,29.894 16.358,29.924C16.371,29.966 16.382,30.01 16.391,30.054C16.394,30.071 16.396,30.087 16.398,30.104C16.406,30.158 16.411,30.212 16.411,30.268C16.411,30.937 15.891,31.458 15.258,31.458M15.221,17.95C15.712,17.95 16.135,18.265 16.3,18.702L16.3,18.731L16.311,18.731C16.321,18.76 16.329,18.79 16.337,18.82L16.337,18.88L16.352,18.88C16.366,18.953 16.374,19.027 16.374,19.104C16.374,19.207 16.361,19.306 16.337,19.401L16.337,19.402C16.328,19.44 16.317,19.477 16.304,19.513L16.3,19.513L16.3,19.525C16.295,19.538 16.291,19.551 16.286,19.564L16.263,19.587L16.263,19.616C16.256,19.631 16.249,19.647 16.241,19.662L16.225,19.662L16.225,19.691C16.217,19.707 16.208,19.721 16.199,19.736L16.188,19.736L16.188,19.754C16.168,19.787 16.146,19.818 16.123,19.848L16.114,19.848L16.114,19.86C16.107,19.869 16.1,19.877 16.093,19.885L16.077,19.885L16.077,19.903C16.071,19.909 16.065,19.916 16.059,19.922L16.039,19.922L16.039,19.945C16.035,19.95 16.03,19.955 16.025,19.959L16.002,19.959L16.002,19.98C15.996,19.986 15.99,19.991 15.985,19.997L15.965,19.997L15.965,20.015C15.958,20.021 15.95,20.028 15.943,20.034L15.928,20.034L15.928,20.045C15.917,20.054 15.905,20.063 15.894,20.071L15.853,20.071L15.853,20.101C15.849,20.103 15.845,20.106 15.841,20.108L15.816,20.108L15.816,20.124C15.804,20.131 15.793,20.139 15.781,20.146L15.742,20.146L15.742,20.166C15.731,20.172 15.719,20.177 15.708,20.183L15.667,20.183L15.635,20.215C15.631,20.217 15.626,20.218 15.621,20.22L15.556,20.22L15.524,20.252C15.427,20.279 15.326,20.294 15.221,20.294C15.128,20.294 15.039,20.282 14.952,20.261C14.955,20.26 14.958,20.258 14.96,20.257L14.938,20.257C14.92,20.253 14.903,20.249 14.886,20.244L14.886,20.22L14.82,20.22C14.805,20.214 14.789,20.209 14.774,20.203L14.774,20.183L14.733,20.183C14.722,20.177 14.711,20.172 14.7,20.166L14.7,20.146L14.661,20.146C14.648,20.139 14.637,20.131 14.625,20.124L14.625,20.108L14.6,20.108C14.588,20.1 14.575,20.091 14.562,20.082L14.551,20.071L14.547,20.071C14.536,20.063 14.525,20.054 14.514,20.045L14.514,20.034L14.499,20.034C14.491,20.028 14.484,20.021 14.476,20.015L14.476,19.997L14.457,19.997C14.41,19.955 14.367,19.909 14.328,19.86L14.328,19.848L14.319,19.848C14.219,19.719 14.145,19.568 14.104,19.402L14.104,19.401C14.081,19.306 14.067,19.207 14.067,19.104C14.067,19.014 14.079,18.927 14.098,18.843L14.104,18.843L14.104,18.82C14.232,18.323 14.686,17.95 15.221,17.95M19.426,27.923C20.207,26.584 20.542,24.946 20.542,22.788L20.542,19.364L19.649,19.364C19.016,19.401 18.272,19.29 17.528,19.104C17.425,19.078 17.325,19.05 17.226,19.02C17.181,17.977 16.308,17.094 15.221,17.094C14.124,17.094 13.245,17.992 13.214,19.046C13.151,19.065 13.088,19.085 13.025,19.104C12.281,19.29 11.499,19.401 10.867,19.364L9.974,19.364L9.974,22.788C9.974,24.946 10.346,26.584 11.127,27.923C11.637,28.8 12.341,29.527 13.254,30.152C13.252,30.19 13.248,30.228 13.248,30.268C13.248,31.384 14.141,32.277 15.258,32.277C16.374,32.277 17.267,31.384 17.267,30.268C17.267,30.229 17.264,30.19 17.262,30.152C18.177,29.527 18.888,28.801 19.426,27.923" style="fill:rgb(5,195,222);"/>
        <path d="M5.806,24.946C5.806,24.313 6.364,23.793 6.996,23.793C7.629,23.793 8.15,24.313 8.15,24.946C8.15,25.536 7.696,26.029 7.121,26.093C7.08,26.097 7.039,26.1 6.996,26.1C6.948,26.1 6.903,26.094 6.856,26.09C6.284,26.02 5.806,25.531 5.806,24.946M14.886,35.478L15.258,35.664L15.295,35.664L15.667,35.478L16.412,35.143L17.342,34.696C18.756,34.026 19.947,33.245 20.914,32.352C21.919,31.421 22.663,30.379 23.259,29.226L23.296,29.151C23.333,29.077 23.333,29.04 23.37,28.965C23.557,28.519 23.37,27.998 22.924,27.812C22.477,27.626 21.956,27.812 21.77,28.258L21.733,28.37L21.696,28.37L21.659,28.444C21.212,29.449 20.542,30.305 19.723,31.049C18.905,31.831 17.863,32.538 16.598,33.096L15.667,33.542L15.258,33.728L14.886,33.542L13.955,33.096C12.058,32.24 10.643,31.124 9.676,29.784C8.969,28.842 8.498,27.781 8.184,26.569C8.683,26.204 9.006,25.616 9.006,24.946C9.006,23.83 8.113,22.937 6.996,22.937C5.88,22.937 4.987,23.83 4.987,24.946C4.987,25.878 5.61,26.651 6.464,26.883C6.819,28.355 7.416,29.678 8.262,30.826C9.415,32.389 11.053,33.691 13.211,34.696L14.141,35.143L14.886,35.478Z" style="fill:rgb(5,195,222);"/>
        <path d="M24.971,24.946C24.971,25.579 24.45,26.1 23.817,26.1C23.147,26.1 22.626,25.579 22.626,24.946C22.626,24.313 23.147,23.793 23.817,23.793C24.45,23.793 24.971,24.313 24.971,24.946M24.561,15.271L23.631,15.271C21.621,15.382 20.282,15.345 19.128,15.122C18.012,14.898 17.044,14.452 15.742,13.708C15.593,13.596 15.444,13.559 15.258,13.559C15.109,13.559 14.923,13.596 14.774,13.708C13.472,14.452 12.504,14.898 11.425,15.122C10.271,15.345 8.932,15.382 6.922,15.271L5.992,15.271L5.992,21.076C5.992,21.56 6.401,21.969 6.885,21.969C7.369,21.969 7.741,21.56 7.741,21.076L7.741,17.057C9.415,17.094 10.643,17.057 11.76,16.834C12.951,16.573 13.993,16.126 15.258,15.419C16.56,16.126 17.565,16.573 18.793,16.834C19.91,17.057 21.1,17.094 22.812,17.057L22.812,23.199C22.194,23.543 21.77,24.193 21.77,24.946C21.77,26.063 22.701,26.956 23.817,26.956C24.896,26.956 25.827,26.063 25.827,24.946C25.827,24.099 25.291,23.382 24.561,23.084L24.561,15.271Z" style="fill:rgb(5,195,222);"/>
        <path d="M27.65,13.522C27.358,13.522 27.09,13.409 26.886,13.224L26.906,13.224C26.776,13.113 26.674,12.983 26.604,12.834C26.604,12.833 26.603,12.833 26.603,12.832C26.591,12.806 26.581,12.779 26.571,12.752C26.564,12.734 26.558,12.717 26.552,12.699C26.548,12.686 26.545,12.673 26.541,12.66C26.534,12.633 26.526,12.606 26.521,12.577C26.519,12.568 26.518,12.558 26.516,12.548C26.511,12.518 26.506,12.488 26.503,12.457C26.499,12.416 26.496,12.374 26.496,12.331C26.496,12.289 26.499,12.248 26.503,12.208C26.504,12.205 26.504,12.203 26.505,12.2C26.538,11.918 26.68,11.668 26.906,11.475L26.882,11.475C27.087,11.291 27.356,11.177 27.65,11.177C28.32,11.177 28.841,11.698 28.841,12.331C28.841,13.001 28.32,13.522 27.65,13.522M27.65,10.321C26.868,10.321 26.166,10.791 25.838,11.475L23.445,11.475C21.845,11.512 20.468,11.4 19.24,11.028C18.012,10.693 16.933,10.098 15.928,9.168C15.742,8.981 15.518,8.907 15.258,8.907C15.035,8.907 14.811,8.981 14.625,9.168C13.621,10.098 12.541,10.693 11.313,11.028C10.085,11.4 8.671,11.512 7.108,11.475L6.736,11.475C6.252,11.475 5.88,11.847 5.88,12.331C5.88,12.815 6.252,13.224 6.736,13.224L7.071,13.224C8.82,13.261 10.383,13.112 11.797,12.703C13.062,12.331 14.216,11.772 15.258,10.917C16.337,11.772 17.491,12.331 18.756,12.703C20.17,13.112 21.733,13.261 23.482,13.224L25.856,13.224C26.192,13.887 26.882,14.34 27.65,14.34C28.766,14.34 29.697,13.447 29.697,12.331C29.697,11.214 28.766,10.321 27.65,10.321" style="fill:rgb(5,195,222);"/>
        <path d="M150.753,28.705L153.32,28.705C153.804,28.705 154.288,28.705 154.809,28.63C155.107,28.63 155.404,28.556 155.702,28.407C155.888,28.295 156.037,28.146 156.149,27.923C156.298,27.625 156.372,27.216 156.409,26.881C156.446,26.323 156.484,25.728 156.484,25.132L156.484,24.909C156.484,24.276 156.446,23.681 156.409,23.085C156.372,22.75 156.298,22.378 156.149,22.043C156.037,21.857 155.888,21.709 155.702,21.597C155.442,21.448 155.107,21.411 154.809,21.374C154.288,21.336 153.804,21.336 153.32,21.336L150.753,21.336C150.269,21.336 149.748,21.336 149.264,21.374C148.966,21.411 148.631,21.448 148.371,21.597C148.148,21.709 147.999,21.857 147.924,22.043C147.776,22.341 147.701,22.75 147.664,23.085C147.59,23.681 147.59,24.276 147.59,24.909L147.59,25.132C147.59,25.728 147.59,26.323 147.664,26.881C147.701,27.216 147.776,27.625 147.924,27.923C147.999,28.146 148.148,28.295 148.371,28.407C148.631,28.556 148.966,28.63 149.264,28.63C149.748,28.705 150.269,28.705 150.753,28.705M131.885,28.519L137.579,28.519C138.174,28.519 138.77,28.481 139.365,28.407C139.663,28.37 139.998,28.258 140.221,28.035C140.445,27.774 140.556,27.402 140.631,27.105C140.742,26.472 140.742,25.765 140.742,25.132L140.742,24.909C140.742,24.313 140.742,23.755 140.668,23.197C140.631,22.899 140.556,22.49 140.407,22.23C140.333,22.043 140.184,21.895 139.961,21.783C139.7,21.671 139.365,21.597 139.068,21.597C138.584,21.56 138.063,21.522 137.579,21.522L131.885,21.522L131.885,28.519ZM56.081,24.574L61.105,24.574C61.663,24.574 62.221,24.574 62.78,24.5C63.003,24.462 63.375,24.425 63.561,24.276C63.673,24.202 63.747,24.127 63.784,23.979C63.859,23.718 63.859,23.42 63.859,23.197L63.859,22.937C63.859,22.676 63.859,22.341 63.784,22.081C63.71,21.932 63.636,21.82 63.487,21.746C63.226,21.634 62.854,21.597 62.594,21.597C61.998,21.522 61.403,21.522 60.807,21.522L56.081,21.522L56.081,24.574ZM150.753,30.416C149.971,30.416 149.115,30.379 148.334,30.23C147.738,30.082 147.18,29.858 146.734,29.412C146.287,28.965 146.064,28.37 145.915,27.737C145.766,26.918 145.729,25.988 145.729,25.132L145.729,24.909C145.729,24.165 145.729,23.383 145.841,22.676C145.915,22.155 146.064,21.597 146.324,21.113C146.547,20.704 146.882,20.406 147.292,20.146C147.738,19.922 148.259,19.773 148.743,19.736C149.413,19.625 150.083,19.625 150.753,19.625L153.32,19.625C153.953,19.625 154.623,19.625 155.293,19.736C155.814,19.773 156.298,19.922 156.744,20.146C157.191,20.406 157.488,20.704 157.749,21.113C158.009,21.597 158.121,22.155 158.195,22.676C158.307,23.383 158.344,24.165 158.344,24.909L158.344,25.132C158.344,25.988 158.307,26.918 158.121,27.737C158.009,28.37 157.749,28.965 157.302,29.412C156.893,29.858 156.298,30.082 155.702,30.23C154.921,30.379 154.102,30.416 153.32,30.416L150.753,30.416ZM130.025,30.23L130.025,19.811L137.579,19.811C138.361,19.811 139.216,19.848 139.998,19.997C140.556,20.108 141.152,20.332 141.598,20.741C142.045,21.15 142.268,21.746 142.417,22.341C142.566,23.16 142.603,24.053 142.603,24.909L142.603,25.132C142.603,25.951 142.566,26.844 142.417,27.625C142.268,28.221 142.045,28.816 141.598,29.226C141.152,29.672 140.593,29.895 139.998,30.007C139.216,30.193 138.361,30.23 137.579,30.23L130.025,30.23ZM119.121,30.416C118.34,30.416 117.484,30.379 116.702,30.23C116.107,30.082 115.549,29.858 115.102,29.412C114.655,28.965 114.432,28.37 114.283,27.737C114.134,26.918 114.06,25.988 114.06,25.132L114.06,19.811L115.958,19.811L115.958,25.132C115.958,25.728 115.958,26.323 116.032,26.881C116.07,27.216 116.144,27.625 116.293,27.923C116.404,28.146 116.516,28.295 116.739,28.407C117,28.556 117.335,28.63 117.633,28.63C118.116,28.705 118.637,28.705 119.121,28.705L121.428,28.705C121.912,28.705 122.396,28.705 122.917,28.63C123.177,28.63 123.512,28.556 123.773,28.407C123.996,28.295 124.145,28.146 124.257,27.923C124.405,27.625 124.48,27.216 124.517,26.881C124.554,26.323 124.592,25.728 124.592,25.132L124.592,19.811L126.452,19.811L126.452,25.132C126.452,25.988 126.415,26.918 126.229,27.737C126.117,28.37 125.857,28.965 125.41,29.412C125.001,29.858 124.405,30.082 123.81,30.23C123.066,30.379 122.21,30.416 121.428,30.416L119.121,30.416ZM98.319,25.132L98.319,24.909C98.319,24.165 98.319,23.383 98.43,22.676C98.505,22.155 98.654,21.597 98.914,21.113C99.137,20.704 99.472,20.406 99.882,20.146C100.328,19.922 100.849,19.773 101.333,19.736C102.003,19.625 102.673,19.625 103.343,19.625L105.91,19.625C106.655,19.625 107.399,19.625 108.143,19.736C108.701,19.811 109.259,19.959 109.743,20.294C110.19,20.592 110.488,21.001 110.636,21.522C110.86,22.118 110.897,22.862 110.897,23.495L110.897,23.83L109.036,23.83L109.036,23.495C109.036,23.085 109.036,22.564 108.887,22.192C108.813,21.932 108.701,21.746 108.478,21.634C108.218,21.485 107.883,21.411 107.548,21.374C107.027,21.336 106.431,21.336 105.91,21.336L103.343,21.336C102.859,21.336 102.338,21.336 101.854,21.374C101.556,21.411 101.221,21.448 100.961,21.597C100.738,21.709 100.589,21.857 100.514,22.043C100.365,22.341 100.291,22.75 100.254,23.085C100.179,23.681 100.179,24.276 100.179,24.909L100.179,25.132C100.179,25.728 100.179,26.323 100.254,26.881C100.291,27.216 100.365,27.625 100.514,27.923C100.589,28.146 100.738,28.295 100.961,28.407C101.221,28.556 101.556,28.63 101.854,28.63C102.338,28.705 102.859,28.705 103.343,28.705L105.91,28.705C106.469,28.705 107.027,28.705 107.585,28.667C107.883,28.63 108.218,28.593 108.478,28.444C108.701,28.332 108.813,28.146 108.887,27.923C109.036,27.514 109.036,26.993 109.036,26.583L109.036,26.249L110.897,26.249L110.897,26.583C110.897,27.253 110.86,27.96 110.636,28.556C110.488,29.077 110.19,29.486 109.706,29.784C109.259,30.082 108.701,30.23 108.143,30.305C107.399,30.379 106.655,30.416 105.91,30.416L103.343,30.416C102.561,30.416 101.705,30.379 100.924,30.23C100.328,30.082 99.77,29.858 99.323,29.412C98.877,28.965 98.654,28.37 98.505,27.737C98.356,26.918 98.319,25.988 98.319,25.132M93.369,27.067C93.369,26.807 93.369,26.509 93.295,26.286C93.258,26.137 93.183,26.062 93.072,25.988C92.848,25.876 92.476,25.839 92.216,25.839C91.62,25.802 91.025,25.765 90.467,25.765L86.931,25.728C86.224,25.69 85.48,25.69 84.773,25.542C84.326,25.467 83.805,25.318 83.433,25.058C83.098,24.797 82.875,24.462 82.763,24.053C82.652,23.644 82.614,23.16 82.614,22.713C82.614,22.23 82.689,21.709 82.838,21.225C82.987,20.815 83.247,20.443 83.657,20.22C84.103,19.959 84.661,19.811 85.182,19.736C85.964,19.625 86.745,19.625 87.527,19.625L90.243,19.625C90.988,19.625 91.732,19.625 92.439,19.699C92.96,19.736 93.518,19.848 93.965,20.108C94.374,20.369 94.672,20.778 94.821,21.225C95.007,21.783 95.044,22.453 95.044,23.048L93.183,23.048C93.183,22.713 93.146,22.23 93.034,21.895C92.96,21.709 92.848,21.56 92.699,21.485C92.439,21.374 92.104,21.336 91.806,21.336L87.601,21.336C87.006,21.336 86.41,21.336 85.815,21.374C85.554,21.374 85.145,21.448 84.885,21.56C84.736,21.597 84.661,21.709 84.624,21.857C84.512,22.118 84.512,22.453 84.512,22.713C84.512,22.937 84.512,23.234 84.587,23.458C84.624,23.569 84.661,23.644 84.81,23.718C84.996,23.83 85.331,23.867 85.554,23.904C86.075,23.941 86.634,23.979 87.155,23.979L90.95,24.016C91.657,24.016 92.402,24.053 93.109,24.165C93.593,24.276 94.076,24.388 94.448,24.686C94.783,24.946 95.007,25.281 95.118,25.69C95.23,26.137 95.23,26.621 95.23,27.067C95.23,27.588 95.193,28.109 95.081,28.593C94.932,29.04 94.709,29.412 94.337,29.709C93.89,30.007 93.369,30.156 92.848,30.268C92.067,30.379 91.248,30.416 90.504,30.416L87.527,30.416C86.783,30.416 86.038,30.379 85.294,30.305C84.773,30.23 84.215,30.082 83.768,29.784C83.322,29.486 83.024,29.077 82.875,28.593C82.689,27.998 82.614,27.291 82.614,26.658L84.512,26.658C84.512,27.067 84.512,27.551 84.624,27.96C84.699,28.146 84.81,28.332 84.996,28.444C85.257,28.593 85.592,28.63 85.889,28.667C86.41,28.705 86.969,28.705 87.527,28.705L90.429,28.705C90.988,28.705 91.62,28.705 92.178,28.63C92.439,28.593 92.811,28.556 93.034,28.407C93.146,28.295 93.258,28.184 93.295,27.998C93.369,27.7 93.369,27.365 93.369,27.067M71.376,21.485L71.376,24.09L79.377,24.09L79.377,25.765L71.376,25.765L71.376,28.556L79.898,28.556L79.898,30.23L69.515,30.23L69.515,19.811L79.749,19.811L79.749,21.485L71.376,21.485ZM63.524,26.1L65.682,30.23L63.71,30.23L61.663,26.286L56.081,26.286L56.081,30.23L54.183,30.23L54.183,19.811L61.031,19.811C61.812,19.811 62.594,19.848 63.375,19.959C63.859,20.034 64.417,20.146 64.826,20.443C65.199,20.704 65.459,21.039 65.571,21.485C65.72,21.932 65.757,22.453 65.757,22.937L65.757,23.197C65.757,23.644 65.682,24.127 65.534,24.574C65.385,25.02 65.124,25.393 64.715,25.653C64.38,25.876 63.933,26.025 63.524,26.1M44.136,21.485L39.261,21.485L39.261,19.811L50.871,19.811L50.871,21.485L45.996,21.485L45.996,30.23L44.136,30.23L44.136,21.485Z" style="fill:white;"/>
</svg>
