<?xml version="1.0" encoding="utf-8"?>
<svg xmlns="http://www.w3.org/2000/svg" width="154px" zoomAndPan="magnify" viewBox="0 0 154 26" height="26px" preserveAspectRatio="xMinYMin" version="1.0">
  <path d="M 11.458 13.362 C 10.209 13.628 9.003 13.882 7.8 14.147 C 7.462 14.222 7.217 14.18 7.134 13.791 C 6.912 12.755 6.681 11.722 6.463 10.686 C 6.396 10.368 6.492 10.186 6.865 10.11 C 9.399 9.593 11.92 9.009 14.461 8.533 C 15.683 8.305 16.938 8.208 18.183 8.156 C 19.671 8.094 21.174 8.032 22.651 8.174 C 24.546 8.357 26.426 8.712 28.302 9.053 C 29.821 9.33 31.322 9.701 32.833 10.024 C 33.477 10.161 33.518 10.197 33.383 10.856 C 33.189 11.808 32.958 12.753 32.777 13.708 C 32.699 14.118 32.529 14.207 32.13 14.119 C 29.926 13.634 27.717 13.171 25.51 12.704 C 25.348 12.67 25.18 12.662 24.897 12.626 C 25.016 12.854 25.063 12.998 25.153 13.107 C 26.933 15.282 28.717 17.453 30.503 19.623 C 30.745 19.918 30.833 20.15 30.453 20.441 C 29.615 21.086 28.806 21.771 27.996 22.452 C 27.76 22.651 27.575 22.658 27.379 22.416 C 25.835 20.519 24.291 18.621 22.744 16.726 C 22.607 16.559 22.448 16.41 22.191 16.137 C 22.151 16.503 22.109 16.712 22.109 16.922 C 22.104 19.688 22.107 22.454 22.104 25.22 C 22.104 25.963 22.076 25.989 21.343 25.992 C 20.525 25.995 19.708 25.994 18.89 25.992 C 18.041 25.991 18.036 25.987 18.035 25.157 C 18.033 22.373 18.034 19.59 18.034 16.806 C 18.034 16.589 18.034 16.371 18.034 16.153 C 17.987 16.137 17.939 16.12 17.891 16.104 C 17.541 16.517 17.185 16.926 16.842 17.345 C 15.456 19.035 14.064 20.721 12.702 22.43 C 12.426 22.776 12.211 22.743 11.929 22.514 C 11.109 21.845 10.291 21.173 9.471 20.503 C 9.191 20.274 9.233 20.065 9.453 19.799 C 11.337 17.507 13.211 15.207 15.085 12.907 C 15.125 12.858 15.144 12.793 15.258 12.561 C 13.915 12.845 12.708 13.099 11.458 13.362 Z" style="fill-rule: nonzero; fill: rgb(255, 255, 255);"/>
  <path d="M 80.382 18.787 C 81.715 18.859 82.706 18.13 83.739 17.537 C 84.993 16.817 86.245 16.139 87.708 15.897 C 90.652 15.409 93.171 17.5 93.203 20.485 C 93.215 21.567 93.091 22.594 92.506 23.534 C 91.758 24.737 90.692 25.534 89.312 25.756 C 88.155 25.942 86.965 25.945 85.788 25.986 C 84.815 26.02 83.84 25.976 82.866 25.998 C 82.386 26.009 82.212 25.816 82.231 25.349 C 82.254 24.758 82.252 24.165 82.232 23.575 C 82.216 23.124 82.403 22.957 82.849 22.962 C 84.223 22.976 85.601 23.02 86.971 22.939 C 87.546 22.905 88.149 22.664 88.661 22.377 C 89.267 22.038 89.479 21.182 89.278 20.472 C 89.105 19.86 88.449 19.372 87.751 19.316 C 86.788 19.238 86.007 19.705 85.217 20.144 C 84.17 20.724 83.165 21.398 82.074 21.873 C 80.4 22.602 78.677 22.688 76.996 21.807 C 75.797 21.179 75.129 19.883 75.202 18.53 C 75.322 16.293 76.638 15.059 78.593 14.321 C 78.734 14.268 78.874 14.215 79.122 14.121 C 78.908 13.927 78.778 13.78 78.622 13.67 C 75.724 11.638 75.365 7.589 77.838 5.068 C 79.466 3.408 81.47 2.64 83.74 2.634 C 85.102 2.63 86.463 2.893 87.828 2.982 C 89.161 3.068 90.499 3.086 91.835 3.13 C 92.13 3.14 92.426 3.137 92.722 3.136 C 93.012 3.136 93.188 3.256 93.188 3.567 C 93.19 4.315 93.188 5.063 93.19 5.811 C 93.191 6.152 92.995 6.262 92.687 6.26 C 92.064 6.257 91.441 6.259 90.783 6.259 C 90.804 6.385 90.793 6.464 90.827 6.51 C 92.042 8.161 91.938 9.902 91.076 11.625 C 90.012 13.752 88.137 14.817 85.877 15.218 C 84.234 15.51 82.592 15.415 80.985 14.89 C 80.734 14.808 80.39 14.846 80.14 14.951 C 79.204 15.343 78.635 16.563 78.879 17.552 C 79.082 18.376 79.453 18.689 80.382 18.787 M 82.648 5.973 C 82.228 6.177 81.773 6.331 81.394 6.594 C 79.595 7.839 79.563 10.145 81.305 11.42 C 82.856 12.555 85.595 12.484 87.08 11.271 C 88.484 10.124 88.585 8.253 87.285 6.987 C 85.985 5.723 84.413 5.579 82.648 5.973 Z" style="fill-rule: nonzero; fill: rgb(255, 255, 255);"/>
  <path d="M 141.217 8.768 C 141.217 12.124 141.218 15.428 141.215 18.731 C 141.215 19.499 141.194 19.518 140.419 19.52 C 139.585 19.522 138.75 19.51 137.916 19.522 C 137.517 19.528 137.347 19.366 137.353 18.964 C 137.366 18.217 137.358 17.469 137.35 16.722 C 137.349 16.547 137.311 16.373 137.289 16.198 C 137.24 16.188 137.192 16.178 137.143 16.168 C 137.043 16.337 136.933 16.501 136.846 16.677 C 135.847 18.677 134.243 19.748 132.006 19.957 C 129.85 20.158 127.978 19.55 126.412 18.103 C 125.097 16.888 124.342 15.323 124.025 13.57 C 123.636 11.413 123.726 9.281 124.595 7.237 C 125.701 4.636 127.616 3.074 130.461 2.695 C 131.947 2.497 133.331 2.752 134.62 3.492 C 135.577 4.042 136.288 4.838 136.775 5.832 C 136.886 6.056 137.021 6.267 137.144 6.484 C 137.192 6.474 137.239 6.464 137.288 6.454 C 137.309 6.281 137.349 6.108 137.35 5.934 C 137.358 5.186 137.366 4.438 137.353 3.691 C 137.347 3.292 137.512 3.125 137.913 3.13 C 138.816 3.142 139.721 3.147 140.625 3.127 C 141.09 3.117 141.224 3.331 141.22 3.761 C 141.208 5.413 141.217 7.064 141.217 8.768 M 127.965 9.472 C 127.691 10.567 127.657 11.673 127.875 12.776 C 128.129 14.057 128.686 15.17 129.793 15.943 C 130.703 16.579 131.726 16.759 132.814 16.703 C 134.439 16.62 135.696 15.92 136.563 14.528 C 137.345 13.268 137.481 11.87 137.335 10.456 C 137.006 7.283 134.603 5.43 131.415 6.039 C 129.555 6.395 128.562 7.693 127.965 9.472 Z" style="fill-rule: nonzero; fill: rgb(255, 255, 255);"/>
  <path d="M 62.175 3.838 C 63.592 2.959 65.124 2.583 66.728 2.625 C 68.838 2.68 70.775 3.29 72.296 4.842 C 73.566 6.138 74.274 7.725 74.5 9.517 C 74.586 10.203 74.597 10.901 74.61 11.594 C 74.625 12.407 74.6 12.421 73.804 12.421 C 70.326 12.423 66.848 12.422 63.37 12.422 C 62.336 12.422 62.341 12.422 62.583 13.441 C 63.2 16.034 65.397 17.21 68.091 16.451 C 69.153 16.152 70.011 15.586 70.473 14.52 C 70.537 14.373 70.784 14.222 70.95 14.217 C 71.94 14.188 72.932 14.209 73.923 14.198 C 74.392 14.192 74.372 14.457 74.288 14.782 C 73.862 16.431 73.011 17.806 71.528 18.675 C 68.703 20.331 65.718 20.482 62.728 19.24 C 60.444 18.29 59.28 16.345 58.79 14.004 C 58.401 12.15 58.408 10.282 58.908 8.432 C 59.428 6.507 60.492 4.978 62.175 3.838 M 67.992 6.134 C 65.296 5.373 63.12 6.64 62.59 9.259 C 62.508 9.66 62.615 9.811 63.011 9.811 C 65.428 9.807 67.846 9.808 70.263 9.809 C 70.619 9.809 70.758 9.684 70.673 9.293 C 70.347 7.791 69.539 6.705 67.992 6.134 Z" style="fill-rule: nonzero; fill: rgb(255, 255, 255);"/>
  <path d="M 44.994 4.305 C 46.049 3.331 47.315 2.938 48.657 2.739 C 49.993 2.541 51.321 2.595 52.634 2.932 C 55.116 3.568 56.869 5.499 57.258 8.021 C 57.326 8.463 57.185 8.676 56.711 8.667 C 55.859 8.65 55.006 8.653 54.153 8.666 C 53.826 8.67 53.639 8.542 53.536 8.232 C 52.716 5.763 50.205 5.48 48.335 6.104 C 47.68 6.323 47.346 6.847 47.307 7.484 C 47.269 8.088 47.646 8.587 48.189 8.787 C 49.096 9.121 50.035 9.378 50.978 9.595 C 52.522 9.951 54.048 10.315 55.406 11.2 C 57.801 12.761 57.683 16.002 56.465 17.672 C 55.566 18.904 54.283 19.493 52.862 19.777 C 50.767 20.196 48.681 20.121 46.673 19.302 C 44.645 18.475 43.477 16.922 43.013 14.814 C 42.88 14.211 42.986 14.096 43.586 14.094 C 44.403 14.091 45.222 14.07 46.038 14.113 C 46.244 14.124 46.557 14.307 46.62 14.483 C 47.197 16.095 48.485 16.652 50.024 16.789 C 51.048 16.881 52.084 16.869 52.97 16.196 C 53.622 15.7 53.745 14.66 53.164 14.134 C 52.889 13.885 52.533 13.673 52.178 13.575 C 51.16 13.294 50.124 13.074 49.093 12.841 C 47.851 12.561 46.642 12.208 45.547 11.522 C 43.455 10.211 43.118 8.157 43.83 6.107 C 44.054 5.461 44.58 4.92 44.994 4.305 Z" style="fill-rule: nonzero; fill: rgb(255, 255, 255);"/>
  <path d="M 110.108 15.032 C 110.108 16.319 110.11 17.554 110.106 18.789 C 110.104 19.484 110.069 19.517 109.357 19.519 C 108.54 19.523 107.722 19.51 106.905 19.522 C 106.503 19.528 106.343 19.355 106.349 18.958 C 106.359 17.984 106.354 17.01 106.347 16.037 C 106.344 15.842 106.305 15.647 106.283 15.453 C 106.231 15.44 106.177 15.428 106.124 15.416 C 106.031 15.597 105.937 15.776 105.846 15.958 C 105.476 16.699 105.177 17.487 104.72 18.17 C 103.957 19.31 102.79 19.797 101.447 19.946 C 99.97 20.111 98.549 19.95 97.293 19.14 C 95.719 18.125 94.956 16.568 94.669 14.762 C 94.588 14.251 94.56 13.726 94.559 13.208 C 94.548 10.112 94.552 7.016 94.554 3.92 C 94.554 3.153 94.576 3.135 95.351 3.132 C 96.134 3.13 96.917 3.128 97.7 3.133 C 98.369 3.137 98.413 3.179 98.414 3.845 C 98.417 6.819 98.395 9.794 98.426 12.767 C 98.44 14.055 98.864 15.191 100.002 15.945 C 101.523 16.953 103.704 16.551 104.814 15.098 C 105.757 13.862 106.207 12.466 106.242 10.934 C 106.295 8.572 106.316 6.21 106.351 3.847 C 106.36 3.179 106.397 3.137 107.065 3.133 C 107.83 3.128 108.595 3.129 109.36 3.133 C 110.07 3.136 110.106 3.168 110.106 3.866 C 110.109 6.771 110.108 9.675 110.108 12.58 C 110.108 13.38 110.108 14.18 110.108 15.032 Z" style="fill-rule: nonzero; fill: rgb(255, 255, 255);"/>
  <path d="M 18.87 5.323 C 15.944 5.493 13.069 5.644 10.198 5.842 C 9.092 5.918 7.993 6.089 6.893 6.237 C 6.494 6.291 6.396 6.127 6.443 5.772 C 6.602 4.586 6.753 3.399 6.912 2.213 C 6.99 1.629 7.096 1.048 7.16 0.463 C 7.199 0.104 7.388 -0.015 7.716 0.001 C 7.838 0.007 7.96 0 8.082 0 C 15.996 0 23.91 -0.001 31.825 0 C 32.65 0 32.674 -0.002 32.793 0.807 C 33.033 2.437 33.248 4.071 33.464 5.704 C 33.523 6.158 33.362 6.27 32.884 6.22 C 30.59 5.983 28.3 5.691 26.001 5.545 C 23.646 5.395 21.282 5.391 18.87 5.323 Z" style="fill-rule: nonzero; fill: rgb(255, 255, 255);"/>
  <path d="M 113.136 3.782 C 113.094 3.277 113.316 3.118 113.755 3.127 C 114.643 3.146 115.53 3.144 116.416 3.129 C 116.844 3.121 117.008 3.3 117.001 3.72 C 116.985 4.572 116.996 5.425 117 6.277 C 117.001 6.46 117.021 6.643 117.157 6.857 C 117.211 6.75 117.267 6.645 117.316 6.537 C 117.633 5.848 117.869 5.105 118.283 4.479 C 118.927 3.502 119.984 3.215 121.094 3.14 C 121.613 3.105 122.138 3.15 122.659 3.128 C 123.115 3.109 123.276 3.31 123.265 3.751 C 123.245 4.533 123.248 5.316 123.264 6.099 C 123.273 6.526 123.094 6.697 122.673 6.683 C 122.151 6.666 121.629 6.68 121.108 6.681 C 119.107 6.684 117.825 7.636 117.331 9.586 C 117.137 10.352 117.027 11.158 117.012 11.948 C 116.97 14.226 116.999 16.505 116.996 18.783 C 116.996 19.484 116.96 19.516 116.252 19.519 C 115.452 19.523 114.652 19.524 113.851 19.519 C 113.182 19.515 113.137 19.474 113.137 18.807 C 113.134 15.693 113.135 12.58 113.135 9.466 C 113.135 7.588 113.135 5.709 113.136 3.782 Z" style="fill-rule: nonzero; fill: rgb(255, 255, 255);"/>
  <path d="M 145.547 2.62 C 147.07 2.493 147.759 3.559 147.408 4.892 C 147.19 5.715 146.228 6.107 145.274 5.841 C 144.487 5.621 143.991 4.737 144.18 3.912 C 144.345 3.194 144.784 2.768 145.547 2.62 M 145.071 3.435 C 144.514 4.005 144.532 4.629 145.181 5.221 C 145.891 5.552 146.437 5.457 146.783 4.94 C 147.082 4.495 147.011 3.774 146.631 3.417 C 146.232 3.04 145.623 3.031 145.071 3.435 Z" style="fill-rule: nonzero; fill: rgb(255, 255, 255);"/>
  <g transform="matrix(0.104392, 0, 0, 0.104392, -3.199744, -20.186823)">
    <path d="M1422.82,241.67L1422.82,227.354L1428.9,227.354C1430.43,227.354 1431.54,227.482 1432.23,227.74C1432.93,227.997 1433.48,228.454 1433.9,229.112C1434.32,229.769 1434.52,230.521 1434.52,231.368C1434.52,232.442 1434.21,233.329 1433.58,234.029C1432.95,234.729 1432,235.17 1430.75,235.352C1431.37,235.717 1431.89,236.117 1432.29,236.553C1432.7,236.989 1433.25,237.764 1433.94,238.877L1435.69,241.67L1432.23,241.67L1430.14,238.555C1429.4,237.442 1428.89,236.74 1428.62,236.451C1428.34,236.161 1428.05,235.962 1427.75,235.855C1427.44,235.747 1426.96,235.694 1426.29,235.694L1425.71,235.694L1425.71,241.67L1422.82,241.67ZM1425.71,233.409L1427.85,233.409C1429.23,233.409 1430.1,233.35 1430.44,233.233C1430.79,233.116 1431.06,232.914 1431.25,232.627C1431.45,232.341 1431.55,231.983 1431.55,231.553C1431.55,231.071 1431.42,230.682 1431.16,230.386C1430.9,230.09 1430.54,229.903 1430.07,229.825C1429.84,229.792 1429.13,229.776 1427.96,229.776L1425.71,229.776L1425.71,233.409Z" style="fill-rule: nonzero; fill: rgb(255, 255, 255);"/>
  </g>
</svg>