<?xml version="1.0" encoding="utf-8"?>
<svg xmlns="http://www.w3.org/2000/svg" width="154px" zoomAndPan="magnify" viewBox="0 0 154 26" height="26px" preserveAspectRatio="xMinYMin" version="1.0">
  <path d="M 35.113 11.039 L 37.016 11.039 L 34.47 17.6 L 32.5 17.6 L 29.954 11.039 L 31.857 11.039 L 33.478 15.631 L 35.113 11.039 Z" style="fill-rule: nonzero; fill: rgb(255, 255, 255);"/>
  <path d="M 38.707 10.251 C 38.422 10.251 38.172 10.15 37.957 9.949 C 37.751 9.739 37.649 9.494 37.649 9.214 C 37.649 8.934 37.751 8.689 37.957 8.479 C 38.172 8.269 38.422 8.164 38.707 8.164 C 39.002 8.164 39.253 8.269 39.458 8.479 C 39.672 8.689 39.78 8.934 39.78 9.214 C 39.78 9.494 39.672 9.739 39.458 9.949 C 39.253 10.15 39.002 10.251 38.707 10.251 Z M 37.85 17.6 L 37.85 11.038 L 39.579 11.038 L 39.579 17.6 L 37.85 17.6 Z" style="fill-rule: nonzero; fill: rgb(255, 255, 255);"/>
  <path d="M 44.347 17.784 C 43.338 17.784 42.493 17.451 41.814 16.786 C 41.144 16.121 40.809 15.299 40.809 14.319 C 40.809 13.339 41.144 12.517 41.814 11.852 C 42.493 11.187 43.338 10.854 44.347 10.854 C 44.999 10.854 45.593 11.007 46.129 11.314 C 46.665 11.62 47.072 12.031 47.349 12.547 L 45.862 13.4 C 45.727 13.129 45.522 12.915 45.245 12.758 C 44.977 12.6 44.673 12.521 44.334 12.521 C 43.815 12.521 43.387 12.692 43.047 13.033 C 42.708 13.365 42.538 13.794 42.538 14.319 C 42.538 14.835 42.708 15.264 43.047 15.605 C 43.387 15.937 43.815 16.104 44.334 16.104 C 44.682 16.104 44.99 16.029 45.258 15.881 C 45.535 15.723 45.741 15.509 45.875 15.238 L 47.376 16.078 C 47.081 16.594 46.665 17.009 46.129 17.324 C 45.593 17.63 44.999 17.784 44.347 17.784 Z" style="fill-rule: nonzero; fill: rgb(255, 255, 255);"/>
  <path d="M 53.279 11.039 L 55.008 11.039 L 55.008 17.6 L 53.279 17.6 L 53.279 16.826 C 52.761 17.465 52.033 17.784 51.095 17.784 C 50.201 17.784 49.433 17.451 48.79 16.787 C 48.156 16.113 47.838 15.29 47.838 14.319 C 47.838 13.348 48.156 12.53 48.79 11.865 C 49.433 11.191 50.201 10.855 51.095 10.855 C 52.033 10.855 52.761 11.174 53.279 11.812 L 53.279 11.039 Z M 50.09 15.658 C 50.438 15.999 50.88 16.17 51.417 16.17 C 51.952 16.17 52.395 15.999 52.743 15.658 C 53.1 15.308 53.279 14.862 53.279 14.319 C 53.279 13.777 53.1 13.335 52.743 12.994 C 52.395 12.644 51.952 12.469 51.417 12.469 C 50.88 12.469 50.438 12.644 50.09 12.994 C 49.741 13.335 49.567 13.777 49.567 14.319 C 49.567 14.862 49.741 15.308 50.09 15.658 Z" style="fill-rule: nonzero; fill: rgb(255, 255, 255);"/>
  <path d="M 58.301 12.167 C 58.462 11.747 58.726 11.432 59.092 11.222 C 59.467 11.012 59.883 10.907 60.338 10.907 L 60.338 12.797 C 59.811 12.736 59.337 12.841 58.918 13.112 C 58.507 13.383 58.301 13.834 58.301 14.464 L 58.301 17.6 L 56.573 17.6 L 56.573 11.039 L 58.301 11.039 L 58.301 12.167 Z" style="fill-rule: nonzero; fill: rgb(255, 255, 255);"/>
  <path d="M 62.209 10.251 C 61.923 10.251 61.673 10.15 61.459 9.949 C 61.253 9.739 61.15 9.494 61.15 9.214 C 61.15 8.934 61.253 8.689 61.459 8.479 C 61.673 8.269 61.923 8.164 62.209 8.164 C 62.504 8.164 62.754 8.269 62.959 8.479 C 63.174 8.689 63.281 8.934 63.281 9.214 C 63.281 9.494 63.174 9.739 62.959 9.949 C 62.754 10.15 62.504 10.251 62.209 10.251 Z M 61.352 17.6 L 61.352 11.038 L 63.08 11.038 L 63.08 17.6 L 61.352 17.6 Z" style="fill-rule: nonzero; fill: rgb(255, 255, 255);"/>
  <path d="M 69.086 11.039 L 70.814 11.039 L 70.814 17.601 L 69.086 17.601 L 69.086 16.866 C 68.666 17.478 68 17.784 67.089 17.784 C 66.356 17.784 65.749 17.544 65.266 17.063 C 64.793 16.581 64.556 15.916 64.556 15.067 L 64.556 11.039 L 66.285 11.039 L 66.285 14.857 C 66.285 15.295 66.405 15.632 66.646 15.868 C 66.888 16.096 67.209 16.209 67.611 16.209 C 68.058 16.209 68.416 16.074 68.684 15.803 C 68.951 15.531 69.086 15.124 69.086 14.582 L 69.086 11.039 Z" style="fill-rule: nonzero; fill: rgb(255, 255, 255);"/>
  <path d="M 73.938 12.902 C 73.938 13.077 74.054 13.221 74.286 13.335 C 74.527 13.44 74.818 13.536 75.157 13.624 C 75.497 13.703 75.836 13.807 76.176 13.938 C 76.515 14.061 76.801 14.271 77.033 14.568 C 77.274 14.866 77.395 15.238 77.395 15.684 C 77.395 16.358 77.136 16.878 76.618 17.246 C 76.109 17.605 75.47 17.784 74.702 17.784 C 73.325 17.784 72.388 17.263 71.888 16.222 L 73.388 15.396 C 73.585 15.964 74.023 16.249 74.702 16.249 C 75.318 16.249 75.626 16.061 75.626 15.684 C 75.626 15.509 75.506 15.369 75.265 15.264 C 75.032 15.151 74.746 15.05 74.407 14.963 C 74.067 14.875 73.728 14.766 73.388 14.634 C 73.049 14.503 72.758 14.298 72.517 14.018 C 72.285 13.729 72.169 13.37 72.169 12.941 C 72.169 12.294 72.41 11.786 72.893 11.419 C 73.384 11.043 73.991 10.855 74.715 10.855 C 75.26 10.855 75.756 10.977 76.202 11.222 C 76.649 11.458 77.002 11.8 77.261 12.245 L 75.787 13.033 C 75.573 12.587 75.216 12.364 74.715 12.364 C 74.492 12.364 74.304 12.412 74.152 12.508 C 74.009 12.605 73.938 12.736 73.938 12.902 Z" style="fill-rule: nonzero; fill: rgb(255, 255, 255);"/>
  <path d="M 5.631 18.095 C 4.66 18.429 3.884 18.905 3.252 19.524 C 1.991 17.667 1.214 15.381 1.214 13 C 1.214 6.476 6.602 1.191 13.253 1.191 C 19.903 1.191 25.292 6.476 25.292 13 C 25.292 18.334 21.651 22.857 16.699 24.334 L 16.699 23.286 C 16.797 23.286 16.942 23.381 17.136 23.619 C 17.379 22.191 17.427 20.714 17.233 19.19 C 17.67 19.381 18.01 19.714 18.301 20.095 C 18.398 18.952 18.156 17.714 17.525 16.476 C 17.913 16.619 18.204 16.905 18.447 17.334 C 18.544 16.286 18.398 15.381 17.525 14.524 C 17.816 14.571 18.01 14.762 18.447 15.143 C 18.204 13.905 17.427 13.667 17.427 12.81 C 17.427 11.476 20.049 10.476 18.69 8.857 C 18.253 9.333 17.816 9.762 17.331 10.095 C 17.525 9.333 17.962 8.429 17.962 8 C 17.962 7.524 16.699 5.905 16.505 5.667 C 16.457 5.619 16.214 5.571 16.02 5.619 C 15.437 5.667 15.631 6.048 15.388 6.286 C 15.049 6.714 14.564 7.238 14.223 7.762 C 13.981 8.048 13.835 8.476 13.593 8.524 C 9.951 9.095 9.612 12.333 6.117 12 C 6.262 13.048 7.136 13.714 8.253 14.191 C 7.718 15.619 6.456 16.857 4.806 18 C 5.097 18 5.34 18.048 5.631 18.095 Z M 0 13 C 0 20.191 5.923 26 13.253 26 C 20.583 26 26.505 20.191 26.505 13 C 26.505 5.809 20.583 0 13.253 0 C 5.923 0 0 5.809 0 13 Z M 12.67 12.619 C 12.233 12.667 12.136 12.714 11.699 12.857 C 11.748 11.809 13.107 10.476 14.418 9 C 15.049 8.286 15.874 6.762 16.165 6.762 C 16.359 6.762 17.185 7.905 17.185 8.333 C 17.185 8.905 16.457 9.857 16.262 11.476 C 17.233 11.048 17.719 10.047 18.301 9.762 C 18.447 10.476 17.331 11.238 16.457 12.905 C 16.797 13.19 16.942 13.381 17.087 13.714 C 16.893 13.81 16.554 13.905 16.068 14.048 C 16.845 14.476 17.185 14.952 17.331 15.476 C 16.991 15.286 16.797 15.238 16.505 15.191 C 16.991 16.476 17.039 17.428 16.991 18.143 C 16.797 18.143 16.554 18.048 16.408 17.905 C 16.845 20.477 16.311 20.952 16.359 22.238 C 15.971 21.666 15.583 21.333 15.098 21.048 C 14.758 22.333 14.223 22.905 13.884 23.238 C 14.175 21.429 14.126 19.81 13.349 18.19 C 13.107 18.429 13.059 18.715 12.913 19.048 C 11.942 18.381 11.554 17.381 12.136 15.572 C 11.699 15.905 11.554 16.19 11.311 16.476 C 11.02 14.285 11.699 13.476 12.67 12.619 Z" style="fill-rule: nonzero; fill: rgb(255, 255, 255);"/>
  <path d="M 17.444 15.505 C 17.241 14.909 16.887 14.462 16.127 14.015 C 16.633 13.866 16.988 13.767 17.191 13.667 C 17.038 13.27 16.887 13.071 16.532 12.823 C 17.444 11.084 18.558 10.289 18.457 9.594 C 17.899 9.892 17.343 10.935 16.33 11.382 C 16.532 9.693 17.292 8.7 17.292 8.104 C 17.292 7.805 16.937 7.209 16.633 6.812 C 14.962 9.246 13.949 12.177 13.949 15.356 C 13.949 17.443 14.405 19.479 15.165 21.318 C 15.671 21.665 16.076 21.963 16.482 22.56 C 16.431 21.218 16.988 20.721 16.532 18.039 C 16.735 18.138 16.937 18.287 17.14 18.287 C 17.191 17.542 17.14 16.598 16.633 15.207 C 16.887 15.207 17.038 15.307 17.444 15.505 Z" style="fill-rule: nonzero; fill: rgb(255, 255, 255);"/>
</svg>