<?xml version="1.0" encoding="utf-8"?>
<svg width="100%" height="100%" viewBox="0 0 729 485" version="1.1" xmlns="http://www.w3.org/2000/svg" style="fill-rule:evenodd;clip-rule:evenodd;">
  <path d="M 301.873 6.229 L 302.265 279.462 C 302.282 291.351 294.946 302.635 282.246 310.252 L 215.387 350.358 C 202.687 357.976 195.351 369.259 195.368 381.148 L 195.499 472.382" style="fill:none;fill-rule:nonzero;stroke:#2f2f2f;stroke-opacity:0.7;stroke-width:2.42px;"/>
  <path d="M 332.464 10.647 L 332.856 283.88 C 332.873 295.769 329.213 307.048 322.869 314.656 L 289.469 354.714 C 283.125 362.322 279.465 373.6 279.482 385.489 L 279.613 476.723" style="fill:none;fill-rule:nonzero;stroke:#2f2f2f;stroke-opacity:0.7;stroke-width:1.72px;"/>
  <path d="M 393.033 8.871 L 393.426 282.105 C 393.443 293.994 397.254 305.261 403.825 312.851 L 438.419 352.811 C 444.99 360.401 448.801 371.668 448.818 383.557 L 448.949 474.791" style="fill:none;fill-rule:nonzero;stroke:#2f2f2f;stroke-opacity:0.7;stroke-width:1.74px;"/>
  <path d="M 361.807 10.369 L 362.199 283.602 C 362.217 295.491 362.216 306.764 362.198 314.363 L 362.103 354.374 C 362.085 361.973 362.085 373.246 362.102 385.135 L 362.233 476.369" style="fill:none;fill-rule:nonzero;stroke:#2f2f2f;stroke-opacity:0.7;stroke-width:1.41px;"/>
  <path d="M 420.882 3.501 L 421.274 276.734 C 421.291 288.623 429.062 299.885 442.478 307.465 L 513.11 347.374 C 526.525 354.953 534.296 366.215 534.313 378.104 L 534.444 469.338" style="fill:none;fill-rule:nonzero;stroke:#2f2f2f;stroke-opacity:0.7;stroke-width:2.51px;"/>
  <path d="M 250 57.408 L 103.415 57.408 C 97.037 57.408 90.989 57.474 86.913 57.587 L 65.448 58.181 C 61.371 58.294 55.324 58.36 48.946 58.36 L 0 58.36" style="fill:none;fill-rule:nonzero;stroke:#2f2f2f;stroke-opacity:0.7;stroke-width:0.76px;"/>
  <path d="M 250 117.908 L 139.022 117.908 C 133.468 117.908 128.131 117.878 124.132 117.824 L 62.832 116.993 C 58.833 116.938 53.496 116.908 47.942 116.908 L 0 116.908" style="fill:none;fill-rule:nonzero;stroke:#2f2f2f;stroke-opacity:0.7;stroke-width:0.76px;"/>
  <path d="M 250 86.413 L 161.8 86.413 C 157.71 86.413 153.771 86.474 150.771 86.583 L 132.712 87.243 C 129.711 87.352 125.772 87.413 121.682 87.413 L 0 87.413" style="fill:none;fill-rule:nonzero;stroke:#2f2f2f;stroke-opacity:0.7;stroke-width:0.57px;"/>
  <path d="M 250 147.908 L 192.719 147.908 C 189.332 147.908 186.11 147.933 183.877 147.975 L 138.727 148.841 C 136.495 148.884 133.273 148.908 129.886 148.908 L 0 148.908" style="fill:none;fill-rule:nonzero;stroke:#2f2f2f;stroke-opacity:0.7;stroke-width:0.42px;"/>
  <path d="M 728.762 56.856 L 582.177 56.856 C 575.799 56.856 569.751 56.922 565.674 57.035 L 544.21 57.629 C 540.133 57.742 534.085 57.808 527.707 57.808 L 478.762 57.808" style="fill:none;fill-rule:nonzero;stroke:#2f2f2f;stroke-opacity:0.7;stroke-width:0.76px;"/>
  <path d="M 728.762 117.356 L 617.783 117.356 C 612.23 117.356 606.892 117.326 602.893 117.272 L 541.594 116.441 C 537.595 116.387 532.258 116.356 526.704 116.356 L 478.762 116.356" style="fill:none;fill-rule:nonzero;stroke:#2f2f2f;stroke-opacity:0.7;stroke-width:0.76px;"/>
  <path d="M 728.762 85.861 L 640.562 85.861 C 636.472 85.861 632.533 85.922 629.532 86.031 L 611.474 86.691 C 608.473 86.8 604.534 86.861 600.444 86.861 L 478.762 86.861" style="fill:none;fill-rule:nonzero;stroke:#2f2f2f;stroke-opacity:0.7;stroke-width:0.57px;"/>
  <path d="M 728.762 147.356 L 671.481 147.356 C 668.094 147.356 664.872 147.381 662.639 147.424 L 617.489 148.289 C 615.257 148.332 612.034 148.356 608.647 148.356 L 478.762 148.356" style="fill:none;fill-rule:nonzero;stroke:#2f2f2f;stroke-opacity:0.7;stroke-width:0.42px;"/>
  <path d="M 488.812 56 L 488.812 58 C 488.812 60.208 487.02 62 484.812 62 L 462.812 62 C 460.604 62 458.812 60.208 458.812 58 L 458.812 56 C 458.812 53.792 460.604 52 462.812 52 L 484.812 52 C 487.02 52 488.812 53.792 488.812 56 Z" style="fill:#141414;"/>
  <path d="M 488.062 56 L 488.062 58 C 488.062 59.794 486.606 61.25 484.812 61.25 L 462.812 61.25 C 461.018 61.25 459.562 59.794 459.562 58 L 459.562 56 C 459.562 54.206 461.018 52.75 462.812 52.75 L 484.812 52.75 C 486.606 52.75 488.062 54.206 488.062 56 Z" style="fill:none;stroke:url(#_Linear1);stroke-width:1.5px;"/>
  <path d="M 488.812 86 L 488.812 88 C 488.812 90.208 487.02 92 484.812 92 L 462.812 92 C 460.604 92 458.812 90.208 458.812 88 L 458.812 86 C 458.812 83.792 460.604 82 462.812 82 L 484.812 82 C 487.02 82 488.812 83.792 488.812 86 Z" style="fill:#141414;"/>
  <path d="M 488.062 86 L 488.062 88 C 488.062 89.794 486.606 91.25 484.812 91.25 L 462.812 91.25 C 461.018 91.25 459.562 89.794 459.562 88 L 459.562 86 C 459.562 84.206 461.018 82.75 462.812 82.75 L 484.812 82.75 C 486.606 82.75 488.062 84.206 488.062 86 Z" style="fill:none;stroke:url(#_Linear2);stroke-width:1.5px;"/>
  <path d="M 488.812 116 L 488.812 118 C 488.812 120.208 487.02 122 484.812 122 L 462.812 122 C 460.604 122 458.812 120.208 458.812 118 L 458.812 116 C 458.812 113.792 460.604 112 462.812 112 L 484.812 112 C 487.02 112 488.812 113.792 488.812 116 Z" style="fill:#141414;"/>
  <path d="M 488.062 116 L 488.062 118 C 488.062 119.794 486.606 121.25 484.812 121.25 L 462.812 121.25 C 461.018 121.25 459.562 119.794 459.562 118 L 459.562 116 C 459.562 114.206 461.018 112.75 462.812 112.75 L 484.812 112.75 C 486.606 112.75 488.062 114.206 488.062 116 Z" style="fill:none;stroke:url(#_Linear3);stroke-width:1.5px;"/>
  <path d="M 488.812 146 L 488.812 148 C 488.812 150.208 487.02 152 484.812 152 L 462.812 152 C 460.604 152 458.812 150.208 458.812 148 L 458.812 146 C 458.812 143.792 460.604 142 462.812 142 L 484.812 142 C 487.02 142 488.812 143.792 488.812 146 Z" style="fill:#141414;"/>
  <path d="M 488.062 146 L 488.062 148 C 488.062 149.794 486.606 151.25 484.812 151.25 L 462.812 151.25 C 461.018 151.25 459.562 149.794 459.562 148 L 459.562 146 C 459.562 144.206 461.018 142.75 462.812 142.75 L 484.812 142.75 C 486.606 142.75 488.062 144.206 488.062 146 Z" style="fill:none;stroke:url(#_Linear4);stroke-width:1.5px;"/>
  <path d="M 393.804 224 L 391.804 224 C 389.596 224 387.804 222.208 387.804 220 L 387.804 198 C 387.804 195.792 389.596 194 391.804 194 L 393.804 194 C 396.012 194 397.804 195.792 397.804 198 L 397.804 220 C 397.804 222.208 396.012 224 393.804 224 Z" style="fill:#141414;"/>
  <path d="M 393.804 223.25 L 391.804 223.25 C 390.01 223.25 388.554 221.794 388.554 220 L 388.554 198 C 388.554 196.206 390.01 194.75 391.804 194.75 L 393.804 194.75 C 395.598 194.75 397.054 196.206 397.054 198 L 397.054 220 C 397.054 221.794 395.598 223.25 393.804 223.25 Z" style="fill:none;stroke:url(#_Linear5);stroke-width:1.5px;"/>
  <path d="M 422.152 224 L 420.152 224 C 417.944 224 416.152 222.208 416.152 220 L 416.152 198 C 416.152 195.792 417.944 194 420.152 194 L 422.152 194 C 424.36 194 426.152 195.792 426.152 198 L 426.152 220 C 426.152 222.208 424.36 224 422.152 224 Z" style="fill:#141414;"/>
  <path d="M 420.732 223.49 L 418.732 223.49 C 416.938 223.49 415.482 222.034 415.482 220.24 L 415.482 198.24 C 415.482 196.446 416.938 194.99 418.732 194.99 L 420.732 194.99 C 422.526 194.99 423.982 196.446 423.982 198.24 L 423.982 220.24 C 423.982 222.034 422.526 223.49 420.732 223.49 Z" style="fill:none;stroke:url(#_Linear6);stroke-width:1.5px;"/>
  <path d="M 363.804 224 L 361.804 224 C 359.596 224 357.804 222.208 357.804 220 L 357.804 198 C 357.804 195.792 359.596 194 361.804 194 L 363.804 194 C 366.012 194 367.804 195.792 367.804 198 L 367.804 220 C 367.804 222.208 366.012 224 363.804 224 Z" style="fill:#141414;"/>
  <path d="M 363.804 223.25 L 361.804 223.25 C 360.01 223.25 358.554 221.794 358.554 220 L 358.554 198 C 358.554 196.206 360.01 194.75 361.804 194.75 L 363.804 194.75 C 365.598 194.75 367.054 196.206 367.054 198 L 367.054 220 C 367.054 221.794 365.598 223.25 363.804 223.25 Z" style="fill:none;stroke:url(#_Linear7);stroke-width:1.5px;"/>
  <path d="M 333.804 224 L 331.804 224 C 329.596 224 327.804 222.208 327.804 220 L 327.804 198 C 327.804 195.792 329.596 194 331.804 194 L 333.804 194 C 336.012 194 337.804 195.792 337.804 198 L 337.804 220 C 337.804 222.208 336.012 224 333.804 224 Z" style="fill:#141414;"/>
  <path d="M 333.804 223.25 L 331.804 223.25 C 330.01 223.25 328.554 221.794 328.554 220 L 328.554 198 C 328.554 196.206 330.01 194.75 331.804 194.75 L 333.804 194.75 C 335.598 194.75 337.054 196.206 337.054 198 L 337.054 220 C 337.054 221.794 335.598 223.25 333.804 223.25 Z" style="fill:none;stroke:url(#_Linear8);stroke-width:1.5px;"/>
  <path d="M 303.804 224 L 301.804 224 C 299.596 224 297.804 222.208 297.804 220 L 297.804 198 C 297.804 195.792 299.596 194 301.804 194 L 303.804 194 C 306.012 194 307.804 195.792 307.804 198 L 307.804 220 C 307.804 222.208 306.012 224 303.804 224 Z" style="fill:#141414;"/>
  <path d="M 303.804 223.25 L 301.804 223.25 C 300.01 223.25 298.554 221.794 298.554 220 L 298.554 198 C 298.554 196.206 300.01 194.75 301.804 194.75 L 303.804 194.75 C 305.598 194.75 307.054 196.206 307.054 198 L 307.054 220 C 307.054 221.794 305.598 223.25 303.804 223.25 Z" style="fill:none;stroke:url(#_Linear9);stroke-width:1.5px;"/>
  <path d="M 240.812 56 L 240.812 58 C 240.812 60.208 242.604 62 244.812 62 L 266.812 62 C 269.02 62 270.812 60.208 270.812 58 L 270.812 56 C 270.812 53.792 269.02 52 266.812 52 L 244.812 52 C 242.604 52 240.812 53.792 240.812 56 Z" style="fill:#141414;"/>
  <path d="M 241.562 56 L 241.562 58 C 241.562 59.794 243.018 61.25 244.812 61.25 L 266.812 61.25 C 268.606 61.25 270.062 59.794 270.062 58 L 270.062 56 C 270.062 54.206 268.606 52.75 266.812 52.75 L 244.812 52.75 C 243.018 52.75 241.562 54.206 241.562 56 Z" style="fill:none;stroke:url(#_Linear10);stroke-width:1.5px;"/>
  <path d="M 240.812 86 L 240.812 88 C 240.812 90.208 242.604 92 244.812 92 L 266.812 92 C 269.02 92 270.812 90.208 270.812 88 L 270.812 86 C 270.812 83.792 269.02 82 266.812 82 L 244.812 82 C 242.604 82 240.812 83.792 240.812 86 Z" style="fill:#141414;"/>
  <path d="M 241.562 86 L 241.562 88 C 241.562 89.794 243.018 91.25 244.812 91.25 L 266.812 91.25 C 268.606 91.25 270.062 89.794 270.062 88 L 270.062 86 C 270.062 84.206 268.606 82.75 266.812 82.75 L 244.812 82.75 C 243.018 82.75 241.562 84.206 241.562 86 Z" style="fill:none;stroke:url(#_Linear11);stroke-width:1.5px;"/>
  <path d="M 240.812 116 L 240.812 118 C 240.812 120.208 242.604 122 244.812 122 L 266.812 122 C 269.02 122 270.812 120.208 270.812 118 L 270.812 116 C 270.812 113.792 269.02 112 266.812 112 L 244.812 112 C 242.604 112 240.812 113.792 240.812 116 Z" style="fill:#141414;"/>
  <path d="M 241.562 116 L 241.562 118 C 241.562 119.794 243.018 121.25 244.812 121.25 L 266.812 121.25 C 268.606 121.25 270.062 119.794 270.062 118 L 270.062 116 C 270.062 114.206 268.606 112.75 266.812 112.75 L 244.812 112.75 C 243.018 112.75 241.562 114.206 241.562 116 Z" style="fill:none;stroke:url(#_Linear12);stroke-width:1.5px;"/>
  <path d="M 240.812 146 L 240.812 148 C 240.812 150.208 242.604 152 244.812 152 L 266.812 152 C 269.02 152 270.812 150.208 270.812 148 L 270.812 146 C 270.812 143.792 269.02 142 266.812 142 L 244.812 142 C 242.604 142 240.812 143.792 240.812 146 Z" style="fill:#141414;"/>
  <path d="M 241.562 146 L 241.562 148 C 241.562 149.794 243.018 151.25 244.812 151.25 L 266.812 151.25 C 268.606 151.25 270.062 149.794 270.062 148 L 270.062 146 C 270.062 144.206 268.606 142.75 266.812 142.75 L 244.812 142.75 C 243.018 142.75 241.562 144.206 241.562 146 Z" style="fill:none;stroke:url(#_Linear13);stroke-width:1.5px;"/>
  <g transform="matrix(1, 0, 0, 1, -595.187927, -74)">
    <path d="M1060,124l0,100c0,27.596 -22.404,50 -50,50l-100,0c-27.596,0 -50,-22.404 -50,-50l0,-100c0,-27.596 22.404,-50 50,-50l100,0c27.596,0 50,22.404 50,50Z" style="fill:#141414;"/>
    <path d="M1059,124l0,100c0,27.044 -21.956,49 -49,49l-100,0c-27.044,0 -49,-21.956 -49,-49l0,-100c0,-27.044 21.956,-49 49,-49l100,0c27.044,0 49,21.956 49,49Z" style="fill:none;stroke:#3c3c3c;stroke-opacity:0.3;stroke-width:2px;"/>
  </g>
  <path d="M 311.401 144 L 334.217 57.2 L 362.737 57.2 L 385.553 144 L 368.689 144 L 363.977 124.904 L 332.977 124.904 L 328.265 144 L 311.401 144 Z M 336.821 109.776 L 360.133 109.776 L 349.593 67.492 L 347.361 67.492 L 336.821 109.776 Z M 395.943 144 L 395.943 57.2 L 412.312 57.2 L 412.312 144 L 395.943 144 Z" style="fill:url(#_Linear14);fill-rule:nonzero;"/>
  <g transform="matrix(1, 0, 0, 1, -595.187927, -74)">
    <path d="M828.453,497.61l0,40c0,11.038 -8.962,20 -20,20l-40,-0c-11.038,-0 -20,-8.962 -20,-20l0,-40c0,-11.038 8.962,-20 20,-20l40,-0c11.038,-0 20,8.962 20,20Z" style="fill:#141414;"/>
    <path d="M913.531,496.879l-0,40c-0,11.038 -8.962,20 -20,20l-40,0c-11.038,0 -20,-8.962 -20,-20l-0,-40c-0,-11.038 8.962,-20 20,-20l40,0c11.038,0 20,8.962 20,20Z" style="fill:#141414;"/>
    <path d="M998.608,497.223l0,40c0,11.038 -8.962,20 -20,20l-40,0c-11.038,0 -20,-8.962 -20,-20l0,-40c0,-11.038 8.962,-20 20,-20l40,0c11.038,0 20,8.962 20,20Z" style="fill:#141414;"/>
    <path d="M1083.69,498.688l-0,40c-0,11.038 -8.962,20 -20,20l-40,0c-11.038,0 -20,-8.962 -20,-20l-0,-40c-0,-11.038 8.962,-20 20,-20l40,0c11.038,0 20,8.962 20,20Z" style="fill:#141414;"/>
    <path d="M1168.76,497.61l0,40c0,11.038 -8.962,20 -20,20l-40,-0c-11.038,-0 -20,-8.962 -20,-20l0,-40c0,-11.038 8.962,-20 20,-20l40,-0c11.038,-0 20,8.962 20,20Z" style="fill:#141414;"/>
  </g>
  <g transform="matrix(1, 0, 0, 1, -595.187927, -74)">
    <g opacity="0.9">
      <path d="M926.811,322l0,40" style="fill:none;fill-rule:nonzero;stroke:url(#_Linear15);stroke-width:7px;stroke-linecap:round;"/>
    </g>
    <path d="M929.646,322l-0,40" style="fill:none;fill-rule:nonzero;stroke:url(#_Linear16);stroke-width:2px;stroke-linecap:round;"/>
  </g>
  <clipPath id="_clip17">
    <rect x="1007.57" y="483.235" width="71.45" height="71.45"/>
  </clipPath>
  <g clip-path="url(#_clip17)" transform="matrix(1, 0, 0, 1, -595.187927, -74)">
    <g>
      <g>
        <path d="M1043.34,483.235l-29.33,12.218l-0,20.113c-0,18.077 12.504,35.011 29.33,39.298c16.826,-4.109 29.33,-21.042 29.33,-39.119l0,-20.292l-29.33,-12.218Zm0,13.54c5.154,0.001 9.393,4.242 9.393,9.396c0,5.154 -4.241,9.395 -9.395,9.395c-5.154,0 -9.396,-4.241 -9.396,-9.395c0,-2.492 0.991,-4.884 2.753,-6.645c1.762,-1.761 4.154,-2.752 6.645,-2.751Zm14.683,39.833c-3.743,4.872 -8.857,8.518 -14.683,10.468c-5.826,-1.95 -10.94,-5.596 -14.683,-10.468l0,-8.038c0,-5.966 9.789,-9.003 14.683,-9.003c4.894,0 14.683,3.037 14.683,9.003l-0,8.038Z" style="fill:#00f0ff;fill-rule:nonzero;"/>
        <path d="M1043.34,483.235l0,13.54c5.154,-0 9.396,4.241 9.396,9.396c-0,5.154 -4.242,9.395 -9.396,9.395l0,4.001c4.894,0 14.683,3.037 14.683,9.003l-0,8.038c-3.743,4.872 -8.857,8.518 -14.683,10.468l0,7.609c16.826,-4.108 29.33,-21.042 29.33,-39.119l0,-20.113l-29.33,-12.218Z" style="fill:#007bff;fill-rule:nonzero;"/>
      </g>
    </g>
  </g>
  <g id="vulnerability" transform="matrix(1, 0, 0, 1, -595.187927, -74)">
    <g>
      <path d="M961.071,554.109l-5.954,-0l-0,-5.955c-13.993,-1.488 -25.306,-12.503 -26.794,-26.793l-5.954,-0l-0,-5.954l5.954,-0c1.488,-13.993 12.504,-25.306 26.794,-26.794l-0,-5.954l5.954,-0l-0,5.954c13.992,1.488 25.305,12.504 26.793,26.794l5.955,-0l-0,5.954l-5.955,-0c-1.488,13.992 -12.503,25.305 -26.793,26.793l-0,5.955Zm-0,-18.161l-0,5.955c10.717,-1.489 19.351,-9.825 20.542,-20.542l-5.955,-0c-1.19,7.442 -7.145,13.397 -14.587,14.587Zm-26.496,-14.587c1.488,10.717 9.824,19.351 20.542,20.542l-0,-5.955c-7.443,-1.19 -13.397,-7.145 -14.588,-14.587l-5.954,-0Zm26.496,-0l-0,8.633c4.168,-1.191 7.442,-4.465 8.633,-8.633l-8.633,-0Zm-14.588,-0c1.191,4.168 4.466,7.442 8.634,8.633l-0,-8.633l-8.634,-0Zm29.175,-5.954l5.955,-0c-1.191,-10.718 -9.825,-19.351 -20.542,-20.542l-0,5.954c7.442,1.191 13.397,7.145 14.587,14.588Zm-14.587,-0l8.633,-0c-1.191,-4.168 -4.465,-7.443 -8.633,-8.634l-0,8.634Zm-14.588,-0l8.634,-0l-0,-8.634c-4.168,1.191 -7.443,4.466 -8.634,8.634Zm-11.908,-0l5.954,-0c1.191,-7.443 7.145,-13.397 14.588,-14.588l-0,-5.954c-10.718,1.191 -19.351,9.824 -20.542,20.542Z" style="fill:#00f0ff;fill-rule:nonzero;"/>
    </g>
  </g>
  <clipPath id="_clip18">
    <rect x="839.02" y="482.262" width="71.45" height="71.45"/>
  </clipPath>
  <g clip-path="url(#_clip18)" transform="matrix(1, 0, 0, 1, -595.187927, -74)">
    <path d="M892.276,529.774c9.502,-0 17.232,-7.731 17.232,-17.233c-0,-9.501 -7.731,-17.232 -17.232,-17.232c-0.665,0 -1.328,0.038 -1.985,0.114c-0.792,-3.27 -2.531,-6.249 -5.041,-8.573c-3.194,-2.958 -7.351,-4.588 -11.706,-4.588c-8.013,0 -14.843,5.472 -16.722,13.052c-9.322,0.209 -16.84,7.857 -16.84,17.227c0,9.503 7.731,17.233 17.233,17.233l8.718,-0l0,6.72l-10.005,0c-0.856,-1.541 -2.5,-2.587 -4.385,-2.587c-2.764,0 -5.012,2.249 -5.012,5.013c-0,2.764 2.248,5.012 5.012,5.012c1.885,0 3.529,-1.046 4.385,-2.587l12.431,0c1.339,0 2.425,-1.086 2.425,-2.425l-0,-9.146l1.536,-0l-0,14.542c-1.541,0.855 -2.587,2.5 -2.587,4.384c-0,2.764 2.248,5.012 5.012,5.012c2.764,0 5.012,-2.248 5.012,-5.012c0,-1.884 -1.045,-3.529 -2.587,-4.384l0,-14.542l1.536,-0l0,9.377c0,1.339 1.086,2.425 2.426,2.425l12.568,0c0.887,1.414 2.459,2.356 4.247,2.356c2.764,-0 5.013,-2.249 5.013,-5.012c-0,-2.764 -2.249,-5.013 -5.013,-5.013c-1.977,0 -3.69,1.151 -4.505,2.818l-9.885,0l0,-6.951l8.719,-0Z" style="fill:#007bff;fill-rule:nonzero;"/>
    <ellipse cx="851.421" cy="538.939" rx="4.018" ry="4.069" style="fill:#00f0ff;stroke:#000;stroke-opacity:0;stroke-width:0.16px;"/>
    <ellipse cx="874.695" cy="548.824" rx="4.018" ry="4.069" style="fill:#00f0ff;stroke:#000;stroke-opacity:0;stroke-width:0.16px;"/>
    <ellipse cx="897.968" cy="539.045" rx="4.018" ry="4.069" style="fill:#00f0ff;stroke:#000;stroke-opacity:0;stroke-width:0.16px;"/>
  </g>
  <clipPath id="_clip19">
    <rect x="751.796" y="481.674" width="71.45" height="71.45"/>
  </clipPath>
  <g clip-path="url(#_clip19)" transform="matrix(1, 0, 0, 1, -595.187927, -74)">
    <g>
      <path d="M805.537,500.126c-0.684,-0 -1.365,0.038 -2.04,0.116c-0.814,-3.36 -2.601,-6.421 -5.181,-8.81c-3.282,-3.04 -7.554,-4.714 -12.03,-4.714c-8.235,-0 -15.254,5.623 -17.185,13.412c-9.579,0.215 -17.305,8.075 -17.305,17.704c-0,9.766 7.944,17.71 17.709,17.71l3.308,0c0.916,1.465 1.933,2.864 3.05,4.19c4.377,5.199 8.776,7.523 9.26,7.77c0.739,0.377 1.568,0.576 2.398,0.576c0.825,-0 1.65,-0.197 2.382,-0.569c0.488,-0.246 4.892,-2.558 9.274,-7.756c1.122,-1.332 2.145,-2.739 3.065,-4.211l3.295,0c9.765,0 17.709,-7.944 17.709,-17.71c-0,-9.764 -7.944,-17.708 -17.709,-17.708Zm-3.338,28.136c-1.342,3.418 -3.214,6.564 -5.563,9.351c-4.02,4.769 -8.062,6.846 -8.232,6.932c-0.277,0.141 -0.58,0.211 -0.883,0.211c-0.305,0 -0.609,-0.071 -0.888,-0.213c-0.17,-0.086 -4.209,-2.175 -8.228,-6.949c-2.349,-2.79 -4.22,-5.936 -5.562,-9.351c-1.67,-4.25 -2.517,-8.92 -2.517,-13.883c0,-0.879 0.587,-1.651 1.435,-1.885c10.326,-2.855 14.456,-6.281 14.496,-6.315c0.735,-0.622 1.798,-0.629 2.527,0c0.035,0.029 4.291,3.493 14.497,6.315c0.847,0.234 1.434,1.006 1.434,1.885c0,4.973 -0.846,9.651 -2.516,13.902Z" style="fill:#007bff;fill-rule:nonzero;"/>
      <path d="M781.398,535.074c2.444,2.904 4.864,4.655 6.122,5.457l0.001,-30.47c-1.926,1.271 -6.135,3.648 -13.256,5.765c0.275,7.479 2.671,13.949 7.133,19.248Z" style="fill:#00f0ff;fill-rule:nonzero;"/>
    </g>
  </g>
  <clipPath id="_clip20">
    <rect x="1093.5" y="483.242" width="71.45" height="71.45"/>
  </clipPath>
  <g clip-path="url(#_clip20)" transform="matrix(1, 0, 0, 1, -595.187927, -74)">
    <path d="M1129.34,492.173c-11.687,0 -23.396,4.171 -32.135,12.544l-2.215,2.148c-1.777,1.688 -1.831,4.515 -0.138,6.297c0.018,0.018 0.053,0.049 0.071,0.067l12.785,12.789c0.21,0.331 0.456,0.643 0.768,0.925c1.813,1.656 4.64,1.513 6.315,-0.317l2.215,-2.443c5.702,-6.261 18.577,-6.681 24.663,-0l2.233,2.443c1.661,1.83 4.484,1.973 6.319,0.317c0.295,-0.282 0.522,-0.576 0.732,-0.911c0,-0 12.852,-12.852 12.87,-12.87c1.693,-1.782 1.644,-4.609 -0.138,-6.297l-2.215,-2.148c-8.739,-8.373 -20.444,-12.544 -32.13,-12.544Zm-0,9.11c9.034,0 18.054,2.965 24.837,8.896l-6.926,6.921c-4.934,-4.778 -11.53,-7.078 -18.054,-7.029c-6.52,0.054 -13.013,2.443 -17.756,7.047l-6.944,-6.939c6.788,-5.931 15.804,-8.896 24.843,-8.896Zm-0,26.651c-2.287,-0 -4.573,0.875 -6.315,2.617c-3.492,3.487 -3.492,9.141 0,12.629c3.488,3.492 9.141,3.492 12.629,-0c3.488,-3.488 3.488,-9.142 0,-12.629c-1.746,-1.742 -4.032,-2.617 -6.314,-2.617Z" style="fill:#007bff;fill-rule:nonzero;"/>
    <path d="M1107.1,502.641c-4.934,-0 -8.931,3.996 -8.931,8.931c0,4.939 3.997,8.931 8.931,8.931c4.935,0 8.932,-3.992 8.932,-8.931c-0,-4.935 -3.997,-8.931 -8.932,-8.931Zm22.328,-0c-4.934,-0 -8.931,3.996 -8.931,8.931c0,4.939 3.997,8.931 8.931,8.931c4.935,0 8.932,-3.992 8.932,-8.931c-0,-4.935 -3.997,-8.931 -8.932,-8.931Zm22.329,-0c-4.935,-0 -8.932,3.996 -8.932,8.931c0,4.939 3.997,8.931 8.932,8.931c4.934,0 8.931,-3.992 8.931,-8.931c-0,-4.935 -3.997,-8.931 -8.931,-8.931Z" style="fill:#00f0ff;fill-rule:nonzero;"/>
  </g>
  <defs>
    <linearGradient id="_Linear1" x1="0" y1="0" x2="1" y2="0" gradientUnits="userSpaceOnUse" gradientTransform="matrix(30, 0, 0, 30, 458.812073, 57)">
      <stop offset="0" style="stop-color:#3c3c3c;stop-opacity:0.3"/>
      <stop offset="0.48" style="stop-color:#3c3c3c;stop-opacity:0.3"/>
      <stop offset="1" style="stop-color:#a2a2a2;stop-opacity:0.3"/>
    </linearGradient>
    <linearGradient id="_Linear2" x1="0" y1="0" x2="1" y2="0" gradientUnits="userSpaceOnUse" gradientTransform="matrix(30, 0, 0, 30, 458.812073, 87)">
      <stop offset="0" style="stop-color:#3c3c3c;stop-opacity:0.3"/>
      <stop offset="0.48" style="stop-color:#3c3c3c;stop-opacity:0.3"/>
      <stop offset="1" style="stop-color:#a2a2a2;stop-opacity:0.3"/>
    </linearGradient>
    <linearGradient id="_Linear3" x1="0" y1="0" x2="1" y2="0" gradientUnits="userSpaceOnUse" gradientTransform="matrix(30, 0, 0, 30, 458.812073, 117)">
      <stop offset="0" style="stop-color:#3c3c3c;stop-opacity:0.3"/>
      <stop offset="0.48" style="stop-color:#3c3c3c;stop-opacity:0.3"/>
      <stop offset="1" style="stop-color:#a2a2a2;stop-opacity:0.3"/>
    </linearGradient>
    <linearGradient id="_Linear4" x1="0" y1="0" x2="1" y2="0" gradientUnits="userSpaceOnUse" gradientTransform="matrix(30, 0, 0, 30, 458.812073, 147)">
      <stop offset="0" style="stop-color:#3c3c3c;stop-opacity:0.3"/>
      <stop offset="0.48" style="stop-color:#3c3c3c;stop-opacity:0.3"/>
      <stop offset="1" style="stop-color:#a2a2a2;stop-opacity:0.3"/>
    </linearGradient>
    <linearGradient id="_Linear5" x1="0" y1="0" x2="1" y2="0" gradientUnits="userSpaceOnUse" gradientTransform="matrix(0, 30, -30, 0, 392.804077, 195.5)">
      <stop offset="0" style="stop-color:#3c3c3c;stop-opacity:0.3"/>
      <stop offset="0.48" style="stop-color:#3c3c3c;stop-opacity:0.3"/>
      <stop offset="1" style="stop-color:#a2a2a2;stop-opacity:0.3"/>
    </linearGradient>
    <linearGradient id="_Linear6" x1="0" y1="0" x2="1" y2="0" gradientUnits="userSpaceOnUse" gradientTransform="matrix(0, 30, -30, 0, 419.732056, 195.73999)">
      <stop offset="0" style="stop-color:#3c3c3c;stop-opacity:0.3"/>
      <stop offset="0.48" style="stop-color:#3c3c3c;stop-opacity:0.3"/>
      <stop offset="1" style="stop-color:#a2a2a2;stop-opacity:0.3"/>
    </linearGradient>
    <linearGradient id="_Linear7" x1="0" y1="0" x2="1" y2="0" gradientUnits="userSpaceOnUse" gradientTransform="matrix(0, 30, -30, 0, 362.804077, 195.5)">
      <stop offset="0" style="stop-color:#3c3c3c;stop-opacity:0.3"/>
      <stop offset="0.48" style="stop-color:#3c3c3c;stop-opacity:0.3"/>
      <stop offset="1" style="stop-color:#a2a2a2;stop-opacity:0.3"/>
    </linearGradient>
    <linearGradient id="_Linear8" x1="0" y1="0" x2="1" y2="0" gradientUnits="userSpaceOnUse" gradientTransform="matrix(0, 30, -30, 0, 332.804077, 195.5)">
      <stop offset="0" style="stop-color:#3c3c3c;stop-opacity:0.3"/>
      <stop offset="0.48" style="stop-color:#3c3c3c;stop-opacity:0.3"/>
      <stop offset="1" style="stop-color:#a2a2a2;stop-opacity:0.3"/>
    </linearGradient>
    <linearGradient id="_Linear9" x1="0" y1="0" x2="1" y2="0" gradientUnits="userSpaceOnUse" gradientTransform="matrix(0, 30, -30, 0, 302.804077, 195.5)">
      <stop offset="0" style="stop-color:#3c3c3c;stop-opacity:0.3"/>
      <stop offset="0.48" style="stop-color:#3c3c3c;stop-opacity:0.3"/>
      <stop offset="1" style="stop-color:#a2a2a2;stop-opacity:0.3"/>
    </linearGradient>
    <linearGradient id="_Linear10" x1="0" y1="0" x2="1" y2="0" gradientUnits="userSpaceOnUse" gradientTransform="matrix(-30, 0, 0, -30, 269.312073, 57)">
      <stop offset="0" style="stop-color:#3c3c3c;stop-opacity:0.3"/>
      <stop offset="0.48" style="stop-color:#3c3c3c;stop-opacity:0.3"/>
      <stop offset="1" style="stop-color:#a2a2a2;stop-opacity:0.3"/>
    </linearGradient>
    <linearGradient id="_Linear11" x1="0" y1="0" x2="1" y2="0" gradientUnits="userSpaceOnUse" gradientTransform="matrix(-30, 0, 0, -30, 269.312073, 87)">
      <stop offset="0" style="stop-color:#3c3c3c;stop-opacity:0.3"/>
      <stop offset="0.48" style="stop-color:#3c3c3c;stop-opacity:0.3"/>
      <stop offset="1" style="stop-color:#a2a2a2;stop-opacity:0.3"/>
    </linearGradient>
    <linearGradient id="_Linear12" x1="0" y1="0" x2="1" y2="0" gradientUnits="userSpaceOnUse" gradientTransform="matrix(-30, 0, 0, -30, 269.312073, 117)">
      <stop offset="0" style="stop-color:#3c3c3c;stop-opacity:0.3"/>
      <stop offset="0.48" style="stop-color:#3c3c3c;stop-opacity:0.3"/>
      <stop offset="1" style="stop-color:#a2a2a2;stop-opacity:0.3"/>
    </linearGradient>
    <linearGradient id="_Linear13" x1="0" y1="0" x2="1" y2="0" gradientUnits="userSpaceOnUse" gradientTransform="matrix(-30, 0, 0, -30, 269.312073, 147)">
      <stop offset="0" style="stop-color:#3c3c3c;stop-opacity:0.3"/>
      <stop offset="0.48" style="stop-color:#3c3c3c;stop-opacity:0.3"/>
      <stop offset="1" style="stop-color:#a2a2a2;stop-opacity:0.3"/>
    </linearGradient>
    <linearGradient id="_Linear14" x1="0" y1="0" x2="1" y2="0" gradientUnits="userSpaceOnUse" gradientTransform="matrix(0, 87, -87, 0, 364.812073, 57)">
      <stop offset="0" style="stop-color:#fff;stop-opacity:1"/>
      <stop offset="1" style="stop-color:#999;stop-opacity:0.1"/>
    </linearGradient>
    <linearGradient id="_Linear15" x1="0" y1="0" x2="1" y2="0" gradientUnits="userSpaceOnUse" gradientTransform="matrix(1,0,0,1,926.811,342)">
      <stop offset="0" style="stop-color:#ab33f5;stop-opacity:1"/>
      <stop offset="1" style="stop-color:#ff6914;stop-opacity:1"/>
    </linearGradient>
    <linearGradient id="_Linear16" x1="0" y1="0" x2="1" y2="0" gradientUnits="userSpaceOnUse" gradientTransform="matrix(1,0,0,1,929.646,342)">
      <stop offset="0" style="stop-color:#ab33f5;stop-opacity:0.9"/>
      <stop offset="1" style="stop-color:#ff6914;stop-opacity:0.9"/>
    </linearGradient>
  </defs>
</svg>