<?xml version="1.0" encoding="utf-8"?>
<svg width="100%" height="100%" viewBox="0 0 1920 445" version="1.1" xmlns="http://www.w3.org/2000/svg" style="fill-rule:evenodd;clip-rule:evenodd;">
  <path d="M 897.061 75.685 L 897.453 294.473 C 897.47 303.993 890.134 313.029 877.434 319.128 L 810.575 351.242 C 797.875 357.342 790.539 366.377 790.556 375.897 L 790.687 448.952" style="fill: none; fill-rule: nonzero; stroke: rgb(47, 47, 47); stroke-opacity: 0.7; stroke-width: 2.42px;"/>
  <path d="M 927.652 79.223 L 928.044 298.011 C 928.061 307.531 924.401 316.562 918.057 322.654 L 884.657 354.73 C 878.313 360.822 874.653 369.853 874.67 379.373 L 874.801 452.428" style="fill: none; fill-rule: nonzero; stroke: rgb(47, 47, 47); stroke-opacity: 0.7; stroke-width: 1.72px;"/>
  <path d="M 988.221 77.801 L 988.614 296.59 C 988.631 306.11 992.442 315.132 999.013 321.209 L 1033.61 353.207 C 1040.18 359.284 1043.99 368.306 1044.01 377.826 L 1044.14 450.881" style="fill: none; fill-rule: nonzero; stroke: rgb(47, 47, 47); stroke-opacity: 0.7; stroke-width: 1.74px;"/>
  <path d="M 956.995 79 L 957.387 297.788 C 957.405 307.308 957.404 316.335 957.386 322.42 L 957.291 354.458 C 957.273 360.543 957.273 369.57 957.29 379.09 L 957.421 452.144" style="fill: none; fill-rule: nonzero; stroke: rgb(47, 47, 47); stroke-opacity: 0.7; stroke-width: 1.41px;"/>
  <path d="M 1016.07 73.501 L 1016.46 292.289 C 1016.48 301.809 1024.25 310.827 1037.67 316.896 L 1108.3 348.853 C 1121.71 354.922 1129.48 363.94 1129.5 373.46 L 1129.63 446.514" style="fill: none; fill-rule: nonzero; stroke: rgb(47, 47, 47); stroke-opacity: 0.7; stroke-width: 2.51px;"/>
  <path d="M 1069.5 126.5 L 1342.73 126.5 C 1354.62 126.5 1365.9 121.211 1373.5 112.068 L 1413.5 63.932 C 1421.1 54.789 1432.38 49.5 1444.27 49.5 L 1535.5 49.5" style="fill:none;fill-rule:nonzero;stroke:#2f2f2f;stroke-opacity:0.7;stroke-width:2px;"/>
  <path d="M 1069.5 187 L 1276.36 187 C 1286.72 187 1296.66 191.014 1304.12 198.197 L 1418.38 308.303 C 1425.84 315.486 1435.78 319.5 1446.14 319.5 L 1535.5 319.5" style="fill:none;fill-rule:nonzero;stroke:#2f2f2f;stroke-opacity:0.7;stroke-width:2px;"/>
  <path d="M 1069.5 157 L 1286.83 157 C 1296.9 157 1306.61 160.803 1314 167.65 L 1358.5 208.85 C 1365.89 215.697 1375.6 219.5 1385.67 219.5 L 1685.5 219.5" style="fill:none;fill-rule:nonzero;stroke:#2f2f2f;stroke-opacity:0.7;stroke-width:2px;"/>
  <path d="M 1069.5 217 L 1264.37 217 C 1275.89 217 1286.86 221.969 1294.45 230.634 L 1448.05 405.866 C 1455.64 414.531 1466.61 419.5 1478.13 419.5 L 1920 419.5" style="fill:none;fill-rule:nonzero;stroke:#2f2f2f;stroke-opacity:0.7;stroke-width:2px;"/>
  <path d="M 1511 49 L 1511 51 C 1511 53.208 1512.79 55 1515 55 L 1537 55 C 1539.21 55 1541 53.208 1541 51 L 1541 49 C 1541 46.792 1539.21 45 1537 45 L 1515 45 C 1512.79 45 1511 46.792 1511 49 Z" style="fill:#141414;"/>
  <path d="M 1511.75 49 L 1511.75 51 C 1511.75 52.794 1513.21 54.25 1515 54.25 L 1537 54.25 C 1538.79 54.25 1540.25 52.794 1540.25 51 L 1540.25 49 C 1540.25 47.206 1538.79 45.75 1537 45.75 L 1515 45.75 C 1513.21 45.75 1511.75 47.206 1511.75 49 Z" style="fill:none;stroke:url(#_Linear1);stroke-width:1.5px;"/>
  <path d="M 1511 319 L 1511 321 C 1511 323.208 1512.79 325 1515 325 L 1537 325 C 1539.21 325 1541 323.208 1541 321 L 1541 319 C 1541 316.792 1539.21 315 1537 315 L 1515 315 C 1512.79 315 1511 316.792 1511 319 Z" style="fill:#141414;"/>
  <path d="M 1511.75 319 L 1511.75 321 C 1511.75 322.794 1513.21 324.25 1515 324.25 L 1537 324.25 C 1538.79 324.25 1540.25 322.794 1540.25 321 L 1540.25 319 C 1540.25 317.206 1538.79 315.75 1537 315.75 L 1515 315.75 C 1513.21 315.75 1511.75 317.206 1511.75 319 Z" style="fill:none;stroke:url(#_Linear2);stroke-width:1.5px;"/>
  <path d="M 1661 219 L 1661 221 C 1661 223.208 1662.79 225 1665 225 L 1687 225 C 1689.21 225 1691 223.208 1691 221 L 1691 219 C 1691 216.792 1689.21 215 1687 215 L 1665 215 C 1662.79 215 1661 216.792 1661 219 Z" style="fill:#141414;"/>
  <path d="M 1661.75 219 L 1661.75 221 C 1661.75 222.794 1663.21 224.25 1665 224.25 L 1687 224.25 C 1688.79 224.25 1690.25 222.794 1690.25 221 L 1690.25 219 C 1690.25 217.206 1688.79 215.75 1687 215.75 L 1665 215.75 C 1663.21 215.75 1661.75 217.206 1661.75 219 Z" style="fill:none;stroke:url(#_Linear3);stroke-width:1.5px;"/>
  <path d="M 850.5 126.5 L 577.266 126.5 C 565.377 126.5 554.104 121.211 546.505 112.068 L 506.495 63.932 C 498.896 54.789 487.623 49.5 475.734 49.5 L 384.5 49.5" style="fill:none;fill-rule:nonzero;stroke:#2f2f2f;stroke-opacity:0.7;stroke-width:2px;"/>
  <path d="M 850.5 187 L 643.636 187 C 633.284 187 623.335 191.014 615.881 198.197 L 501.619 308.303 C 494.165 315.486 484.216 319.5 473.864 319.5 L 384.5 319.5" style="fill:none;fill-rule:nonzero;stroke:#2f2f2f;stroke-opacity:0.7;stroke-width:2px;"/>
  <path d="M 850.5 157 L 633.175 157 C 623.098 157 613.392 160.803 605.998 167.65 L 561.502 208.85 C 554.108 215.697 544.402 219.5 534.325 219.5 L 234.5 219.5" style="fill:none;fill-rule:nonzero;stroke:#2f2f2f;stroke-opacity:0.7;stroke-width:2px;"/>
  <path d="M 850.5 217 L 655.63 217 C 644.107 217 633.145 221.969 625.55 230.634 L 471.95 405.866 C 464.355 414.531 453.393 419.5 441.87 419.5 L 0 419.5" style="fill:none;fill-rule:nonzero;stroke:#2f2f2f;stroke-opacity:0.7;stroke-width:2px;"/>
  <path d="M 409 49 L 409 51 C 409 53.208 407.208 55 405 55 L 383 55 C 380.792 55 379 53.208 379 51 L 379 49 C 379 46.792 380.792 45 383 45 L 405 45 C 407.208 45 409 46.792 409 49 Z" style="fill:#141414;"/>
  <path d="M 408.25 49 L 408.25 51 C 408.25 52.794 406.794 54.25 405 54.25 L 383 54.25 C 381.206 54.25 379.75 52.794 379.75 51 L 379.75 49 C 379.75 47.206 381.206 45.75 383 45.75 L 405 45.75 C 406.794 45.75 408.25 47.206 408.25 49 Z" style="fill:none;stroke:url(#_Linear4);stroke-width:1.5px;"/>
  <path d="M 409 319 L 409 321 C 409 323.208 407.208 325 405 325 L 383 325 C 380.792 325 379 323.208 379 321 L 379 319 C 379 316.792 380.792 315 383 315 L 405 315 C 407.208 315 409 316.792 409 319 Z" style="fill:#141414;"/>
  <path d="M 408.25 319 L 408.25 321 C 408.25 322.794 406.794 324.25 405 324.25 L 383 324.25 C 381.206 324.25 379.75 322.794 379.75 321 L 379.75 319 C 379.75 317.206 381.206 315.75 383 315.75 L 405 315.75 C 406.794 315.75 408.25 317.206 408.25 319 Z" style="fill:none;stroke:url(#_Linear5);stroke-width:1.5px;"/>
  <path d="M 259 219 L 259 221 C 259 223.208 257.208 225 255 225 L 233 225 C 230.792 225 229 223.208 229 221 L 229 219 C 229 216.792 230.792 215 233 215 L 255 215 C 257.208 215 259 216.792 259 219 Z" style="fill:#141414;"/>
  <path d="M 258.25 219 L 258.25 221 C 258.25 222.794 256.794 224.25 255 224.25 L 233 224.25 C 231.206 224.25 229.75 222.794 229.75 221 L 229.75 219 C 229.75 217.206 231.206 215.75 233 215.75 L 255 215.75 C 256.794 215.75 258.25 217.206 258.25 219 Z" style="fill:none;stroke:url(#_Linear6);stroke-width:1.5px;"/>
  <path d="M 1084 126 L 1084 128 C 1084 130.208 1082.21 132 1080 132 L 1058 132 C 1055.79 132 1054 130.208 1054 128 L 1054 126 C 1054 123.792 1055.79 122 1058 122 L 1080 122 C 1082.21 122 1084 123.792 1084 126 Z" style="fill:#141414;"/>
  <path d="M 1083.25 126 L 1083.25 128 C 1083.25 129.794 1081.79 131.25 1080 131.25 L 1058 131.25 C 1056.21 131.25 1054.75 129.794 1054.75 128 L 1054.75 126 C 1054.75 124.206 1056.21 122.75 1058 122.75 L 1080 122.75 C 1081.79 122.75 1083.25 124.206 1083.25 126 Z" style="fill:none;stroke:url(#_Linear7);stroke-width:1.5px;"/>
  <path d="M 1084 156 L 1084 158 C 1084 160.208 1082.21 162 1080 162 L 1058 162 C 1055.79 162 1054 160.208 1054 158 L 1054 156 C 1054 153.792 1055.79 152 1058 152 L 1080 152 C 1082.21 152 1084 153.792 1084 156 Z" style="fill:#141414;"/>
  <path d="M 1083.25 156 L 1083.25 158 C 1083.25 159.794 1081.79 161.25 1080 161.25 L 1058 161.25 C 1056.21 161.25 1054.75 159.794 1054.75 158 L 1054.75 156 C 1054.75 154.206 1056.21 152.75 1058 152.75 L 1080 152.75 C 1081.79 152.75 1083.25 154.206 1083.25 156 Z" style="fill:none;stroke:url(#_Linear8);stroke-width:1.5px;"/>
  <path d="M 1084 186 L 1084 188 C 1084 190.208 1082.21 192 1080 192 L 1058 192 C 1055.79 192 1054 190.208 1054 188 L 1054 186 C 1054 183.792 1055.79 182 1058 182 L 1080 182 C 1082.21 182 1084 183.792 1084 186 Z" style="fill:#141414;"/>
  <path d="M 1083.25 186 L 1083.25 188 C 1083.25 189.794 1081.79 191.25 1080 191.25 L 1058 191.25 C 1056.21 191.25 1054.75 189.794 1054.75 188 L 1054.75 186 C 1054.75 184.206 1056.21 182.75 1058 182.75 L 1080 182.75 C 1081.79 182.75 1083.25 184.206 1083.25 186 Z" style="fill:none;stroke:url(#_Linear9);stroke-width:1.5px;"/>
  <path d="M 1084 216 L 1084 218 C 1084 220.208 1082.21 222 1080 222 L 1058 222 C 1055.79 222 1054 220.208 1054 218 L 1054 216 C 1054 213.792 1055.79 212 1058 212 L 1080 212 C 1082.21 212 1084 213.792 1084 216 Z" style="fill:#141414;"/>
  <path d="M 1083.25 216 L 1083.25 218 C 1083.25 219.794 1081.79 221.25 1080 221.25 L 1058 221.25 C 1056.21 221.25 1054.75 219.794 1054.75 218 L 1054.75 216 C 1054.75 214.206 1056.21 212.75 1058 212.75 L 1080 212.75 C 1081.79 212.75 1083.25 214.206 1083.25 216 Z" style="fill:none;stroke:url(#_Linear10);stroke-width:1.5px;"/>
  <path d="M 988.992 294 L 986.992 294 C 984.784 294 982.992 292.208 982.992 290 L 982.992 268 C 982.992 265.792 984.784 264 986.992 264 L 988.992 264 C 991.2 264 992.992 265.792 992.992 268 L 992.992 290 C 992.992 292.208 991.2 294 988.992 294 Z" style="fill:#141414;"/>
  <path d="M 988.992 293.25 L 986.992 293.25 C 985.198 293.25 983.742 291.794 983.742 290 L 983.742 268 C 983.742 266.206 985.198 264.75 986.992 264.75 L 988.992 264.75 C 990.786 264.75 992.242 266.206 992.242 268 L 992.242 290 C 992.242 291.794 990.786 293.25 988.992 293.25 Z" style="fill:none;stroke:url(#_Linear11);stroke-width:1.5px;"/>
  <path d="M 1017.34 294 L 1015.34 294 C 1013.13 294 1011.34 292.208 1011.34 290 L 1011.34 268 C 1011.34 265.792 1013.13 264 1015.34 264 L 1017.34 264 C 1019.55 264 1021.34 265.792 1021.34 268 L 1021.34 290 C 1021.34 292.208 1019.55 294 1017.34 294 Z" style="fill:#141414;"/>
  <path d="M 1015.92 293.49 L 1013.92 293.49 C 1012.13 293.49 1010.67 292.034 1010.67 290.24 L 1010.67 268.24 C 1010.67 266.446 1012.13 264.99 1013.92 264.99 L 1015.92 264.99 C 1017.71 264.99 1019.17 266.446 1019.17 268.24 L 1019.17 290.24 C 1019.17 292.034 1017.71 293.49 1015.92 293.49 Z" style="fill:none;stroke:url(#_Linear12);stroke-width:1.5px;"/>
  <path d="M 958.992 294 L 956.992 294 C 954.784 294 952.992 292.208 952.992 290 L 952.992 268 C 952.992 265.792 954.784 264 956.992 264 L 958.992 264 C 961.2 264 962.992 265.792 962.992 268 L 962.992 290 C 962.992 292.208 961.2 294 958.992 294 Z" style="fill:#141414;"/>
  <path d="M 958.992 293.25 L 956.992 293.25 C 955.198 293.25 953.742 291.794 953.742 290 L 953.742 268 C 953.742 266.206 955.198 264.75 956.992 264.75 L 958.992 264.75 C 960.786 264.75 962.242 266.206 962.242 268 L 962.242 290 C 962.242 291.794 960.786 293.25 958.992 293.25 Z" style="fill:none;stroke:url(#_Linear13);stroke-width:1.5px;"/>
  <path d="M 928.992 294 L 926.992 294 C 924.784 294 922.992 292.208 922.992 290 L 922.992 268 C 922.992 265.792 924.784 264 926.992 264 L 928.992 264 C 931.2 264 932.992 265.792 932.992 268 L 932.992 290 C 932.992 292.208 931.2 294 928.992 294 Z" style="fill:#141414;"/>
  <path d="M 928.992 293.25 L 926.992 293.25 C 925.198 293.25 923.742 291.794 923.742 290 L 923.742 268 C 923.742 266.206 925.198 264.75 926.992 264.75 L 928.992 264.75 C 930.786 264.75 932.242 266.206 932.242 268 L 932.242 290 C 932.242 291.794 930.786 293.25 928.992 293.25 Z" style="fill:none;stroke:url(#_Linear14);stroke-width:1.5px;"/>
  <path d="M 898.992 294 L 896.992 294 C 894.784 294 892.992 292.208 892.992 290 L 892.992 268 C 892.992 265.792 894.784 264 896.992 264 L 898.992 264 C 901.2 264 902.992 265.792 902.992 268 L 902.992 290 C 902.992 292.208 901.2 294 898.992 294 Z" style="fill:#141414;"/>
  <path d="M 898.992 293.25 L 896.992 293.25 C 895.198 293.25 893.742 291.794 893.742 290 L 893.742 268 C 893.742 266.206 895.198 264.75 896.992 264.75 L 898.992 264.75 C 900.786 264.75 902.242 266.206 902.242 268 L 902.242 290 C 902.242 291.794 900.786 293.25 898.992 293.25 Z" style="fill:none;stroke:url(#_Linear15);stroke-width:1.5px;"/>
  <path d="M 836 126 L 836 128 C 836 130.208 837.792 132 840 132 L 862 132 C 864.208 132 866 130.208 866 128 L 866 126 C 866 123.792 864.208 122 862 122 L 840 122 C 837.792 122 836 123.792 836 126 Z" style="fill:#141414;"/>
  <path d="M 836.75 126 L 836.75 128 C 836.75 129.794 838.206 131.25 840 131.25 L 862 131.25 C 863.794 131.25 865.25 129.794 865.25 128 L 865.25 126 C 865.25 124.206 863.794 122.75 862 122.75 L 840 122.75 C 838.206 122.75 836.75 124.206 836.75 126 Z" style="fill:none;stroke:url(#_Linear16);stroke-width:1.5px;"/>
  <path d="M 836 156 L 836 158 C 836 160.208 837.792 162 840 162 L 862 162 C 864.208 162 866 160.208 866 158 L 866 156 C 866 153.792 864.208 152 862 152 L 840 152 C 837.792 152 836 153.792 836 156 Z" style="fill:#141414;"/>
  <path d="M 836.75 156 L 836.75 158 C 836.75 159.794 838.206 161.25 840 161.25 L 862 161.25 C 863.794 161.25 865.25 159.794 865.25 158 L 865.25 156 C 865.25 154.206 863.794 152.75 862 152.75 L 840 152.75 C 838.206 152.75 836.75 154.206 836.75 156 Z" style="fill:none;stroke:url(#_Linear17);stroke-width:1.5px;"/>
  <path d="M 836 186 L 836 188 C 836 190.208 837.792 192 840 192 L 862 192 C 864.208 192 866 190.208 866 188 L 866 186 C 866 183.792 864.208 182 862 182 L 840 182 C 837.792 182 836 183.792 836 186 Z" style="fill:#141414;"/>
  <path d="M 836.75 186 L 836.75 188 C 836.75 189.794 838.206 191.25 840 191.25 L 862 191.25 C 863.794 191.25 865.25 189.794 865.25 188 L 865.25 186 C 865.25 184.206 863.794 182.75 862 182.75 L 840 182.75 C 838.206 182.75 836.75 184.206 836.75 186 Z" style="fill:none;stroke:url(#_Linear18);stroke-width:1.5px;"/>
  <path d="M 836 216 L 836 218 C 836 220.208 837.792 222 840 222 L 862 222 C 864.208 222 866 220.208 866 218 L 866 216 C 866 213.792 864.208 212 862 212 L 840 212 C 837.792 212 836 213.792 836 216 Z" style="fill:#141414;"/>
  <path d="M 836.75 216 L 836.75 218 C 836.75 219.794 838.206 221.25 840 221.25 L 862 221.25 C 863.794 221.25 865.25 219.794 865.25 218 L 865.25 216 C 865.25 214.206 863.794 212.75 862 212.75 L 840 212.75 C 838.206 212.75 836.75 214.206 836.75 216 Z" style="fill:none;stroke:url(#_Linear19);stroke-width:1.5px;"/>
  <g transform="matrix(1, 0, 0, 1, 0, -4)">
    <path d="M1060,124l0,100c0,27.596 -22.404,50 -50,50l-100,0c-27.596,0 -50,-22.404 -50,-50l0,-100c0,-27.596 22.404,-50 50,-50l100,0c27.596,0 50,22.404 50,50Z" style="fill:#141414;"/>
    <path d="M1059,124l0,100c0,27.044 -21.956,49 -49,49l-100,0c-27.044,0 -49,-21.956 -49,-49l0,-100c0,-27.044 21.956,-49 49,-49l100,0c27.044,0 49,21.956 49,49Z" style="fill:none;stroke:#3c3c3c;stroke-opacity:0.3;stroke-width:2px;"/>
  </g>
  <path d="M 906.589 214 L 929.405 127.2 L 957.925 127.2 L 980.741 214 L 963.877 214 L 959.165 194.904 L 928.165 194.904 L 923.453 214 L 906.589 214 Z M 932.009 179.776 L 955.321 179.776 L 944.781 137.492 L 942.549 137.492 L 932.009 179.776 Z M 991.131 214 L 991.131 127.2 L 1007.5 127.2 L 1007.5 214 L 991.131 214 Z" style="fill:url(#_Linear20);fill-rule:nonzero;"/>
  <path d="M 235 200 L 235 240 C 235 251.038 226.038 260 215 260 L 175 260 C 163.962 260 155 251.038 155 240 L 155 200 C 155 188.962 163.962 180 175 180 L 215 180 C 226.038 180 235 188.962 235 200 Z" style="fill:#e3e3e3;"/>
  <path d="M 234 200 L 234 240 C 234 250.486 225.486 259 215 259 L 175 259 C 164.514 259 156 250.486 156 240 L 156 200 C 156 189.514 164.514 181 175 181 L 215 181 C 225.486 181 234 189.514 234 200 Z" style="fill:none;stroke:#3c3c3c;stroke-opacity:0.3;stroke-width:2px;"/>
  <g transform="matrix(1, 0, 0, 1, 0, -4)">
    <path d="M1635,34l0,40c0,16.557 -13.443,30 -30,30l-40,0c-16.557,0 -30,-13.443 -30,-30l0,-40c0,-16.557 13.443,-30 30,-30l40,0c16.557,0 30,13.443 30,30Z" style="fill:#141414;"/>
    <path d="M1634,34l0,40c0,16.006 -12.994,29 -29,29l-40,0c-16.006,0 -29,-12.994 -29,-29l0,-40c0,-16.006 12.994,-29 29,-29l40,0c16.006,0 29,12.994 29,29Z" style="fill:none;stroke:#3c3c3c;stroke-opacity:0.3;stroke-width:2px;"/>
  </g>
  <g transform="matrix(1, 0, 0, 1, 0, -4)">
    <path d="M1765,204l0,40c0,11.038 -8.962,20 -20,20l-40,0c-11.038,0 -20,-8.962 -20,-20l0,-40c0,-11.038 8.962,-20 20,-20l40,0c11.038,0 20,8.962 20,20Z" style="fill:#141414;"/>
    <path d="M1764,204l0,40c0,10.486 -8.514,19 -19,19l-40,0c-10.486,0 -19,-8.514 -19,-19l0,-40c0,-10.486 8.514,-19 19,-19l40,0c10.486,0 19,8.514 19,19Z" style="fill:none;stroke:#3c3c3c;stroke-opacity:0.3;stroke-width:2px;"/>
  </g>
  <g transform="matrix(1, 0, 0, 1, 0, -4)">
    <path d="M1635,304l0,40c0,16.557 -13.443,30 -30,30l-40,0c-16.557,0 -30,-13.443 -30,-30l0,-40c0,-16.557 13.443,-30 30,-30l40,0c16.557,0 30,13.443 30,30Z" style="fill:#141414;"/>
    <path d="M1634,304l0,40c0,16.006 -12.994,29 -29,29l-40,0c-16.006,0 -29,-12.994 -29,-29l0,-40c0,-16.006 12.994,-29 29,-29l40,0c16.006,0 29,12.994 29,29Z" style="fill:none;stroke:#3c3c3c;stroke-opacity:0.3;stroke-width:2px;"/>
  </g>
  <g transform="matrix(1, 0, 0, 1, 0, -4)">
    <path d="M385,34l0,40c0,16.557 -13.443,30 -30,30l-40,0c-16.557,0 -30,-13.443 -30,-30l0,-40c0,-16.557 13.443,-30 30,-30l40,0c16.557,0 30,13.443 30,30Z" style="fill:#e3e3e3;"/>
    <path d="M384,34l0,40c0,16.006 -12.994,29 -29,29l-40,0c-16.006,0 -29,-12.994 -29,-29l0,-40c0,-16.006 12.994,-29 29,-29l40,0c16.006,0 29,12.994 29,29Z" style="fill:none;stroke:#3c3c3c;stroke-opacity:0.3;stroke-width:2px;"/>
  </g>
  <g transform="matrix(1, 0, 0, 1, 0, -4)">
    <path d="M1734.94,243.01c-2.769,1.205 -5.693,1.852 -8.728,1.896c-11.54,0.223 -21.631,-8.191 -23.303,-19.598c-2.099,-14.265 8.95,-26.585 22.834,-26.585c0.514,-0 1.027,0.022 1.519,0.044c-0.872,-2.544 0.133,-4.732 0.98,-5.737l0,-0.022c-0.825,-0.067 -1.652,-0.111 -2.499,-0.111c-15.939,-0 -28.907,12.968 -28.907,28.906c0,15.939 12.968,28.907 28.907,28.907c4.062,-0 7.991,-0.825 11.674,-2.455c1.563,-0.692 2.21,-2.59 1.338,-4.107c-0.758,-1.296 -2.432,-1.741 -3.815,-1.138Z" style="fill:#fff;fill-rule:nonzero;"/>
    <path d="M1749.04,204.773c-2.791,-3.796 -6.451,-6.809 -10.58,-8.841c0.314,2.321 -0.647,4.243 -2.121,5.403l-0,0.022c3.126,1.606 5.895,3.952 8.014,6.854c0.96,1.294 2.768,1.583 4.062,0.624c1.294,-0.96 1.563,-2.768 0.625,-4.062Z" style="fill:#fff;fill-rule:nonzero;"/>
    <path d="M1732.73,199.572c1.541,-0 2.791,-1.25 2.791,-2.791c-0,-1.541 -1.25,-2.79 -2.791,-2.79c-1.538,-0 -2.79,1.249 -2.79,2.79c-0,1.541 1.252,2.791 2.79,2.791Z" style="fill:#fff;fill-rule:nonzero;"/>
    <path d="M1734.51,206.225l-1.563,5.892c0.983,0.714 1.854,1.586 2.59,2.591c1.539,2.097 2.344,4.576 2.344,7.164c0,4.799 -2.835,9.175 -7.233,11.116c-1.539,0.694 -3.191,1.027 -4.91,1.027c-6.697,0 -12.143,-5.445 -12.143,-12.143c0,-6.428 5.021,-11.696 11.338,-12.098l1.563,-5.826c-0.244,-0.022 -0.491,-0.022 -0.758,-0.022c-9.888,-0 -17.946,8.058 -17.946,17.946c-0,9.888 8.058,17.947 17.946,17.947c2.522,-0 4.954,-0.514 7.253,-1.517c6.498,-2.879 10.694,-9.332 10.694,-16.43c-0,-3.84 -1.206,-7.522 -3.483,-10.602c-1.54,-2.099 -3.482,-3.818 -5.692,-5.045Z" style="fill:#fff;fill-rule:nonzero;"/>
    <path d="M1728.22,213.567c0.827,0.225 1.697,-0.267 1.899,-1.116l1.963,-7.389c0.225,-0.825 -0.267,-1.697 -1.116,-1.897c-0.825,-0.224 -1.697,0.267 -1.897,1.116l-1.965,7.389c-0.2,0.828 0.291,1.675 1.116,1.897Z" style="fill:#fff;fill-rule:nonzero;"/>
  </g>
  <g transform="matrix(1, 0, 0, 1, 0, -4)">
    <path d="M386.069,315.745l0,16.804c0,4.638 -3.765,8.403 -8.402,8.403l-124.74,-0c-4.638,-0 -8.403,-3.765 -8.403,-8.403l0,-16.804c0,-4.638 3.765,-8.403 8.403,-8.403l124.74,0c4.637,0 8.402,3.765 8.402,8.403Z" style="fill:#141414;"/>
  </g>
  <g transform="matrix(1, 0, 0, 1, 0, -4)">
    <g opacity="0.9">
      <path d="M1145,221l-40,0" style="fill:none;fill-rule:nonzero;stroke:url(#_Linear23);stroke-width:7px;stroke-linecap:round;"/>
    </g>
    <path d="M1145,221l-40,0" style="fill:none;fill-rule:nonzero;stroke:url(#_Linear24);stroke-width:2px;stroke-linecap:round;"/>
    <g opacity="0.9">
      <path d="M1266,131l-40,0" style="fill:none;fill-rule:nonzero;stroke:url(#_Linear25);stroke-width:7px;stroke-linecap:round;"/>
    </g>
    <path d="M1266,131l-40,0" style="fill:none;fill-rule:nonzero;stroke:url(#_Linear26);stroke-width:2px;stroke-linecap:round;"/>
    <g opacity="0.9">
      <path d="M676,161l-40,0" style="fill:none;fill-rule:nonzero;stroke:url(#_Linear27);stroke-width:7px;stroke-linecap:round;"/>
    </g>
    <path d="M676,161l-40,0" style="fill:none;fill-rule:nonzero;stroke:url(#_Linear28);stroke-width:2px;stroke-linecap:round;"/>
  </g>
  <clipPath id="_clip29">
    <rect x="167.777" y="191.427" width="52.349" height="65.109"/>
  </clipPath>
  <g clip-path="url(#_clip29)" transform="matrix(1, 0, 0, 1, 0, -4)">
    <g id="Layer_2">
      <g id="ART">
        <path d="M189.561,191.427l8.774,-0l-0,52.458l-8.774,-0l0,-52.458Zm10.899,65.109l8.767,-5.433l-0,-45.416c-2.599,-1.927 -5.593,-3.254 -8.767,-3.884l0,54.733Zm-21.818,-5.406l8.773,5.433l0,-54.733c-3.173,0.621 -6.17,1.938 -8.773,3.857l-0,45.443Zm32.71,-57.211l0,56.233l4.075,-2.526c2.962,-1.948 4.729,-5.283 4.678,-8.828l0,-26.558c0.021,-7.66 -8.753,-18.321 -8.753,-18.321Zm-43.575,44.859c-0.055,3.546 1.714,6.882 4.678,8.828l4.075,2.526l-0,-56.213c-0,-0 -8.753,10.661 -8.753,18.321l-0,26.538Z" style="fill:#6b0aea;"/>
      </g>
    </g>
  </g>
  <clipPath id="_clip30">
    <rect x="306.22" y="23.352" width="59.048" height="58.657"/>
  </clipPath>
  <g clip-path="url(#_clip30)" transform="matrix(1, 0, 0, 1, 0, -4)">
    <g id="Layer_2_1_">
      <g id="Layer_1-2">
        <path d="M312.085,34.953c-0.912,1.434 -1.564,2.477 -2.476,4.171c4.171,3.259 6.908,8.212 6.908,13.948c0,5.735 -2.476,10.558 -6.648,13.686c0.652,1.434 1.565,2.738 2.477,3.911c5.605,-3.78 9.516,-10.298 9.516,-17.858c-0,-7.56 -3.911,-14.208 -9.777,-17.858Zm1.956,17.858c-0,-4.562 -2.086,-8.864 -5.475,-11.601c-3.259,7.56 -3.259,16.033 -0,23.333c3.65,-2.868 5.475,-7.17 5.475,-11.732Zm9.385,-26.982c-1.564,0.782 -3.129,1.694 -4.563,2.607c4.563,3.259 8.212,7.56 10.559,12.513c1.564,-0.912 3.389,-1.433 5.083,-1.564c-2.216,-5.344 -5.996,-10.037 -11.079,-13.556Zm0.26,31.284c-1.173,6.126 -4.823,11.601 -10.036,15.12c1.173,1.173 2.346,2.346 3.389,3.259c4.823,-2.998 8.472,-7.3 10.558,-12.514c-1.825,-1.564 -3.259,-3.519 -3.911,-5.865Zm5.866,7.299c-2.085,5.214 -5.735,9.646 -10.558,12.774c1.434,0.913 2.998,1.825 4.562,2.477c4.823,-3.389 8.733,-8.212 10.949,-13.947c-1.433,-0.131 -3.258,-0.652 -4.953,-1.304Zm-12.513,-34.412c-1.174,0.912 -2.216,2.086 -3.389,3.128c5.213,3.389 8.863,8.864 10.036,15.121c0.652,-2.346 2.086,-4.302 3.911,-5.996c-2.086,-4.953 -5.735,-9.255 -10.558,-12.253Z" style="fill:#0080ff;fill-rule:nonzero;"/>
        <path d="M335.809,23.352c-3.259,0 -6.648,0.522 -9.776,1.564c5.083,3.911 8.733,8.864 10.949,14.6c6.648,0.651 11.601,5.735 11.601,13.034c0,7.3 -4.823,12.384 -11.471,13.035c-2.346,5.736 -5.996,10.95 -10.949,14.86c2.998,0.913 6.387,1.564 9.646,1.564c16.424,0 29.459,-12.774 29.459,-29.459c-0,-16.684 -13.035,-29.198 -29.459,-29.198Z" style="fill:#030659;fill-rule:nonzero;"/>
      </g>
    </g>
  </g>
  <g transform="matrix(1, 0, 0, 1, 0, -4)">
    <path d="M1562.62,339.367c-3.066,1.055 -5.516,2.557 -7.512,4.512c-3.981,-5.863 -6.434,-13.081 -6.434,-20.598c-0,-20.599 17.011,-37.285 38.011,-37.285c20.996,-0 38.01,16.686 38.01,37.285c0,16.841 -11.495,31.121 -27.13,35.784l-0,-3.308c0.309,-0 0.767,0.3 1.379,1.051c0.768,-4.509 0.919,-9.172 0.307,-13.984c1.379,0.603 2.453,1.655 3.372,2.858c0.306,-3.609 -0.458,-7.518 -2.45,-11.427c1.225,0.452 2.143,1.355 2.911,2.709c0.306,-3.309 -0.155,-6.166 -2.911,-8.872c0.918,0.149 1.531,0.752 2.911,1.955c-0.768,-3.909 -3.221,-4.661 -3.221,-7.366c0,-4.212 8.279,-7.37 3.988,-12.481c-1.38,1.503 -2.76,2.857 -4.291,3.909c0.613,-2.406 1.992,-5.261 1.992,-6.615c0,-1.503 -3.987,-6.615 -4.6,-7.366c-0.151,-0.152 -0.919,-0.303 -1.531,-0.152c-1.841,0.152 -1.228,1.355 -1.996,2.106c-1.07,1.352 -2.601,3.006 -3.678,4.661c-0.764,0.903 -1.225,2.254 -1.989,2.405c-11.499,1.803 -12.569,12.027 -23.604,10.975c0.458,3.309 3.217,5.412 6.744,6.918c-1.689,4.508 -5.674,8.417 -10.883,12.026c0.919,0 1.686,0.152 2.605,0.3Zm-17.779,-16.086c-0,22.704 18.7,41.045 41.844,41.045c23.143,-0 41.84,-18.341 41.84,-41.045c0,-22.705 -18.697,-41.045 -41.84,-41.045c-23.144,-0 -41.844,18.34 -41.844,41.045Zm40.003,-1.203c-1.38,0.151 -1.686,0.3 -3.066,0.751c0.155,-3.309 4.446,-7.518 8.585,-12.178c1.992,-2.254 4.597,-7.066 5.516,-7.066c0.612,0 3.22,3.609 3.22,4.96c0,1.806 -2.298,4.812 -2.914,9.924c3.066,-1.352 4.6,-4.512 6.438,-5.412c0.461,2.254 -3.063,4.66 -5.822,9.924c1.073,0.899 1.531,1.502 1.989,2.554c-0.613,0.303 -1.683,0.603 -3.218,1.054c2.454,1.352 3.527,2.855 3.988,4.509c-1.073,-0.6 -1.686,-0.751 -2.608,-0.9c1.535,4.057 1.686,7.063 1.535,9.321c-0.613,-0 -1.38,-0.3 -1.841,-0.752c1.38,8.121 -0.306,9.62 -0.155,13.681c-1.225,-1.806 -2.45,-2.858 -3.981,-3.757c-1.074,4.057 -2.763,5.863 -3.833,6.914c0.919,-5.712 0.764,-10.823 -1.689,-15.938c-0.764,0.755 -0.916,1.658 -1.377,2.709c-3.066,-2.106 -4.291,-5.263 -2.453,-10.975c-1.38,1.051 -1.838,1.951 -2.605,2.854c-0.919,-6.917 1.225,-9.472 4.291,-12.177Z" style="fill:#fff;fill-rule:nonzero;"/>
    <path d="M1599.91,331.19c-0.641,-1.882 -1.759,-3.294 -4.158,-4.705c1.597,-0.47 2.718,-0.783 3.359,-1.099c-0.483,-1.253 -0.96,-1.881 -2.081,-2.664c2.88,-5.491 6.397,-8.001 6.078,-10.195c-1.762,0.941 -3.517,4.234 -6.715,5.645c0.637,-5.333 3.037,-8.468 3.037,-10.35c-0,-0.944 -1.121,-2.825 -2.081,-4.079c-5.276,7.685 -8.474,16.939 -8.474,26.976c0,6.589 1.44,13.018 3.839,18.824c1.598,1.096 2.877,2.036 4.158,3.921c-0.161,-4.237 1.598,-5.806 0.158,-14.274c0.641,0.313 1.279,0.783 1.92,0.783c0.161,-2.352 -0,-5.332 -1.601,-9.724c0.802,-0 1.279,0.315 2.561,0.941Z" style="fill:#fff;fill-rule:nonzero;"/>
  </g>
  <g transform="matrix(1, 0, 0, 1, 0, -4)">
    <path d="M1565.2,55.678c-2.892,0.616 -5.684,1.204 -8.47,1.818c-0.782,0.173 -1.349,0.076 -1.541,-0.825c-0.514,-2.398 -1.049,-4.79 -1.554,-7.188c-0.155,-0.737 0.067,-1.158 0.931,-1.334c5.867,-1.197 11.703,-2.549 17.586,-3.651c2.829,-0.528 5.735,-0.753 8.618,-0.873c3.445,-0.143 6.924,-0.287 10.344,0.042c4.387,0.423 8.74,1.245 13.083,2.035c3.517,0.641 6.992,1.5 10.491,2.248c1.491,0.317 1.586,0.4 1.273,1.926c-0.449,2.204 -0.984,4.392 -1.403,6.603c-0.181,0.949 -0.574,1.156 -1.498,0.952c-5.103,-1.123 -10.217,-2.195 -15.327,-3.276c-0.375,-0.079 -0.764,-0.098 -1.419,-0.181c0.275,0.528 0.384,0.861 0.593,1.114c4.121,5.035 8.251,10.062 12.386,15.086c0.56,0.683 0.764,1.22 -0.116,1.894c-1.94,1.493 -3.813,3.079 -5.688,4.656c-0.547,0.46 -0.975,0.476 -1.429,-0.084c-3.574,-4.392 -7.149,-8.786 -10.731,-13.173c-0.317,-0.387 -0.685,-0.732 -1.28,-1.364c-0.093,0.847 -0.19,1.331 -0.19,1.817c-0.011,6.404 -0.005,12.808 -0.011,19.212c-0,1.72 -0.065,1.781 -1.762,1.787c-1.894,0.007 -3.786,0.005 -5.68,0c-1.965,-0.002 -1.977,-0.011 -1.979,-1.933c-0.005,-6.445 -0.002,-12.889 -0.002,-19.334l-0,-1.512c-0.109,-0.037 -0.22,-0.076 -0.332,-0.114c-0.81,0.957 -1.634,1.904 -2.428,2.874c-3.209,3.912 -6.432,7.816 -9.585,11.773c-0.639,0.801 -1.137,0.724 -1.79,0.194c-1.898,-1.549 -3.792,-3.105 -5.691,-4.656c-0.648,-0.53 -0.551,-1.014 -0.041,-1.63c4.361,-5.306 8.7,-10.631 13.039,-15.956c0.093,-0.114 0.137,-0.264 0.4,-0.801c-3.109,0.657 -5.903,1.245 -8.797,1.854Z" style="fill:#fff;fill-rule:nonzero;"/>
    <path d="M1582.36,37.066c-6.774,0.394 -13.431,0.743 -20.078,1.202c-2.56,0.176 -5.105,0.571 -7.651,0.914c-0.924,0.125 -1.151,-0.255 -1.042,-1.076c0.368,-2.746 0.717,-5.494 1.086,-8.24c0.18,-1.352 0.426,-2.698 0.574,-4.052c0.09,-0.831 0.528,-1.107 1.287,-1.07c0.282,0.014 0.565,-0.002 0.847,-0.002c18.323,0 36.646,-0.002 54.971,0c1.91,0 1.965,-0.005 2.241,1.868c0.556,3.774 1.053,7.557 1.554,11.338c0.136,1.051 -0.237,1.311 -1.343,1.195c-5.311,-0.549 -10.613,-1.225 -15.936,-1.563c-5.452,-0.347 -10.926,-0.357 -16.51,-0.514Z" style="fill:#fff;fill-rule:nonzero;"/>
  </g>
  <path d="M 250.917 327.078 L 250.917 313.12 L 257.927 313.12 L 262.379 318.605 C 262.508 318.776 262.681 318.991 262.852 319.271 C 263.024 319.551 263.734 320.711 264.036 321.25 C 263.971 320.862 263.95 320.711 263.885 320.282 C 263.842 319.852 263.82 319.401 263.82 318.905 L 263.82 313.12 L 268.724 313.12 L 268.724 327.078 L 263.82 327.078 L 257.282 319.766 C 257.132 319.615 256.96 319.357 256.766 319.056 C 256.552 318.734 255.864 317.572 255.627 317.141 C 255.712 317.55 255.712 317.68 255.777 318.11 C 255.821 318.519 255.841 318.97 255.841 319.464 L 255.841 327.078 L 250.917 327.078 Z M 283.67 327.078 C 284.917 327.078 285.907 326.863 286.616 326.411 C 287.325 325.959 287.67 325.357 287.67 324.583 L 287.67 321.164 C 287.67 320.239 287.347 319.551 286.68 319.099 C 286.014 318.669 284.982 318.432 283.584 318.432 L 275.455 318.432 L 275.455 316.346 L 286.573 316.346 L 286.573 313.099 L 275.82 313.099 C 273.907 313.099 272.509 313.314 271.67 313.745 C 270.831 314.174 270.423 314.862 270.423 315.851 L 270.423 319.207 C 270.423 320.153 270.766 320.82 271.476 321.185 C 272.186 321.551 273.627 321.744 275.82 321.744 L 282.659 321.744 L 282.659 323.787 L 270.315 323.787 L 270.315 327.078 L 283.67 327.078 Z" style="fill:#fff;"/>
  <path d="M 330.272 327.078 C 328.595 327.078 327.348 326.755 326.53 326.132 C 325.691 325.508 325.283 324.54 325.283 323.271 L 325.283 316.906 C 325.283 315.702 325.712 314.755 326.53 314.11 C 327.369 313.465 328.552 313.12 330.1 313.12 L 341.907 313.12 L 341.907 316.368 L 330.487 316.368 L 330.487 323.808 L 341.863 323.808 L 341.863 327.078 L 330.272 327.078 Z M 361.024 313.12 L 355.863 313.12 L 355.863 323.808 L 348.552 323.808 L 348.552 313.12 L 343.391 313.12 L 343.391 324.217 C 343.391 325.099 343.756 325.809 344.487 326.324 C 345.218 326.841 346.208 327.099 347.477 327.099 L 356.96 327.099 C 358.228 327.099 359.218 326.841 359.949 326.324 C 360.681 325.809 361.024 325.099 361.024 324.217 L 361.024 313.12 Z M 375.95 327.078 C 377.196 327.078 378.185 326.863 378.896 326.411 C 379.605 325.959 379.949 325.357 379.949 324.583 L 379.949 321.164 C 379.949 320.239 379.626 319.551 378.96 319.099 C 378.294 318.669 377.261 318.432 375.863 318.432 L 367.735 318.432 L 367.735 316.346 L 378.831 316.346 L 378.831 313.099 L 368.078 313.099 C 366.164 313.099 364.767 313.314 363.928 313.745 C 363.09 314.174 362.681 314.862 362.681 315.851 L 362.681 319.207 C 362.681 320.153 363.025 320.82 363.735 321.185 C 364.444 321.551 365.885 321.744 368.078 321.744 L 374.917 321.744 L 374.917 323.787 L 362.573 323.787 L 362.573 327.078 L 375.95 327.078 Z M 322.53 314.045 C 323.261 314.669 323.605 315.615 323.605 316.906 L 323.605 323.336 C 323.605 324.583 323.24 325.529 322.487 326.153 C 321.756 326.776 320.638 327.099 319.154 327.099 L 310.724 327.099 C 309.24 327.099 308.122 326.776 307.39 326.153 C 306.638 325.529 306.272 324.583 306.272 323.336 L 306.272 316.906 C 306.272 315.637 306.638 314.669 307.369 314.067 C 308.1 313.443 309.218 313.143 310.724 313.143 L 319.154 313.143 C 320.702 313.12 321.82 313.422 322.53 314.045 M 318.466 316.368 L 311.498 316.368 L 311.498 323.808 L 318.466 323.808 L 318.466 316.368 Z M 294.724 327.078 L 294.724 321.659 L 304.767 321.659 L 304.767 319.034 L 294.724 319.034 L 294.724 316.368 L 304.767 316.368 L 304.767 313.12 L 289.52 313.12 L 289.52 327.078 L 294.724 327.078 Z" style="fill:#fff;"/>
  <defs>
    <linearGradient id="_Linear1" x1="0" y1="0" x2="1" y2="0" gradientUnits="userSpaceOnUse" gradientTransform="matrix(-30, 0, 0, -30, 1539.5, 50)">
      <stop offset="0" style="stop-color:#3c3c3c;stop-opacity:0.3"/>
      <stop offset="0.48" style="stop-color:#3c3c3c;stop-opacity:0.3"/>
      <stop offset="1" style="stop-color:#a2a2a2;stop-opacity:0.3"/>
    </linearGradient>
    <linearGradient id="_Linear2" x1="0" y1="0" x2="1" y2="0" gradientUnits="userSpaceOnUse" gradientTransform="matrix(-30, 0, 0, -30, 1539.5, 320)">
      <stop offset="0" style="stop-color:#3c3c3c;stop-opacity:0.3"/>
      <stop offset="0.48" style="stop-color:#3c3c3c;stop-opacity:0.3"/>
      <stop offset="1" style="stop-color:#a2a2a2;stop-opacity:0.3"/>
    </linearGradient>
    <linearGradient id="_Linear3" x1="0" y1="0" x2="1" y2="0" gradientUnits="userSpaceOnUse" gradientTransform="matrix(-30, 0, 0, -30, 1689.5, 220)">
      <stop offset="0" style="stop-color:#3c3c3c;stop-opacity:0.3"/>
      <stop offset="0.48" style="stop-color:#3c3c3c;stop-opacity:0.3"/>
      <stop offset="1" style="stop-color:#a2a2a2;stop-opacity:0.3"/>
    </linearGradient>
    <linearGradient id="_Linear4" x1="0" y1="0" x2="1" y2="0" gradientUnits="userSpaceOnUse" gradientTransform="matrix(30, 0, 0, 30, 379, 50)">
      <stop offset="0" style="stop-color:#3c3c3c;stop-opacity:0.3"/>
      <stop offset="0.48" style="stop-color:#3c3c3c;stop-opacity:0.3"/>
      <stop offset="1" style="stop-color:#a2a2a2;stop-opacity:0.3"/>
    </linearGradient>
    <linearGradient id="_Linear5" x1="0" y1="0" x2="1" y2="0" gradientUnits="userSpaceOnUse" gradientTransform="matrix(30, 0, 0, 30, 379, 320)">
      <stop offset="0" style="stop-color:#3c3c3c;stop-opacity:0.3"/>
      <stop offset="0.48" style="stop-color:#3c3c3c;stop-opacity:0.3"/>
      <stop offset="1" style="stop-color:#a2a2a2;stop-opacity:0.3"/>
    </linearGradient>
    <linearGradient id="_Linear6" x1="0" y1="0" x2="1" y2="0" gradientUnits="userSpaceOnUse" gradientTransform="matrix(30, 0, 0, 30, 229, 220)">
      <stop offset="0" style="stop-color:#3c3c3c;stop-opacity:0.3"/>
      <stop offset="0.48" style="stop-color:#3c3c3c;stop-opacity:0.3"/>
      <stop offset="1" style="stop-color:#a2a2a2;stop-opacity:0.3"/>
    </linearGradient>
    <linearGradient id="_Linear7" x1="0" y1="0" x2="1" y2="0" gradientUnits="userSpaceOnUse" gradientTransform="matrix(30, 0, 0, 30, 1054, 127)">
      <stop offset="0" style="stop-color:#3c3c3c;stop-opacity:0.3"/>
      <stop offset="0.48" style="stop-color:#3c3c3c;stop-opacity:0.3"/>
      <stop offset="1" style="stop-color:#a2a2a2;stop-opacity:0.3"/>
    </linearGradient>
    <linearGradient id="_Linear8" x1="0" y1="0" x2="1" y2="0" gradientUnits="userSpaceOnUse" gradientTransform="matrix(30, 0, 0, 30, 1054, 157)">
      <stop offset="0" style="stop-color:#3c3c3c;stop-opacity:0.3"/>
      <stop offset="0.48" style="stop-color:#3c3c3c;stop-opacity:0.3"/>
      <stop offset="1" style="stop-color:#a2a2a2;stop-opacity:0.3"/>
    </linearGradient>
    <linearGradient id="_Linear9" x1="0" y1="0" x2="1" y2="0" gradientUnits="userSpaceOnUse" gradientTransform="matrix(30, 0, 0, 30, 1054, 187)">
      <stop offset="0" style="stop-color:#3c3c3c;stop-opacity:0.3"/>
      <stop offset="0.48" style="stop-color:#3c3c3c;stop-opacity:0.3"/>
      <stop offset="1" style="stop-color:#a2a2a2;stop-opacity:0.3"/>
    </linearGradient>
    <linearGradient id="_Linear10" x1="0" y1="0" x2="1" y2="0" gradientUnits="userSpaceOnUse" gradientTransform="matrix(30, 0, 0, 30, 1054, 217)">
      <stop offset="0" style="stop-color:#3c3c3c;stop-opacity:0.3"/>
      <stop offset="0.48" style="stop-color:#3c3c3c;stop-opacity:0.3"/>
      <stop offset="1" style="stop-color:#a2a2a2;stop-opacity:0.3"/>
    </linearGradient>
    <linearGradient id="_Linear11" x1="0" y1="0" x2="1" y2="0" gradientUnits="userSpaceOnUse" gradientTransform="matrix(0, 30, -30, 0, 987.992004, 265.5)">
      <stop offset="0" style="stop-color:#3c3c3c;stop-opacity:0.3"/>
      <stop offset="0.48" style="stop-color:#3c3c3c;stop-opacity:0.3"/>
      <stop offset="1" style="stop-color:#a2a2a2;stop-opacity:0.3"/>
    </linearGradient>
    <linearGradient id="_Linear12" x1="0" y1="0" x2="1" y2="0" gradientUnits="userSpaceOnUse" gradientTransform="matrix(0, 30, -30, 0, 1014.919983, 265.73999)">
      <stop offset="0" style="stop-color:#3c3c3c;stop-opacity:0.3"/>
      <stop offset="0.48" style="stop-color:#3c3c3c;stop-opacity:0.3"/>
      <stop offset="1" style="stop-color:#a2a2a2;stop-opacity:0.3"/>
    </linearGradient>
    <linearGradient id="_Linear13" x1="0" y1="0" x2="1" y2="0" gradientUnits="userSpaceOnUse" gradientTransform="matrix(0, 30, -30, 0, 957.992004, 265.5)">
      <stop offset="0" style="stop-color:#3c3c3c;stop-opacity:0.3"/>
      <stop offset="0.48" style="stop-color:#3c3c3c;stop-opacity:0.3"/>
      <stop offset="1" style="stop-color:#a2a2a2;stop-opacity:0.3"/>
    </linearGradient>
    <linearGradient id="_Linear14" x1="0" y1="0" x2="1" y2="0" gradientUnits="userSpaceOnUse" gradientTransform="matrix(0, 30, -30, 0, 927.992004, 265.5)">
      <stop offset="0" style="stop-color:#3c3c3c;stop-opacity:0.3"/>
      <stop offset="0.48" style="stop-color:#3c3c3c;stop-opacity:0.3"/>
      <stop offset="1" style="stop-color:#a2a2a2;stop-opacity:0.3"/>
    </linearGradient>
    <linearGradient id="_Linear15" x1="0" y1="0" x2="1" y2="0" gradientUnits="userSpaceOnUse" gradientTransform="matrix(0, 30, -30, 0, 897.992004, 265.5)">
      <stop offset="0" style="stop-color:#3c3c3c;stop-opacity:0.3"/>
      <stop offset="0.48" style="stop-color:#3c3c3c;stop-opacity:0.3"/>
      <stop offset="1" style="stop-color:#a2a2a2;stop-opacity:0.3"/>
    </linearGradient>
    <linearGradient id="_Linear16" x1="0" y1="0" x2="1" y2="0" gradientUnits="userSpaceOnUse" gradientTransform="matrix(-30, 0, 0, -30, 864.5, 127)">
      <stop offset="0" style="stop-color:#3c3c3c;stop-opacity:0.3"/>
      <stop offset="0.48" style="stop-color:#3c3c3c;stop-opacity:0.3"/>
      <stop offset="1" style="stop-color:#a2a2a2;stop-opacity:0.3"/>
    </linearGradient>
    <linearGradient id="_Linear17" x1="0" y1="0" x2="1" y2="0" gradientUnits="userSpaceOnUse" gradientTransform="matrix(-30, 0, 0, -30, 864.5, 157)">
      <stop offset="0" style="stop-color:#3c3c3c;stop-opacity:0.3"/>
      <stop offset="0.48" style="stop-color:#3c3c3c;stop-opacity:0.3"/>
      <stop offset="1" style="stop-color:#a2a2a2;stop-opacity:0.3"/>
    </linearGradient>
    <linearGradient id="_Linear18" x1="0" y1="0" x2="1" y2="0" gradientUnits="userSpaceOnUse" gradientTransform="matrix(-30, 0, 0, -30, 864.5, 187)">
      <stop offset="0" style="stop-color:#3c3c3c;stop-opacity:0.3"/>
      <stop offset="0.48" style="stop-color:#3c3c3c;stop-opacity:0.3"/>
      <stop offset="1" style="stop-color:#a2a2a2;stop-opacity:0.3"/>
    </linearGradient>
    <linearGradient id="_Linear19" x1="0" y1="0" x2="1" y2="0" gradientUnits="userSpaceOnUse" gradientTransform="matrix(-30, 0, 0, -30, 864.5, 217)">
      <stop offset="0" style="stop-color:#3c3c3c;stop-opacity:0.3"/>
      <stop offset="0.48" style="stop-color:#3c3c3c;stop-opacity:0.3"/>
      <stop offset="1" style="stop-color:#a2a2a2;stop-opacity:0.3"/>
    </linearGradient>
    <linearGradient id="_Linear20" x1="0" y1="0" x2="1" y2="0" gradientUnits="userSpaceOnUse" gradientTransform="matrix(0, 87, -87, 0, 960, 127)">
      <stop offset="0" style="stop-color:#fff;stop-opacity:1"/>
      <stop offset="1" style="stop-color:#999;stop-opacity:0.1"/>
    </linearGradient>
    <linearGradient id="_Linear23" x1="0" y1="0" x2="1" y2="0" gradientUnits="userSpaceOnUse" gradientTransform="matrix(6.12323e-17,1,-1,6.12323e-17,1125,221)">
      <stop offset="0" style="stop-color:#ab33f5;stop-opacity:1"/>
      <stop offset="1" style="stop-color:#ff6914;stop-opacity:1"/>
    </linearGradient>
    <linearGradient id="_Linear24" x1="0" y1="0" x2="1" y2="0" gradientUnits="userSpaceOnUse" gradientTransform="matrix(6.12323e-17,1,-1,6.12323e-17,1125,221)">
      <stop offset="0" style="stop-color:#ab33f5;stop-opacity:0.9"/>
      <stop offset="1" style="stop-color:#ff6914;stop-opacity:0.9"/>
    </linearGradient>
    <linearGradient id="_Linear25" x1="0" y1="0" x2="1" y2="0" gradientUnits="userSpaceOnUse" gradientTransform="matrix(6.12323e-17,1,-1,6.12323e-17,1246,131)">
      <stop offset="0" style="stop-color:#ab33f5;stop-opacity:1"/>
      <stop offset="1" style="stop-color:#ff6914;stop-opacity:1"/>
    </linearGradient>
    <linearGradient id="_Linear26" x1="0" y1="0" x2="1" y2="0" gradientUnits="userSpaceOnUse" gradientTransform="matrix(6.12323e-17,1,-1,6.12323e-17,1246,131)">
      <stop offset="0" style="stop-color:#ab33f5;stop-opacity:0.9"/>
      <stop offset="1" style="stop-color:#ff6914;stop-opacity:0.9"/>
    </linearGradient>
    <linearGradient id="_Linear27" x1="0" y1="0" x2="1" y2="0" gradientUnits="userSpaceOnUse" gradientTransform="matrix(6.12323e-17,1,-1,6.12323e-17,656,161)">
      <stop offset="0" style="stop-color:#ab33f5;stop-opacity:1"/>
      <stop offset="1" style="stop-color:#ff6914;stop-opacity:1"/>
    </linearGradient>
    <linearGradient id="_Linear28" x1="0" y1="0" x2="1" y2="0" gradientUnits="userSpaceOnUse" gradientTransform="matrix(6.12323e-17,1,-1,6.12323e-17,656,161)">
      <stop offset="0" style="stop-color:#ab33f5;stop-opacity:0.9"/>
      <stop offset="1" style="stop-color:#ff6914;stop-opacity:0.9"/>
    </linearGradient>
  </defs>
</svg>