<?xml version="1.0" encoding="utf-8"?>
<svg width="130px" viewBox="0 0 130 26" version="1.1" xmlns="http://www.w3.org/2000/svg" style="fill-rule:evenodd;clip-rule:evenodd;stroke-linejoin:round;stroke-miterlimit:2;" height="26px">
  <path d="M 0.319 19.993 L 0.319 6.035 L 7.329 6.035 L 11.781 11.52 C 11.91 11.691 12.083 11.906 12.254 12.186 C 12.426 12.466 13.136 13.626 13.438 14.165 C 13.373 13.777 13.352 13.626 13.287 13.197 C 13.244 12.767 13.222 12.316 13.222 11.82 L 13.222 6.035 L 18.126 6.035 L 18.126 19.993 L 13.222 19.993 L 6.684 12.681 C 6.534 12.53 6.362 12.272 6.168 11.971 C 5.954 11.649 5.266 10.487 5.029 10.056 C 5.114 10.465 5.114 10.595 5.179 11.025 C 5.223 11.434 5.243 11.885 5.243 12.379 L 5.243 19.993 L 0.319 19.993 Z M 33.072 19.993 C 34.319 19.993 35.309 19.778 36.018 19.326 C 36.727 18.874 37.072 18.272 37.072 17.498 L 37.072 14.079 C 37.072 13.154 36.749 12.466 36.082 12.014 C 35.416 11.584 34.384 11.347 32.986 11.347 L 24.857 11.347 L 24.857 9.261 L 35.975 9.261 L 35.975 6.014 L 25.222 6.014 C 23.309 6.014 21.911 6.229 21.072 6.66 C 20.233 7.089 19.825 7.777 19.825 8.766 L 19.825 12.122 C 19.825 13.068 20.168 13.735 20.878 14.1 C 21.588 14.466 23.029 14.659 25.222 14.659 L 32.061 14.659 L 32.061 16.702 L 19.717 16.702 L 19.717 19.993 L 33.072 19.993 Z" style="fill: rgb(255, 255, 255);"/>
  <path d="M 79.674 19.993 C 77.997 19.993 76.75 19.67 75.932 19.047 C 75.093 18.423 74.685 17.455 74.685 16.186 L 74.685 9.821 C 74.685 8.617 75.114 7.67 75.932 7.025 C 76.771 6.38 77.954 6.035 79.502 6.035 L 91.309 6.035 L 91.309 9.283 L 79.889 9.283 L 79.889 16.723 L 91.265 16.723 L 91.265 19.993 L 79.674 19.993 Z M 110.426 6.035 L 105.265 6.035 L 105.265 16.723 L 97.954 16.723 L 97.954 6.035 L 92.793 6.035 L 92.793 17.132 C 92.793 18.014 93.158 18.724 93.889 19.239 C 94.62 19.756 95.61 20.014 96.879 20.014 L 106.362 20.014 C 107.63 20.014 108.62 19.756 109.351 19.239 C 110.083 18.724 110.426 18.014 110.426 17.132 L 110.426 6.035 Z M 125.352 19.993 C 126.598 19.993 127.587 19.778 128.298 19.326 C 129.007 18.874 129.351 18.272 129.351 17.498 L 129.351 14.079 C 129.351 13.154 129.028 12.466 128.362 12.014 C 127.696 11.584 126.663 11.347 125.265 11.347 L 117.137 11.347 L 117.137 9.261 L 128.233 9.261 L 128.233 6.014 L 117.48 6.014 C 115.566 6.014 114.169 6.229 113.33 6.66 C 112.492 7.089 112.083 7.777 112.083 8.766 L 112.083 12.122 C 112.083 13.068 112.427 13.735 113.137 14.1 C 113.846 14.466 115.287 14.659 117.48 14.659 L 124.319 14.659 L 124.319 16.702 L 111.975 16.702 L 111.975 19.993 L 125.352 19.993 Z M 71.932 6.96 C 72.663 7.584 73.007 8.53 73.007 9.821 L 73.007 16.251 C 73.007 17.498 72.642 18.444 71.889 19.068 C 71.158 19.691 70.04 20.014 68.556 20.014 L 60.126 20.014 C 58.642 20.014 57.524 19.691 56.792 19.068 C 56.04 18.444 55.674 17.498 55.674 16.251 L 55.674 9.821 C 55.674 8.552 56.04 7.584 56.771 6.982 C 57.502 6.358 58.62 6.058 60.126 6.058 L 68.556 6.058 C 70.104 6.035 71.222 6.337 71.932 6.96 M 67.868 9.283 L 60.9 9.283 L 60.9 16.723 L 67.868 16.723 L 67.868 9.283 Z M 44.126 19.993 L 44.126 14.574 L 54.169 14.574 L 54.169 11.949 L 44.126 11.949 L 44.126 9.283 L 54.169 9.283 L 54.169 6.035 L 38.922 6.035 L 38.922 19.993 L 44.126 19.993 Z" style="fill: rgb(255, 255, 255);"/>
</svg>