<?xml version="1.0" encoding="utf-8"?>
<svg xmlns="http://www.w3.org/2000/svg" width="154px" zoomAndPan="magnify" viewBox="0 0 69 26" height="26px" preserveAspectRatio="xMinYMin" version="1.0">
  <defs>
    <style>
      .orca-black { fill: #101921; }
      .orca-blue { fill: #0080ff; }
      .white { fill: #fff; }
    </style>
  </defs>
  <g id="Orca_Security" data-name="Orca Security" transform="matrix(0.064005, 0, 0, 0.064005, -19.027309, -17.667831)">
    <g id="Orca">
      <g id="o">
        <path id="o-black" class="white" d="M445.1,276.35c-15.32,0-30.07,2.43-43.88,6.89,8.41,7.13,16.17,16,23.08,26.48,8.55,12.96,15.35,27.76,20.26,43.78.18,0,.36-.01.54-.01,33.85,0,61.29,24.05,61.29,62.88,0,38.31-27.44,62.87-61.29,62.87-.08,0-.16,0-.25,0-5.23,17.47-12.68,33.55-22.14,47.43-6.41,9.41-13.51,17.48-21.12,24.12,13.71,4.39,28.33,6.77,43.51,6.77,78.21,0,141.61-62.95,141.61-140.61,0-77.66-63.4-140.61-141.61-140.61Z" style=""/>
        <g id="o-blue-rings">
          <path id="o-sonar-ring-3-A" class="white" d="M358.96,321.99c15.48,15.17,26.54,38.12,31.55,64.39,7.52-15.2,20.78-25.92,36.83-30.46-4.35-13.44-10.16-25.85-17.35-36.76-8.03-12.18-17.28-21.75-27.31-28.44-12.37,6.04-23.73,13.83-33.74,23.03,3.46,2.35,6.81,5.1,10.02,8.24Z" style=""/>
          <path id="o-sonar-ring-3-B" class="white" d="M427.65,476.85c-15.75-4.43-28.85-14.84-36.52-29.46-3.1,18.32-9.14,35.2-17.82,49.18-6.6,10.63-14.34,19.04-22.85,24.97,9.77,8.72,20.77,16.11,32.71,21.89,9.23-6.43,17.8-15.31,25.37-26.42,8.02-11.78,14.44-25.37,19.11-40.16Z" style=""/>
          <path id="o-sonar-ring2" class="white" d="M376.28,417.12c-.34-34.75-11.57-66.31-30.06-84.42-3.28-3.21-6.7-5.87-10.23-8-8.51,9.71-15.7,20.6-21.29,32.38,13.18,12.35,21.8,34.62,21.8,60.57,0,25.65-8.43,47.7-21.36,60.13,5.82,12.03,13.32,23.11,22.19,32.94,7.74-4.76,14.89-12.2,21-22.05,11.84-19.07,18.21-44.48,17.95-71.55Z" style=""/>
          <path id="o-sonar-ring1" class="white" d="M305.31,369.01c-5.19,14.63-8.03,30.36-8.03,46.75,0,16.75,2.96,32.81,8.37,47.71,8.43-10.65,14.04-27.93,14.04-47.02,0-19.34-5.76-36.83-14.38-47.44Z" style=""/>
        </g>
      </g>
      <path id="r" class="white" d="M775.16,277.87v90.67c-33.01-5.36-80.06,8.04-80.06,60.87v120.46s-79.95,0-79.95,0v-266.64s45.23,0,45.23,0c15.54,0,29.15,10.29,33.44,25.29,20.26-19.61,49.08-29.69,77.27-30.54h.21c1.29-.11,2.57-.11,3.86-.11Z" style=""/>
      <path id="c" class="white" d="M991.54,449.98c-10.4,18.65-29.9,29.79-53.05,29.79-34.72,0-61.41-25.08-61.41-62.91,0-37.83,26.69-62.91,61.41-62.91,22.83,0,42.33,10.93,52.83,29.36l68.48-39.65c-24.65-40.94-69.66-67.62-121.32-67.62-78.45,0-141.36,61.41-141.36,140.82,0,79.41,62.91,140.82,141.36,140.82,51.98,0,97.2-26.9,121.74-68.48l-68.7-39.22Z" style=""/>
      <path id="a" class="white" d="M1319.33,283.58c-15.54,0-29.15,10.29-33.54,25.18-17.9-20.36-44.48-32.58-80.7-32.58-69.87,0-127.53,61.3-127.53,140.71,0,79.41,57.66,140.71,127.53,140.71,36.22,0,62.8-12.11,80.81-32.58,4.39,14.9,18,25.18,33.54,25.18h45.23s0-266.64,0-266.64h-45.33ZM1219.34,479.81c-34.72,0-61.3-25.08-61.3-62.91,0-37.83,26.58-62.8,61.3-62.8s61.41,25.08,61.41,62.8c0,37.72-26.69,62.91-61.41,62.91Z" style=""/>
    </g>
    <rect id="dot" class="orca-blue" x="379.64" y="622.3" width="125.07" height="37.87" style="fill: rgb(255, 255, 255);"/>
    <g id="Security">
      <path id="S" class="white" d="M613.78,673.97v-14.68s.14,0,.14,0c13.19,6.17,28.66,9.86,42.25,9.86,14.53,0,22.21-4.03,22.21-10.54,0-6.39-5.92-8.52-28.4-11.77-18.71-2.8-35.39-7.17-35.39-21.86,0-13,13.19-24.78,41.04-24.78,11.98,0,25.43,2.69,35.53,7.51v14.68s-.14,0-.14,0c-10.9-5.83-24.49-9.08-36.74-9.08-14.53,0-21.67,4.15-21.67,10.2,0,7.29,11.03,8.63,27.99,11.32,18.84,2.8,35.79,6.95,35.79,22.87,0,10.09-7.67,24.55-40.37,24.55-17.63,0-31.22-3.58-42.25-8.29Z" style=""/>
      <path id="E" class="white" d="M716.7,602.12h77.37s.54,12.88.54,12.88h-60.82s0,18.39,0,18.39h49.52s0,12.89,0,12.89h-49.52s0,21.19,0,21.19h62.98s-.67,13-.67,13h-79.39s0-78.34,0-78.34Z" style=""/>
      <path id="C" class="white" d="M807.64,641.57c0-22.09,18.44-41.26,52.75-41.26,15.34,0,27.59,4.71,34.99,9.42v14.69s-.14,0-.14,0c-9.96-5.72-20.32-11.1-35.26-11.1-21.8,0-34.58,12.11-34.58,28.14,0,15.81,11.98,27.69,34.32,27.69,14.8,0,25.7-4.59,35.52-10.76h.14s0,14.69,0,14.69c-7.13,4.37-20.05,9.08-36.74,9.08-35.12,0-51-18.61-51-40.58Z" style=""/>
      <path id="U" class="white" d="M917.55,650.31v-48.19s17.22,0,17.22,0v47.51c0,14.58,12.38,19.4,27.05,19.4,14.67,0,27.05-4.71,27.05-18.95v-47.96s17.22,0,17.22,0v47.74c0,23.65-19.24,32.4-44.54,32.4-25.3,0-44-8.74-44-31.95Z" style=""/>
      <path id="R" class="white" d="M1031.63,601.99h49.12c23.55,0,35.12,9.41,35.12,26.34,0,12.89-7.4,21.64-21.53,24.88l25.03,27.24h-20.32s-21.8-24.66-21.8-24.66h-28.4s0,24.66,0,24.66h-17.22s0-78.47,0-78.47ZM1080.21,643.14c13.32,0,18.17-6.17,18.17-14.13,0-8.07-4.84-14.01-18.17-14.01h-31.36s0,28.14,0,28.14h31.36Z" style=""/>
      <path id="I" class="white" d="M1136.9,602.12h17.22s0,78.34,0,78.34h-17.22s0-78.34,0-78.34Z" style=""/>
      <path id="T" class="white" d="M1209.47,616.13h-33.19s0-14,0-14h69.52s9.84,14,9.84,14h-28.95s0,65.24,0,65.24h-17.22s0-65.24,0-65.24Z" style=""/>
      <path id="Y" class="white" d="M1306.59,653.45l-42.39-51.32h20.19s30.27,37.42,30.27,37.42h1.35s30.81-37.42,30.81-37.42h19.51s-42.52,51.1-42.52,51.1v27.24s-17.22,0-17.22,0v-27.02Z" style=""/>
    </g>
  </g>
</svg>