<?xml version="1.0" encoding="utf-8"?>
<svg width="69px" viewBox="0 0 78 26" version="1.1" xmlns="http://www.w3.org/2000/svg" style="fill-rule:evenodd;clip-rule:evenodd;stroke-linejoin:round;stroke-miterlimit:2;" height="26px">
  <g id="Layer1" transform="matrix(1.153643, 0, 0, 1.153643, -0.758237, -1.540113)">
    <path d="M10.557,1.664l-0.05,21.376c-0,0 -1.263,3.386 -7.244,-3.501c-4.066,-4.682 -2.159,-15.654 -2.159,-15.654c-0,-1.337 9.28,-2.553 9.453,-2.221Z" style="fill: rgb(255, 255, 255);"/>
    <path d="M10.556,16.462c0,-0 -11.61,-1.66 -9.638,-12.488c0.355,-1.946 9.689,-2.639 9.689,-2.639l-0.051,15.127Z" style="fill: rgb(235, 233, 233);"/>
    <path d="M12.068,16.109c-0.081,2.336 11.833,-2.722 7.382,-12.629c-0.474,-1.055 -7.469,-1.839 -7.469,-1.839c-0,0 0.132,13.187 0.087,14.468Z" style="fill: rgb(235, 233, 233);"/>
  </g>
  <g transform="matrix(1.153643, 0, 0, 1.153643, -0.758237, -1.540113)">
    <g>
      <g>
        <path d="M26.881,17.527l1.794,-0l-0,-4.171l1.359,-0c2.05,-0 3.552,-1.032 3.552,-2.911c-0,-1.901 -1.502,-2.975 -3.552,-2.975l-3.153,-0l-0,10.057Zm1.794,-5.858l-0,-2.513l1.359,0c1.224,0 1.758,0.47 1.758,1.289c0,0.797 -0.519,1.224 -1.758,1.224l-1.359,-0Z" style="fill:#fff;fill-rule:nonzero;"/>
      </g>
    </g>
  </g>
  <g transform="matrix(1.153643, 0, 0, 1.153643, -0.758237, -1.540113)">
    <g>
      <g>
        <path d="M37.884,17.669c1.196,0 2.142,-0.42 2.918,-1.281l-1.196,-1.047c-0.497,0.555 -1.067,0.755 -1.708,0.755c-1.117,-0 -1.629,-0.627 -1.779,-1.559l4.883,0c0.035,-0.1 0.063,-0.392 0.063,-0.683c0,-1.588 -0.804,-3.587 -3.295,-3.587c-2.405,0 -3.487,1.879 -3.487,3.73c-0,1.914 1.152,3.672 3.601,3.672Zm-1.765,-4.384c0.163,-0.89 0.612,-1.559 1.637,-1.559c0.904,0 1.488,0.54 1.601,1.559l-3.238,-0Z" style="fill:#fff;fill-rule:nonzero;"/>
      </g>
    </g>
  </g>
  <g transform="matrix(1.153643, 0, 0, 1.153643, -0.758237, -1.540113)">
    <g>
      <g>
        <path d="M42.517,17.527l1.68,-0l0,-3.004c0,-1.808 0.847,-2.562 1.659,-2.562c0.277,-0 0.54,0.085 0.775,0.242l0.79,-1.424c-0.341,-0.349 -0.833,-0.512 -1.302,-0.512c-0.797,0 -1.602,0.483 -1.908,1.345l-0,-1.196l-1.694,-0l-0,7.111Z" style="fill:#fff;fill-rule:nonzero;"/>
      </g>
    </g>
  </g>
  <g transform="matrix(1.153643, 0, 0, 1.153643, -0.758237, -1.540113)">
    <g>
      <g>
        <path d="M48.275,9.071l1.808,-0l-0,-1.601l-1.808,-0l-0,1.601Zm0.042,8.456l1.723,-0l0,-7.111l-1.723,-0l0,7.111Z" style="fill:#fff;fill-rule:nonzero;"/>
      </g>
    </g>
  </g>
  <g transform="matrix(1.153643, 0, 0, 1.153643, -0.758237, -1.540113)">
    <g>
      <g>
        <path d="M54.247,17.669c1.344,0 2.775,-0.726 2.775,-2.37c0,-2.613 -3.615,-1.972 -3.615,-3.046c-0,-0.335 0.348,-0.613 0.918,-0.613c0.768,-0 1.167,0.463 1.409,0.904l1.345,-0.733c-0.541,-0.961 -1.473,-1.544 -2.697,-1.544c-1.374,0 -2.641,0.711 -2.641,2.213c0,2.513 3.573,1.709 3.573,2.904c-0,0.377 -0.348,0.847 -1.153,0.847c-0.946,-0 -1.324,-0.655 -1.516,-1.167l-1.381,0.612c0.349,1.096 1.487,1.993 2.983,1.993Z" style="fill:#fff;fill-rule:nonzero;"/>
      </g>
    </g>
  </g>
  <g transform="matrix(1.153643, 0, 0, 1.153643, -0.758237, -1.540113)">
    <g>
      <g>
        <path d="M61.53,17.669c1.054,0 2.071,-0.491 2.57,-1.601l-0,1.459l0.769,-0l-0,-4.371c-0,-1.736 -0.933,-2.889 -2.713,-2.889c-1.117,0 -1.978,0.483 -2.605,1.359l0.641,0.505c0.349,-0.477 0.975,-1.089 2.042,-1.089c1.381,0 1.838,1.019 1.838,2.463l-1.581,0c-2.128,0 -3.203,0.697 -3.203,2.1c0,1.295 0.932,2.064 2.242,2.064Zm0.092,-0.754c-0.761,-0 -1.402,-0.349 -1.402,-1.296c0,-1.067 0.819,-1.417 2.378,-1.417l1.474,0c-0,1.211 -0.876,2.713 -2.45,2.713Z" style="fill:#fff;fill-rule:nonzero;"/>
      </g>
    </g>
  </g>
  <g transform="matrix(1.153643, 0, 0, 1.153643, -0.758237, -1.540113)">
    <g>
      <g>
        <path d="M67.102,8.779l1.061,0l0,-1.309l-1.061,-0l0,1.309Zm0.087,8.748l0.889,-0l0,-7.111l-0.889,-0l-0,7.111Z" style="fill:#fff;fill-rule:nonzero;"/>
      </g>
    </g>
  </g>
  <g transform="matrix(1.153643, 0, 0, 1.153643, -0.758237, -1.540113)">
    <g>
      <g>
        <rect x="57.317" y="16.274" width="1.324" height="1.253" style="fill:#fff;fill-rule:nonzero;"/>
      </g>
    </g>
  </g>
</svg>