<?xml version="1.0" encoding="utf-8"?>
<svg xmlns="http://www.w3.org/2000/svg" width="154px" zoomAndPan="magnify" viewBox="0 0 154 26" height="26px" preserveAspectRatio="xMinYMin" version="1.0">
  <defs>
    <g/>
    <clipPath id="b5e19b5683">
      <path d="M 117 350.144531 L 133 350.144531 L 133 439 L 117 439 Z M 117 350.144531 " clip-rule="nonzero"/>
    </clipPath>
    <clipPath id="05ec8e1c93">
      <path d="M 81 354 L 170 354 L 170 459.644531 L 81 459.644531 Z M 81 354 " clip-rule="nonzero"/>
    </clipPath>
  </defs>
  <g clip-path="url(#b5e19b5683)" transform="matrix(0.237587, 0, 0, 0.237587, -19.244522, -83.205452)">
    <path d="M 117.648438 350.210938 L 132.40625 350.210938 L 132.40625 438.457031 L 117.648438 438.457031 Z M 117.648438 350.210938 " fill-opacity="1" fill-rule="nonzero" style="fill: rgb(255, 255, 255);"/>
  </g>
  <g clip-path="url(#05ec8e1c93)" transform="matrix(0.237587, 0, 0, 0.237587, -19.244522, -83.205452)">
    <path d="M 135.980469 459.742188 L 150.730469 450.601562 L 150.730469 374.199219 C 146.304688 370.917969 141.386719 368.738281 135.980469 367.664062 Z M 99.277344 450.648438 L 114.035156 459.785156 L 114.035156 367.710938 C 108.632812 368.769531 103.710938 370.933594 99.277344 374.199219 Z M 154.304688 354.402344 L 154.304688 449.003906 L 161.160156 444.753906 C 162.386719 443.945312 163.496094 443 164.484375 441.910156 C 165.472656 440.824219 166.308594 439.632812 166.996094 438.335938 C 167.683594 437.039062 168.199219 435.675781 168.546875 434.246094 C 168.890625 432.820312 169.050781 431.371094 169.03125 429.902344 L 169.03125 385.222656 C 169.066406 372.339844 154.304688 354.402344 154.304688 354.402344 Z M 81 429.867188 C 80.976562 431.335938 81.136719 432.785156 81.480469 434.214844 C 81.824219 435.640625 82.339844 437.003906 83.027344 438.304688 C 83.71875 439.601562 84.554688 440.792969 85.542969 441.878906 C 86.535156 442.964844 87.644531 443.914062 88.871094 444.71875 L 95.726562 448.96875 L 95.726562 354.402344 C 95.726562 354.402344 81 372.339844 81 385.222656 Z M 81 429.867188 " fill-opacity="1" fill-rule="evenodd" style="fill: rgb(255, 255, 255);"/>
  </g>
  <path d="M 104.948 21.213 L 104.948 4.68 L 107.479 3.616 L 107.479 21.213 L 104.948 21.213 Z M 100.965 14.286 C 100.978 13.836 100.896 13.403 100.722 12.985 C 100.547 12.569 100.294 12.207 99.963 11.902 C 99.638 11.605 99.27 11.38 98.859 11.227 C 98.447 11.073 98.023 11 97.583 11.011 C 97.148 10.999 96.728 11.07 96.321 11.224 C 95.914 11.379 95.552 11.604 95.234 11.902 C 94.911 12.216 94.654 12.58 94.467 12.991 C 94.279 13.403 94.173 13.835 94.149 14.286 L 100.965 14.286 Z M 97.534 21.412 C 95.754 21.412 94.307 20.839 93.191 19.696 C 92.075 18.552 91.52 17.036 91.528 15.145 C 91.528 13.255 92.091 11.742 93.218 10.604 C 94.346 9.465 95.803 8.899 97.59 8.902 C 99.38 8.902 100.827 9.444 101.933 10.531 C 103.039 11.617 103.595 13.042 103.602 14.808 C 103.604 15.206 103.574 15.601 103.513 15.994 L 94.122 15.994 C 94.13 16.447 94.222 16.883 94.401 17.3 C 94.58 17.717 94.832 18.084 95.157 18.401 C 95.477 18.701 95.842 18.927 96.254 19.081 C 96.663 19.236 97.087 19.306 97.525 19.292 C 98.906 19.292 99.878 18.728 100.44 17.598 L 103.179 17.598 C 103 18.154 102.738 18.668 102.394 19.139 C 102.05 19.611 101.638 20.017 101.163 20.355 C 100.629 20.722 100.054 20.996 99.434 21.176 C 98.812 21.357 98.179 21.434 97.534 21.412 Z M 81.621 9.1 L 81.621 11 C 82.435 9.595 83.741 8.891 85.538 8.891 C 85.852 8.881 86.167 8.903 86.478 8.957 C 86.79 9.012 87.092 9.097 87.386 9.213 C 87.68 9.331 87.958 9.476 88.222 9.65 C 88.486 9.824 88.729 10.024 88.952 10.249 C 89.857 11.152 90.309 12.419 90.309 14.048 L 90.309 21.213 L 87.796 21.213 L 87.796 14.441 C 87.796 13.356 87.525 12.525 86.982 11.947 C 86.686 11.648 86.343 11.423 85.951 11.273 C 85.559 11.121 85.154 11.057 84.733 11.079 C 84.31 11.054 83.899 11.116 83.502 11.267 C 83.106 11.417 82.756 11.642 82.455 11.941 C 81.899 12.519 81.621 13.35 81.621 14.435 L 81.621 21.213 L 79.083 21.213 L 79.083 9.1 L 81.621 9.1 Z M 74.366 21.213 L 74.366 9.1 L 76.903 9.1 L 76.903 21.213 L 74.366 21.213 Z M 72.529 11.145 L 69.544 11.145 L 69.544 17.848 C 69.526 18.027 69.545 18.201 69.602 18.371 C 69.658 18.541 69.746 18.693 69.866 18.827 C 70.08 19.026 70.447 19.124 70.968 19.124 L 72.526 19.124 L 72.526 21.213 L 70.523 21.213 C 68.171 21.213 66.995 20.091 66.995 17.848 L 66.995 7.149 L 69.554 6.086 L 69.554 9.1 L 72.539 9.1 L 72.529 11.145 Z M 57.143 9.1 L 57.143 11 C 57.95 9.602 59.257 8.902 61.067 8.902 C 61.384 8.891 61.697 8.914 62.009 8.969 C 62.32 9.024 62.623 9.109 62.916 9.227 C 63.211 9.341 63.49 9.487 63.754 9.662 C 64.018 9.836 64.262 10.034 64.484 10.258 C 65.389 11.164 65.842 12.431 65.842 14.06 L 65.842 21.213 L 63.325 21.213 L 63.325 14.441 C 63.325 13.356 63.055 12.525 62.511 11.947 C 62.216 11.648 61.873 11.423 61.479 11.273 C 61.089 11.121 60.684 11.057 60.263 11.079 C 59.837 11.052 59.426 11.115 59.026 11.265 C 58.625 11.416 58.275 11.641 57.973 11.941 C 57.418 12.519 57.138 13.35 57.137 14.435 L 57.137 21.213 L 54.602 21.213 L 54.602 9.1 L 57.143 9.1 Z M 50.628 14.286 C 50.642 13.836 50.561 13.403 50.385 12.985 C 50.211 12.569 49.958 12.207 49.627 11.902 C 49.3 11.602 48.928 11.376 48.514 11.222 C 48.098 11.069 47.669 10.997 47.224 11.011 C 46.791 10.999 46.37 11.07 45.964 11.224 C 45.557 11.379 45.195 11.604 44.877 11.902 C 44.552 12.216 44.296 12.578 44.108 12.991 C 43.92 13.403 43.814 13.835 43.792 14.286 L 50.628 14.286 Z M 47.187 21.412 C 45.406 21.412 43.959 20.839 42.844 19.696 C 41.73 18.552 41.175 17.036 41.178 15.145 C 41.178 13.255 41.741 11.742 42.87 10.604 C 43.996 9.465 45.454 8.899 47.241 8.902 C 49.029 8.902 50.476 9.444 51.584 10.531 C 52.691 11.617 53.248 13.042 53.254 14.808 C 53.256 15.206 53.226 15.601 53.163 15.994 L 43.773 15.994 C 43.78 16.447 43.873 16.884 44.053 17.3 C 44.232 17.717 44.484 18.084 44.81 18.401 C 45.13 18.701 45.496 18.927 45.905 19.082 C 46.317 19.236 46.74 19.306 47.18 19.292 C 48.557 19.292 49.528 18.728 50.093 17.598 L 52.83 17.598 C 52.651 18.154 52.388 18.668 52.044 19.139 C 51.698 19.611 51.289 20.017 50.813 20.355 C 50.281 20.722 49.706 20.996 49.086 21.176 C 48.466 21.357 47.832 21.434 47.187 21.412 Z M 34.542 7.781 C 34.211 7.766 33.886 7.808 33.57 7.905 C 33.252 8.003 32.962 8.152 32.697 8.35 C 32.452 8.556 32.267 8.805 32.142 9.097 C 32.017 9.389 31.963 9.695 31.983 10.012 C 31.975 10.176 31.99 10.337 32.024 10.498 C 32.06 10.657 32.115 10.811 32.191 10.955 C 32.266 11.101 32.36 11.234 32.469 11.356 C 32.579 11.477 32.703 11.581 32.841 11.671 C 33.469 12.081 34.151 12.359 34.887 12.507 C 35.688 12.687 36.486 12.888 37.288 13.112 C 38.09 13.338 38.77 13.765 39.327 14.385 C 39.889 14.997 40.169 15.871 40.172 17.002 C 40.174 18.131 39.691 19.142 38.725 20.032 C 37.761 20.927 36.47 21.38 34.855 21.389 C 33.239 21.398 31.926 21.024 30.916 20.266 C 30.671 20.091 30.452 19.887 30.258 19.658 C 30.065 19.428 29.901 19.178 29.768 18.908 C 29.635 18.637 29.54 18.355 29.477 18.058 C 29.415 17.765 29.389 17.467 29.401 17.167 L 32.115 17.167 C 32.132 17.474 32.203 17.766 32.336 18.045 C 32.467 18.322 32.646 18.567 32.874 18.772 C 33.318 19.167 33.971 19.365 34.832 19.365 C 35.2 19.385 35.561 19.339 35.911 19.225 C 36.263 19.112 36.582 18.938 36.868 18.705 C 36.971 18.616 37.065 18.516 37.151 18.409 C 37.235 18.3 37.309 18.185 37.372 18.063 C 37.434 17.941 37.485 17.814 37.524 17.681 C 37.561 17.55 37.588 17.416 37.601 17.279 C 37.615 17.142 37.615 17.006 37.603 16.869 C 37.589 16.733 37.564 16.598 37.527 16.467 C 37.488 16.336 37.437 16.207 37.375 16.085 C 37.314 15.963 37.239 15.848 37.156 15.739 C 36.829 15.383 36.436 15.13 35.977 14.979 C 35.457 14.801 34.926 14.65 34.388 14.528 C 33.808 14.398 33.226 14.245 32.638 14.067 C 32.08 13.902 31.545 13.675 31.038 13.386 C 30.531 13.088 30.138 12.681 29.857 12.164 C 29.531 11.55 29.379 10.894 29.401 10.2 C 29.391 9.893 29.416 9.59 29.476 9.289 C 29.536 8.988 29.629 8.698 29.755 8.419 C 29.881 8.139 30.038 7.878 30.224 7.635 C 30.41 7.391 30.622 7.171 30.859 6.978 C 31.831 6.162 33.091 5.757 34.643 5.757 C 36.193 5.757 37.431 6.1 38.358 6.785 C 39.287 7.489 39.802 8.507 39.905 9.841 L 37.102 9.841 C 37.075 9.555 36.998 9.285 36.867 9.031 C 36.735 8.775 36.561 8.554 36.343 8.367 C 36.092 8.161 35.81 8.006 35.498 7.905 C 35.188 7.803 34.868 7.762 34.542 7.781 Z M 144.623 9.788 C 143.781 9.78 142.98 9.96 142.225 10.332 C 141.856 10.517 141.521 10.751 141.222 11.033 C 140.921 11.315 140.666 11.634 140.457 11.988 C 139.973 12.839 139.74 13.754 139.757 14.735 L 149.275 14.735 C 149.319 14.258 149.292 13.784 149.198 13.316 C 149.103 12.847 148.943 12.4 148.72 11.978 C 148.521 11.619 148.274 11.3 147.979 11.017 C 147.682 10.733 147.351 10.502 146.985 10.322 C 146.24 9.958 145.453 9.783 144.623 9.788 Z M 144.579 20.295 C 145.126 20.315 145.661 20.246 146.187 20.091 C 146.712 19.936 147.198 19.702 147.646 19.389 C 148.056 19.097 148.392 18.736 148.655 18.307 C 148.918 17.878 149.086 17.415 149.159 16.917 L 150.204 16.917 C 150.108 17.523 149.903 18.088 149.59 18.616 C 149.277 19.143 148.876 19.593 148.39 19.968 C 147.407 20.738 146.15 21.124 144.623 21.124 C 143.55 21.145 142.539 20.9 141.591 20.394 C 141.15 20.151 140.751 19.85 140.396 19.494 C 140.04 19.134 139.743 18.734 139.505 18.291 C 139.241 17.789 139.047 17.263 138.919 16.71 C 138.791 16.158 138.734 15.599 138.751 15.033 C 138.722 13.896 138.974 12.824 139.505 11.817 C 139.743 11.374 140.038 10.973 140.393 10.616 C 140.746 10.258 141.143 9.957 141.584 9.714 C 142.53 9.206 143.541 8.963 144.615 8.984 C 145.144 8.97 145.664 9.025 146.178 9.149 C 146.693 9.273 147.181 9.461 147.646 9.714 C 148.052 9.936 148.418 10.212 148.748 10.537 C 149.076 10.865 149.353 11.228 149.579 11.632 C 150.021 12.422 150.24 13.267 150.237 14.17 C 150.234 14.559 150.196 14.945 150.125 15.327 L 139.757 15.327 C 139.739 16.316 139.971 17.243 140.457 18.106 C 140.663 18.461 140.916 18.78 141.214 19.061 C 141.514 19.343 141.846 19.577 142.213 19.762 C 142.961 20.125 143.749 20.304 144.579 20.295 Z M 132.217 8.896 C 133.64 8.896 134.795 9.332 135.686 10.204 C 136.576 11.078 137.02 12.362 137.019 14.061 L 137.019 20.972 L 136.02 20.972 L 136.02 14.113 C 136.02 12.692 135.657 11.602 134.934 10.857 C 134.213 10.109 133.217 9.733 131.949 9.733 C 131.657 9.72 131.367 9.738 131.08 9.787 C 130.792 9.836 130.514 9.915 130.242 10.022 C 129.97 10.131 129.713 10.267 129.472 10.428 C 129.229 10.592 129.005 10.777 128.803 10.987 C 128.01 11.823 127.615 13.054 127.615 14.68 L 127.615 20.972 L 126.615 20.972 L 126.615 9.136 L 127.615 9.136 L 127.615 12.254 C 127.733 11.745 127.94 11.274 128.233 10.842 C 128.525 10.41 128.888 10.045 129.315 9.747 C 129.744 9.459 130.207 9.243 130.701 9.098 C 131.196 8.954 131.701 8.887 132.217 8.896 Z M 117.168 6.633 C 116.586 6.625 116.014 6.693 115.449 6.838 C 114.886 6.982 114.351 7.198 113.846 7.486 C 113.349 7.769 112.904 8.118 112.507 8.529 C 112.111 8.94 111.778 9.398 111.512 9.903 C 111.215 10.468 110.996 11.061 110.851 11.683 C 110.705 12.303 110.641 12.933 110.656 13.569 C 110.641 14.207 110.707 14.835 110.851 15.455 C 110.996 16.075 111.217 16.666 111.512 17.231 C 111.778 17.736 112.111 18.196 112.507 18.605 C 112.905 19.017 113.349 19.365 113.846 19.65 C 114.099 19.789 114.36 19.911 114.628 20.018 C 114.896 20.124 115.17 20.212 115.451 20.283 C 115.729 20.355 116.013 20.409 116.299 20.446 C 116.586 20.482 116.872 20.5 117.162 20.5 C 117.451 20.5 117.738 20.482 118.024 20.446 C 118.312 20.409 118.595 20.355 118.874 20.283 C 119.153 20.212 119.428 20.124 119.697 20.018 C 119.965 19.911 120.226 19.789 120.479 19.65 C 120.975 19.365 121.424 19.018 121.823 18.608 C 122.221 18.197 122.555 17.736 122.823 17.231 C 123.118 16.666 123.339 16.075 123.484 15.455 C 123.628 14.835 123.694 14.207 123.679 13.569 C 123.694 12.933 123.628 12.306 123.484 11.686 C 123.339 11.066 123.118 10.473 122.823 9.909 C 122.555 9.402 122.223 8.943 121.823 8.532 C 121.425 8.121 120.977 7.774 120.479 7.49 C 119.974 7.204 119.442 6.987 118.88 6.842 C 118.318 6.698 117.747 6.627 117.168 6.633 Z M 117.168 5.741 C 117.847 5.73 118.516 5.809 119.175 5.978 C 119.832 6.146 120.457 6.398 121.048 6.733 C 121.618 7.058 122.13 7.456 122.588 7.927 C 123.044 8.397 123.427 8.921 123.735 9.499 C 124.065 10.127 124.312 10.784 124.476 11.474 C 124.639 12.163 124.715 12.862 124.703 13.569 C 124.713 14.276 124.637 14.972 124.475 15.659 C 124.311 16.345 124.063 17 123.735 17.625 C 123.425 18.204 123.042 18.731 122.586 19.203 C 122.129 19.677 121.618 20.078 121.048 20.407 C 120.753 20.571 120.449 20.716 120.135 20.841 C 119.82 20.966 119.5 21.072 119.174 21.157 C 118.846 21.24 118.515 21.304 118.179 21.348 C 117.844 21.391 117.507 21.412 117.17 21.412 C 116.832 21.412 116.497 21.391 116.16 21.348 C 115.825 21.304 115.494 21.24 115.167 21.157 C 114.84 21.072 114.519 20.966 114.206 20.841 C 113.892 20.716 113.588 20.571 113.291 20.407 C 112.719 20.078 112.202 19.675 111.741 19.203 C 111.279 18.729 110.892 18.201 110.577 17.619 C 110.248 16.997 110 16.343 109.837 15.656 C 109.673 14.97 109.598 14.276 109.611 13.569 C 109.598 12.862 109.674 12.163 109.84 11.471 C 110.005 10.783 110.255 10.125 110.588 9.499 C 110.901 8.918 111.288 8.392 111.75 7.92 C 112.211 7.447 112.728 7.049 113.303 6.723 C 113.892 6.391 114.513 6.14 115.17 5.973 C 115.825 5.808 116.491 5.73 117.168 5.741 Z M 117.168 5.741" fill-opacity="1" fill-rule="evenodd" style="fill: rgb(255, 255, 255);"/>
  <path d="M 152.931 10.733 L 152.66 10.325 L 152.436 10.325 L 152.436 10.733 L 152.165 10.733 L 152.165 9.45 L 152.752 9.45 C 153.055 9.45 153.238 9.61 153.238 9.873 C 153.243 9.963 153.219 10.043 153.168 10.116 C 153.117 10.191 153.05 10.242 152.967 10.27 L 153.281 10.729 L 152.931 10.733 Z M 152.931 9.89 C 152.931 9.768 152.848 9.705 152.709 9.705 L 152.436 9.705 L 152.436 10.075 L 152.723 10.075 C 152.861 10.075 152.939 10.002 152.939 9.893 L 152.931 9.89 Z M 152.931 9.89" fill-opacity="1" fill-rule="nonzero" style="fill: rgb(255, 255, 255);"/>
  <path d="M 152.641 11.443 C 152.554 11.443 152.468 11.435 152.384 11.417 C 152.298 11.401 152.217 11.376 152.135 11.343 C 152.056 11.31 151.98 11.27 151.909 11.222 C 151.836 11.175 151.769 11.119 151.708 11.058 C 151.647 10.997 151.591 10.93 151.545 10.859 C 151.496 10.787 151.456 10.711 151.421 10.631 C 151.389 10.552 151.363 10.468 151.347 10.385 C 151.331 10.3 151.322 10.213 151.322 10.127 C 151.322 10.04 151.331 9.954 151.347 9.87 C 151.363 9.786 151.389 9.704 151.421 9.623 C 151.454 9.543 151.496 9.467 151.542 9.395 C 151.591 9.324 151.647 9.256 151.708 9.195 C 151.769 9.134 151.836 9.079 151.907 9.031 C 151.979 8.984 152.055 8.942 152.135 8.909 C 152.214 8.876 152.296 8.853 152.383 8.835 C 152.466 8.818 152.553 8.811 152.639 8.811 C 152.726 8.811 152.81 8.818 152.897 8.835 C 152.98 8.853 153.064 8.876 153.143 8.911 C 153.223 8.943 153.299 8.985 153.371 9.033 C 153.442 9.081 153.508 9.134 153.571 9.197 C 153.632 9.258 153.685 9.325 153.733 9.397 C 153.782 9.468 153.822 9.544 153.855 9.625 C 153.888 9.705 153.913 9.787 153.93 9.872 C 153.946 9.957 153.954 10.042 153.954 10.128 C 153.954 10.215 153.946 10.301 153.928 10.385 C 153.912 10.47 153.887 10.552 153.854 10.631 C 153.821 10.711 153.779 10.786 153.733 10.859 C 153.684 10.93 153.63 10.996 153.569 11.057 C 153.508 11.118 153.442 11.172 153.371 11.221 C 153.298 11.268 153.223 11.309 153.143 11.341 C 153.064 11.376 152.982 11.4 152.897 11.417 C 152.812 11.434 152.727 11.443 152.641 11.443 Z M 152.641 9.1 C 152.574 9.1 152.506 9.107 152.441 9.119 C 152.374 9.133 152.31 9.152 152.247 9.179 C 152.185 9.204 152.126 9.236 152.07 9.273 C 152.013 9.312 151.961 9.353 151.913 9.401 C 151.866 9.45 151.824 9.501 151.785 9.557 C 151.748 9.614 151.717 9.674 151.69 9.735 C 151.664 9.797 151.645 9.862 151.632 9.929 C 151.62 9.994 151.612 10.061 151.612 10.128 C 151.612 10.197 151.62 10.264 151.632 10.329 C 151.645 10.397 151.664 10.461 151.69 10.522 C 151.717 10.584 151.748 10.644 151.785 10.701 C 151.824 10.756 151.866 10.808 151.913 10.857 C 151.961 10.903 152.013 10.946 152.07 10.985 C 152.126 11.021 152.185 11.054 152.247 11.079 C 152.31 11.106 152.374 11.125 152.441 11.137 C 152.506 11.151 152.574 11.157 152.641 11.157 C 152.709 11.157 152.776 11.151 152.842 11.137 C 152.907 11.125 152.973 11.106 153.034 11.079 C 153.097 11.054 153.156 11.021 153.213 10.985 C 153.268 10.946 153.32 10.903 153.368 10.857 C 153.416 10.808 153.459 10.756 153.496 10.701 C 153.533 10.644 153.565 10.584 153.591 10.522 C 153.617 10.461 153.636 10.397 153.65 10.329 C 153.663 10.264 153.669 10.197 153.669 10.128 C 153.669 10.061 153.663 9.994 153.65 9.929 C 153.636 9.862 153.617 9.797 153.591 9.735 C 153.565 9.674 153.533 9.614 153.496 9.557 C 153.459 9.501 153.416 9.45 153.368 9.401 C 153.32 9.353 153.268 9.312 153.213 9.273 C 153.156 9.236 153.097 9.204 153.034 9.179 C 152.973 9.152 152.907 9.133 152.842 9.119 C 152.776 9.107 152.709 9.1 152.641 9.1 Z M 152.641 9.1" fill-opacity="1" fill-rule="nonzero" style="fill: rgb(255, 255, 255);"/>
</svg>