<?xml version="1.0" encoding="utf-8"?>
<svg xmlns="http://www.w3.org/2000/svg" width="70.087px" height="26px" viewBox="0 0 70 26" fill="none">
  <path d="M 69.327 2.098 C 68.935 1.666 68.413 1.445 67.781 1.445 C 67.148 1.445 66.626 1.666 66.255 2.108 C 65.894 2.53 65.703 3.062 65.703 3.684 L 65.703 15.269 C 65.703 16.272 65.472 17.156 65.01 17.889 C 64.548 18.622 63.936 19.194 63.193 19.595 C 62.45 19.997 61.637 20.198 60.764 20.198 C 59.961 20.198 59.197 19.997 58.485 19.595 C 57.772 19.194 57.2 18.622 56.768 17.889 C 56.337 17.156 56.116 16.272 56.116 15.259 L 56.116 3.684 C 56.116 3.052 55.885 2.52 55.433 2.088 C 54.981 1.666 54.469 1.456 53.917 1.456 C 53.245 1.456 52.683 1.666 52.251 2.098 C 51.809 2.53 51.588 3.062 51.588 3.694 L 51.588 15.279 C 51.588 17.086 51.98 18.722 52.763 20.117 C 53.546 21.523 54.63 22.637 56.005 23.42 C 57.371 24.213 58.977 24.605 60.774 24.605 C 62.561 24.605 64.167 24.203 65.522 23.41 C 66.887 22.617 67.971 21.503 68.745 20.107 C 69.517 18.702 69.919 17.076 69.919 15.269 L 69.919 3.684 C 69.909 3.062 69.718 2.53 69.327 2.098 Z" style="fill: rgb(255, 255, 255);"/>
  <path d="M 48.105 2.088 C 47.653 1.686 47.121 1.486 46.519 1.486 C 45.585 1.486 44.903 1.947 44.491 2.881 L 38.829 17.427 L 32.645 2.871 C 32.234 1.927 31.551 1.445 30.618 1.445 C 30.156 1.445 29.664 1.636 29.162 1.998 C 28.64 2.389 28.369 2.941 28.369 3.654 C 28.369 3.795 28.379 3.945 28.409 4.096 C 28.429 4.266 28.489 4.427 28.56 4.578 L 36.49 23.209 C 36.681 23.651 36.972 23.982 37.334 24.223 C 37.695 24.454 38.076 24.584 38.468 24.605 C 38.889 24.605 39.301 24.494 39.693 24.263 C 40.094 24.032 40.415 23.671 40.626 23.189 L 48.567 4.608 C 48.707 4.276 48.778 3.945 48.778 3.634 C 48.788 3.011 48.557 2.489 48.105 2.088 Z" style="fill: rgb(255, 255, 255);"/>
  <path d="M 17.136 22.537 C 15.891 23.079 14.576 23.37 13.211 23.39 C 8.021 23.49 3.483 19.706 2.731 14.576 C 1.787 8.161 6.756 2.62 13 2.62 C 13.231 2.62 13.462 2.63 13.683 2.64 C 13.291 1.496 13.743 0.512 14.124 0.06 L 14.124 0.05 C 13.753 0.02 13.381 0 13 0 C 5.832 0 0 5.832 0 13 C 0 20.168 5.832 26 13 26 C 14.827 26 16.594 25.629 18.25 24.896 C 18.953 24.585 19.244 23.731 18.852 23.049 C 18.511 22.466 17.758 22.266 17.136 22.537 Z" style="fill: rgb(255, 255, 255);"/>
  <path d="M 23.48 5.341 C 22.225 3.634 20.579 2.279 18.722 1.365 C 18.863 2.409 18.431 3.273 17.768 3.795 L 17.768 3.805 C 19.174 4.527 20.419 5.582 21.372 6.887 C 21.804 7.469 22.617 7.599 23.199 7.168 C 23.781 6.736 23.902 5.923 23.48 5.341 Z" style="fill: rgb(255, 255, 255);"/>
  <path d="M 16.142 3.002 C 16.835 3.002 17.397 2.44 17.397 1.747 C 17.397 1.054 16.835 0.492 16.142 0.492 C 15.45 0.492 14.887 1.054 14.887 1.747 C 14.887 2.44 15.45 3.002 16.142 3.002 Z" style="fill: rgb(255, 255, 255);"/>
  <path d="M 16.946 5.994 L 16.243 8.644 C 16.685 8.965 17.077 9.357 17.408 9.809 C 18.1 10.752 18.462 11.867 18.462 13.031 C 18.462 15.189 17.187 17.157 15.209 18.03 C 14.517 18.342 13.774 18.492 13.001 18.492 C 9.989 18.492 7.54 16.043 7.54 13.031 C 7.54 10.14 9.798 7.771 12.639 7.59 L 13.342 4.97 C 13.232 4.96 13.121 4.96 13.001 4.96 C 8.554 4.96 4.93 8.584 4.93 13.031 C 4.93 17.478 8.554 21.102 13.001 21.102 C 14.135 21.102 15.229 20.871 16.263 20.42 C 19.185 19.125 21.072 16.223 21.072 13.031 C 21.072 11.304 20.53 9.648 19.506 8.263 C 18.813 7.319 17.94 6.546 16.946 5.994 Z" style="fill: rgb(255, 255, 255);"/>
  <path d="M 14.114 9.296 C 14.486 9.397 14.877 9.176 14.968 8.794 L 15.851 5.471 C 15.952 5.1 15.731 4.708 15.349 4.618 C 14.978 4.517 14.586 4.738 14.496 5.12 L 13.612 8.443 C 13.522 8.815 13.743 9.196 14.114 9.296 Z" style="fill: rgb(255, 255, 255);"/>
</svg>