<?xml version="1.0" encoding="utf-8"?>
<svg width="70" height="70" viewBox="0 0 63 70" fill="none" xmlns="http://www.w3.org/2000/svg">
  <g transform="matrix(0.229243, 0, 0, 0.229243, 31.109758, 15.755855)">
    <path d="M0,226.878C-5.961,226.878 -10.871,221.969 -10.871,216.008C-10.871,209.696 -5.961,204.786 0,204.786C2.607,204.786 5.012,205.725 6.894,207.309C6.896,207.311 6.899,207.313 6.901,207.316C7.114,207.495 7.315,207.689 7.514,207.885C7.792,208.165 8.065,208.449 8.314,208.755C8.322,208.764 8.331,208.773 8.34,208.783C8.624,209.134 8.882,209.506 9.124,209.889C9.189,209.992 9.25,210.099 9.312,210.205C9.476,210.484 9.625,210.773 9.765,211.068C9.831,211.208 9.901,211.345 9.962,211.489C10.125,211.871 10.268,212.264 10.389,212.671C10.434,212.823 10.465,212.981 10.504,213.136C10.582,213.444 10.649,213.757 10.702,214.077C10.728,214.237 10.753,214.398 10.773,214.56C10.829,215.032 10.87,215.511 10.87,216.008C10.87,221.969 5.961,226.878 0,226.878M116.77,-8.065C112.212,-8.065 108.705,-4.559 108.705,-0L108.705,62.067C108.705,92.575 102.393,119.225 89.419,140.966C76.444,163.058 56.456,180.591 28.404,193.565L19.988,197.422L12.136,201.229C8.858,198.426 4.635,196.721 0,196.721C-10.52,196.721 -18.936,205.487 -18.936,216.008C-18.936,226.527 -10.52,234.943 0,234.943C10.482,234.943 18.87,226.586 18.93,216.12L26.65,212.501L27.001,212.501L35.417,208.293C66.275,193.916 88.717,174.279 103.445,149.382C118.173,124.836 125.186,95.731 125.186,62.067L125.186,-0C125.186,-4.559 121.329,-8.065 116.77,-8.065" style="fill:rgb(5,195,222);"/>
  </g>
  <g transform="matrix(0.229243, 0, 0, 0.229243, 4.340946, 61.978218)">
    <path d="M0,-248.97C6.312,-248.97 11.221,-244.061 11.221,-238.1C11.221,-232.557 7.435,-228.099 2.238,-227.093C2.075,-227.134 1.921,-227.199 1.753,-227.229C1.391,-227.048 1.121,-226.962 0.849,-226.92C0.568,-226.9 0.287,-226.878 0,-226.878C-0.182,-226.878 -0.36,-226.897 -0.54,-226.906C-0.854,-226.939 -1.191,-227.017 -1.403,-227.229C-1.6,-227.193 -1.781,-227.12 -1.973,-227.07C-7.006,-228.014 -10.871,-232.501 -10.871,-238.1C-10.871,-244.061 -5.961,-248.97 0,-248.97M87.315,-8.767L86.263,-9.117L85.211,-9.819C58.56,-22.793 39.274,-40.326 27.001,-61.717C14.377,-83.458 8.416,-109.407 8.416,-139.564L8.416,-219.164C8.416,-219.796 8.315,-220.412 8.172,-221.015C14.552,-224.048 18.936,-230.517 18.936,-238.1C18.936,-248.619 10.52,-257.035 0,-257.035C-10.52,-257.035 -18.936,-248.619 -18.936,-238.1C-18.936,-230.394 -14.412,-223.834 -7.862,-220.866C-7.983,-220.31 -8.065,-219.744 -8.065,-219.164L-8.065,-139.564C-8.065,-106.601 -1.403,-77.847 12.624,-53.652C26.65,-29.105 48.391,-9.468 78.198,4.909L78.198,5.26L79.249,5.61L80.301,6.312C84.509,8.065 89.419,6.312 91.172,2.104C93.276,-1.754 91.523,-6.663 87.315,-8.767" style="fill:rgb(5,195,222);"/>
  </g>
  <g transform="matrix(0.229243, 0, 0, 0.229243, 33.593395, 25.591688)">
    <path d="M0,74.09C-3.064,71.961 -6.79,70.709 -10.834,70.709C-14.831,70.709 -18.52,71.928 -21.563,74.011C-27.511,69.681 -32.251,64.855 -35.731,59.137C-41.342,49.318 -43.796,36.344 -43.796,19.161L-43.796,3.031C-38.536,2.68 -33.277,1.979 -27.666,0.576C-26.209,0.16 -24.759,-0.297 -23.32,-0.775C-20.043,2.028 -15.819,3.732 -11.185,3.732C-6.445,3.732 -2.142,1.942 1.166,-0.976C2.858,-0.424 4.576,0.104 6.348,0.576C11.608,1.979 17.219,2.68 22.479,3.031L22.479,19.161C22.479,36.344 20.024,49.318 14.063,59.137C10.811,64.889 6.106,69.74 0,74.09M-10.834,100.865C-15.658,100.865 -19.79,97.65 -21.193,93.079C-21.469,91.934 -21.705,90.789 -21.705,89.644C-21.705,89.068 -21.648,88.498 -21.555,87.936C-21.545,87.877 -21.538,87.817 -21.527,87.758C-21.424,87.194 -21.28,86.639 -21.092,86.101C-21.085,86.082 -21.078,86.063 -21.071,86.045C-20.712,85.036 -20.194,84.097 -19.576,83.237C-17.589,80.543 -14.405,78.774 -10.834,78.774C-9.753,78.774 -8.709,78.94 -7.72,79.239C-7.298,79.373 -6.887,79.522 -6.493,79.696C-6.315,79.775 -6.141,79.863 -5.968,79.95C-5.678,80.097 -5.401,80.258 -5.129,80.425C-4.781,80.642 -4.445,80.875 -4.125,81.129C-4.031,81.202 -3.937,81.277 -3.846,81.353C-2.591,82.414 -1.579,83.752 -0.903,85.268C-0.858,85.371 -0.812,85.473 -0.77,85.577C-0.659,85.848 -0.554,86.122 -0.465,86.403C-0.342,86.804 -0.238,87.213 -0.161,87.631C-0.131,87.787 -0.11,87.946 -0.088,88.104C-0.017,88.61 0.036,89.12 0.036,89.644C0.036,95.956 -4.873,100.865 -10.834,100.865M-11.185,-26.425C-6.553,-26.425 -2.568,-23.456 -1.016,-19.337L-1.016,-19.061L-0.914,-19.061C-0.819,-18.787 -0.738,-18.508 -0.665,-18.225L-0.665,-17.658L-0.525,-17.658C-0.389,-16.976 -0.314,-16.274 -0.314,-15.554C-0.314,-14.58 -0.444,-13.645 -0.664,-12.75L-0.665,-12.749L-0.665,-12.745C-0.753,-12.388 -0.856,-12.039 -0.976,-11.697L-1.016,-11.697L-1.016,-11.586C-1.061,-11.462 -1.099,-11.336 -1.148,-11.215L-1.366,-10.996L-1.366,-10.728C-1.433,-10.583 -1.497,-10.436 -1.57,-10.294L-1.717,-10.294L-1.717,-10.016C-1.796,-9.872 -1.882,-9.733 -1.967,-9.593L-2.068,-9.593L-2.068,-9.423C-2.26,-9.118 -2.466,-8.824 -2.685,-8.541L-2.769,-8.541L-2.769,-8.426C-2.833,-8.345 -2.902,-8.269 -2.969,-8.19L-3.12,-8.19L-3.12,-8.021C-3.173,-7.96 -3.226,-7.899 -3.281,-7.84L-3.47,-7.84L-3.47,-7.626C-3.515,-7.579 -3.562,-7.535 -3.608,-7.489L-3.821,-7.489L-3.821,-7.292C-3.876,-7.24 -3.931,-7.189 -3.986,-7.138L-4.172,-7.138L-4.172,-6.966C-4.241,-6.906 -4.31,-6.846 -4.381,-6.788L-4.522,-6.788L-4.522,-6.679C-4.626,-6.597 -4.733,-6.516 -4.84,-6.437L-5.224,-6.437L-5.224,-6.159C-5.262,-6.133 -5.302,-6.111 -5.34,-6.086L-5.574,-6.086L-5.574,-5.941C-5.685,-5.873 -5.793,-5.8 -5.907,-5.736L-6.276,-5.736L-6.276,-5.54C-6.38,-5.486 -6.486,-5.436 -6.591,-5.385L-6.977,-5.385L-7.277,-5.085C-7.322,-5.067 -7.368,-5.051 -7.413,-5.035L-8.029,-5.035L-8.33,-4.733C-9.243,-4.479 -10.197,-4.333 -11.185,-4.333C-12.057,-4.333 -12.901,-4.45 -13.716,-4.649C-13.691,-4.661 -13.664,-4.672 -13.639,-4.684L-13.851,-4.684C-14.014,-4.726 -14.18,-4.762 -14.341,-4.812L-14.341,-5.035L-14.957,-5.035C-15.102,-5.089 -15.251,-5.136 -15.393,-5.197L-15.393,-5.385L-15.778,-5.385C-15.884,-5.436 -15.99,-5.486 -16.094,-5.54L-16.094,-5.736L-16.463,-5.736C-16.577,-5.8 -16.685,-5.873 -16.795,-5.941L-16.795,-6.086L-17.03,-6.086C-17.151,-6.166 -17.272,-6.247 -17.391,-6.331L-17.497,-6.437L-17.53,-6.437C-17.637,-6.516 -17.743,-6.597 -17.847,-6.679L-17.847,-6.788L-17.989,-6.788C-18.06,-6.846 -18.129,-6.906 -18.198,-6.966L-18.198,-7.138L-18.384,-7.138C-18.82,-7.535 -19.231,-7.961 -19.601,-8.426L-19.601,-8.541L-19.685,-8.541C-20.625,-9.754 -21.319,-11.178 -21.705,-12.745L-21.705,-12.749L-21.706,-12.749C-21.926,-13.644 -22.055,-14.579 -22.055,-15.554C-22.055,-16.399 -21.947,-17.218 -21.761,-18.009L-21.705,-18.009L-21.705,-18.226C-20.499,-22.912 -16.224,-26.425 -11.185,-26.425M28.44,67.553C35.804,54.929 38.96,39.499 38.96,19.161L38.96,-13.1L30.544,-13.1C24.583,-12.749 17.569,-13.801 10.556,-15.554C9.587,-15.796 8.642,-16.062 7.71,-16.341C7.288,-26.17 -0.939,-34.49 -11.185,-34.49C-21.517,-34.49 -29.8,-26.03 -30.093,-16.093C-30.686,-15.913 -31.279,-15.733 -31.874,-15.554C-38.887,-13.801 -46.251,-12.749 -52.212,-13.1L-60.628,-13.1L-60.628,19.161C-60.628,39.499 -57.122,54.929 -49.758,67.553C-44.957,75.819 -38.32,82.661 -29.715,88.551C-29.736,88.915 -29.77,89.275 -29.77,89.644C-29.77,100.164 -21.354,108.58 -10.834,108.58C-0.314,108.58 8.102,100.164 8.102,89.644C8.102,89.276 8.068,88.917 8.047,88.554C16.669,82.663 23.372,75.821 28.44,67.553" style="fill:rgb(5,195,222);"/>
  </g>
  <g transform="matrix(0.229243, 0, 0, 0.229243, 10.691508, 53.457249)">
    <path d="M0,-82.055C0,-88.016 5.26,-92.925 11.221,-92.925C17.183,-92.925 22.092,-88.016 22.092,-82.055C22.092,-76.492 17.815,-71.848 12.399,-71.252C12.013,-71.214 11.623,-71.184 11.221,-71.184C10.766,-71.184 10.336,-71.235 9.901,-71.273C4.506,-71.932 0,-76.539 0,-82.055M85.561,17.182L89.068,18.936L89.419,18.936L92.925,17.182L99.939,14.026L108.705,9.819C122.03,3.506 133.251,-3.857 142.368,-12.273C151.837,-21.04 158.85,-30.858 164.46,-41.729L164.811,-42.43C165.162,-43.131 165.162,-43.482 165.512,-44.183C167.266,-48.391 165.512,-53.301 161.305,-55.054C157.096,-56.807 152.187,-55.054 150.434,-50.846L150.083,-49.794L149.733,-49.794L149.382,-49.093C145.174,-39.625 138.862,-31.56 131.147,-24.546C123.433,-17.182 113.614,-10.52 101.692,-5.26L92.925,-1.052L89.068,0.701L85.561,-1.052L76.795,-5.26C58.911,-13.325 45.586,-23.845 36.469,-36.469C29.811,-45.346 25.372,-55.345 22.409,-66.764C27.11,-70.198 30.157,-75.739 30.157,-82.055C30.157,-92.575 21.741,-100.991 11.221,-100.991C0.701,-100.991 -7.715,-92.575 -7.715,-82.055C-7.715,-73.278 -1.848,-65.985 6.203,-63.803C9.552,-49.934 15.171,-37.47 23.144,-26.65C34.014,-11.922 49.443,0.351 69.782,9.819L78.548,14.026L85.561,17.182Z" style="fill:rgb(5,195,222);"/>
  </g>
  <g transform="matrix(0.229243, 0, 0, 0.229243, 52.090775, 14.38943)">
    <path d="M0,88.366C0,94.327 -4.91,99.237 -10.871,99.237C-17.183,99.237 -22.092,94.327 -22.092,88.366C-22.092,82.405 -17.183,77.496 -10.871,77.496C-4.91,77.496 0,82.405 0,88.366M-3.858,-2.806L-12.624,-2.806C-31.56,-1.754 -44.184,-2.105 -55.054,-4.208C-65.574,-6.313 -74.691,-10.521 -86.964,-17.534C-88.367,-18.586 -89.77,-18.936 -91.523,-18.936C-92.926,-18.936 -94.679,-18.586 -96.082,-17.534C-108.354,-10.521 -117.472,-6.313 -127.641,-4.208C-138.512,-2.105 -151.135,-1.754 -170.071,-2.806L-178.838,-2.806L-178.838,51.897C-178.838,56.456 -174.98,60.313 -170.422,60.313C-165.863,60.313 -162.357,56.456 -162.357,51.897L-162.357,14.026C-146.577,14.376 -135.005,14.026 -124.485,11.922C-113.264,9.467 -103.445,5.259 -91.523,-1.403C-79.25,5.259 -69.782,9.467 -58.21,11.922C-47.69,14.026 -36.469,14.376 -20.339,14.026L-20.339,71.901C-26.162,75.146 -30.157,81.271 -30.157,88.366C-30.157,98.886 -21.391,107.302 -10.871,107.302C-0.702,107.302 8.065,98.886 8.065,88.366C8.065,80.386 3.017,73.627 -3.858,70.823L-3.858,-2.806Z" style="fill:rgb(5,195,222);"/>
  </g>
  <g transform="matrix(0.229243, 0, 0, 0.229243, 57.878807, 1.76861)">
    <path d="M0,35.767C-2.753,35.767 -5.274,34.711 -7.199,32.962L-7.013,32.962C-8.237,31.913 -9.199,30.689 -9.856,29.291C-9.86,29.283 -9.864,29.276 -9.867,29.268C-9.981,29.024 -10.074,28.768 -10.169,28.514C-10.23,28.347 -10.294,28.183 -10.347,28.013C-10.384,27.895 -10.413,27.773 -10.446,27.653C-10.517,27.395 -10.587,27.136 -10.64,26.87C-10.658,26.781 -10.668,26.687 -10.684,26.596C-10.733,26.314 -10.781,26.03 -10.81,25.739C-10.847,25.35 -10.87,24.954 -10.87,24.546C-10.87,24.155 -10.848,23.77 -10.806,23.39C-10.803,23.364 -10.797,23.339 -10.794,23.313C-10.477,20.66 -9.143,18.306 -7.013,16.481L-7.237,16.481C-5.308,14.746 -2.772,13.675 0,13.675C6.312,13.675 11.221,18.585 11.221,24.546C11.221,30.858 6.312,35.767 0,35.767M0,5.61C-7.37,5.61 -13.985,10.042 -17.078,16.481L-39.625,16.481C-54.703,16.831 -67.678,15.779 -79.25,12.273C-90.821,9.117 -100.99,3.506 -110.458,-5.26C-112.212,-7.014 -114.316,-7.715 -116.77,-7.715C-118.874,-7.715 -120.978,-7.014 -122.732,-5.26C-132.199,3.506 -142.369,9.117 -153.94,12.273C-165.512,15.779 -178.837,16.831 -193.565,16.481L-197.072,16.481C-201.63,16.481 -205.137,19.987 -205.137,24.546C-205.137,29.105 -201.63,32.962 -197.072,32.962L-193.916,32.962C-177.435,33.313 -162.707,31.91 -149.382,28.053C-137.459,24.546 -126.589,19.286 -116.77,11.221C-106.601,19.286 -95.73,24.546 -83.808,28.053C-70.483,31.91 -55.755,33.313 -39.274,32.962L-16.906,32.962C-13.743,39.21 -7.236,43.482 0,43.482C10.52,43.482 19.286,35.066 19.286,24.546C19.286,14.026 10.52,5.61 0,5.61" style="fill:rgb(5,195,222);"/>
  </g>
</svg>