<?xml version="1.0" encoding="utf-8"?>
<svg id="Layer_1" viewBox="0 0 50 50" xmlns="http://www.w3.org/2000/svg" data-name="Layer 1">
  <path d="M 21.985 22.908 L 23.413 27.168 L 20.524 27.168 L 21.985 22.908 Z M 48.963 38.85 C 47.609 40.729 45 41.7 41.355 41.7 C 40.689 41.7 39.987 41.669 39.257 41.603 C 38.633 41.549 38.174 41.038 38.237 40.468 C 38.298 39.893 38.861 39.48 39.474 39.531 C 43.296 39.871 45.979 39.218 47.07 37.702 C 47.652 36.89 47.792 35.821 47.483 34.518 C 46.594 30.781 42.261 25.901 36.133 21.47 C 37.439 30.904 33.992 50.076 24.913 50.076 C 22.415 50.076 20.085 48.454 18.172 45.389 C 17.859 44.888 18.048 44.254 18.594 43.967 C 19.131 43.68 19.828 43.853 20.142 44.354 C 21.178 46.016 22.848 47.997 24.915 47.997 C 28.3 47.997 31.981 42.133 33.389 33.044 C 26.559 37.541 15.439 41.866 8.487 41.746 C 5.513 41.798 2.087 40.94 0.728 38.646 C -0.719 36.339 -0.141 33.159 2.396 29.448 C 2.733 28.96 3.439 28.82 3.959 29.121 C 4.489 29.427 4.65 30.071 4.318 30.556 C 2.283 33.527 1.707 36.03 2.694 37.604 C 3.22 38.448 4.202 39.041 5.607 39.37 C 9.441 40.272 15.683 39.071 22.357 36.341 C 20.974 35.651 19.428 34.855 18.357 34.247 C 8.583 28.661 1.426 21.538 0.131 16.097 C -0.313 14.228 -0.067 12.619 0.868 11.32 C 2.507 9.052 5.965 8.11 10.863 8.596 C 11.485 8.657 11.937 9.17 11.87 9.743 C 11.802 10.315 11.241 10.732 10.62 10.666 C 6.672 10.271 3.878 10.916 2.759 12.472 C 2.176 13.282 2.037 14.351 2.346 15.654 C 3.235 19.391 7.565 24.271 13.696 28.702 C 12.394 19.261 16.787 -0.604 24.915 0.094 C 27.413 0.094 29.744 1.714 31.652 4.78 C 31.652 4.78 31.652 4.78 31.657 4.782 C 32.487 6.111 33.218 7.7 33.85 9.491 C 39.939 8.183 45.761 7.228 49.102 11.526 C 50.581 13.885 49.95 17.145 47.274 20.95 C 46.933 21.436 46.224 21.567 45.709 21.259 C 45.183 20.947 45.029 20.303 45.37 19.82 C 47.522 16.757 48.15 14.182 47.135 12.564 C 46.609 11.721 45.626 11.127 44.222 10.795 C 40.389 9.904 34.161 11.096 27.498 13.817 C 28.837 14.491 30.348 15.283 31.472 15.921 C 41.252 21.506 48.407 28.628 49.702 34.069 C 50.146 35.938 49.9 37.546 48.966 38.843 L 48.963 38.85 Z M 16.444 17.131 C 17.274 16.618 18.081 16.085 18.937 15.602 C 23.255 13.176 27.615 11.341 31.668 10.115 C 31.087 8.484 30.433 7.015 29.689 5.822 C 29.689 5.822 29.689 5.822 29.689 5.82 C 28.224 3.472 26.533 2.18 24.92 2.18 C 21.535 2.18 17.855 8.045 16.446 17.134 L 16.444 17.131 Z M 26.735 29.985 L 23.289 19.714 C 23.115 19.193 22.592 18.836 21.996 18.836 C 21.407 18.836 20.883 19.189 20.705 19.706 L 17.183 29.979 C 16.955 30.649 17.498 31.332 18.265 31.332 C 18.761 31.332 19.198 31.037 19.348 30.603 L 19.813 29.249 L 24.115 29.249 L 24.568 30.598 C 24.715 31.035 25.152 31.332 25.652 31.332 C 26.413 31.332 26.961 30.656 26.737 29.985 L 26.735 29.985 Z M 31.724 19.878 C 31.724 19.303 31.215 18.836 30.589 18.836 C 29.963 18.836 29.455 19.303 29.455 19.878 L 29.455 30.29 C 29.455 30.865 29.963 31.332 30.589 31.332 C 31.215 31.332 31.724 30.865 31.724 30.29 L 31.724 19.878 Z" style="fill: rgb(255, 255, 255); stroke: rgb(255, 255, 255);"/>
</svg>