<?xml version="1.0" encoding="utf-8"?>
<svg xmlns="http://www.w3.org/2000/svg" id="Layer_1" data-name="Layer 1" viewBox="0 0 50 50" width="512" height="512">
  <path d="M 50.241 32.545 C 50.241 33.12 49.774 33.587 49.199 33.587 L 46.768 33.587 C 45.201 33.587 43.647 34.103 42.393 35.045 L 29.701 44.562 C 28.393 45.578 26.82 46.089 25.243 46.089 C 23.666 46.089 22.081 45.576 20.764 44.549 L 8.087 35.045 C 6.833 34.103 5.278 33.587 3.712 33.587 L 1.283 33.587 C 0.708 33.587 0.241 33.12 0.241 32.545 C 0.241 31.97 0.708 31.503 1.283 31.503 L 3.714 31.503 C 5.731 31.503 7.726 32.168 9.337 33.376 L 22.028 42.893 C 23.924 44.372 26.556 44.366 28.439 42.905 L 41.145 33.376 C 41.593 33.041 42.07 32.749 42.57 32.499 L 27.406 21.128 L 24.674 23.743 C 23.708 24.71 22.387 25.253 21.01 25.253 C 19.233 25.253 17.668 24.322 16.762 23.064 C 15.297 21.03 15.606 18.08 17.485 16.203 L 23.795 10.262 L 21.741 8.391 C 19.52 6.37 16.051 6.01 13.541 7.268 L 8.718 9.68 C 7.422 10.328 5.972 10.67 4.524 10.67 L 1.283 10.67 C 0.708 10.67 0.241 10.203 0.241 9.628 C 0.241 9.053 0.708 8.587 1.283 8.587 L 4.524 8.587 C 5.649 8.587 6.778 8.32 7.785 7.818 L 12.608 5.405 C 13.893 4.76 15.337 4.42 16.781 4.42 C 19.187 4.42 21.42 5.285 23.143 6.851 L 25.314 8.83 L 27.303 6.957 C 30.093 4.332 34.464 3.697 37.872 5.405 L 42.695 7.818 C 43.701 8.32 44.831 8.587 45.956 8.587 L 49.197 8.587 C 49.772 8.587 50.239 9.053 50.239 9.628 C 50.239 10.203 49.772 10.67 49.197 10.67 L 45.956 10.67 C 44.51 10.67 43.058 10.328 41.762 9.68 L 36.939 7.268 C 34.289 5.939 30.895 6.435 28.731 8.474 L 18.933 17.699 C 17.791 18.841 17.576 20.632 18.451 21.847 C 19.008 22.618 19.824 23.085 20.753 23.16 C 21.662 23.226 22.566 22.905 23.216 22.253 L 31.893 13.947 C 32.308 13.549 32.968 13.564 33.366 13.98 C 33.762 14.395 33.749 15.055 33.333 15.453 L 28.931 19.668 L 44.953 31.685 C 45.549 31.566 46.158 31.503 46.768 31.503 L 49.199 31.503 C 49.774 31.503 50.241 31.97 50.241 32.545 Z" style="fill: rgb(255, 255, 255);"/>
</svg>